%TF.GenerationSoftware,KiCad,Pcbnew,(5.1.10-1-10_14)*%
%TF.CreationDate,2022-04-25T19:01:15+02:00*%
%TF.ProjectId,STM32_USB_BuckConvertor,53544d33-325f-4555-9342-5f4275636b43,rev?*%
%TF.SameCoordinates,Original*%
%TF.FileFunction,Copper,L4,Bot*%
%TF.FilePolarity,Positive*%
%FSLAX46Y46*%
G04 Gerber Fmt 4.6, Leading zero omitted, Abs format (unit mm)*
G04 Created by KiCad (PCBNEW (5.1.10-1-10_14)) date 2022-04-25 19:01:15*
%MOMM*%
%LPD*%
G01*
G04 APERTURE LIST*
%TA.AperFunction,NonConductor*%
%ADD10C,0.300000*%
%TD*%
%TA.AperFunction,ComponentPad*%
%ADD11C,0.900000*%
%TD*%
%TA.AperFunction,ComponentPad*%
%ADD12C,8.600000*%
%TD*%
%TA.AperFunction,ComponentPad*%
%ADD13C,2.400000*%
%TD*%
%TA.AperFunction,ComponentPad*%
%ADD14R,2.400000X2.400000*%
%TD*%
%TA.AperFunction,ComponentPad*%
%ADD15O,0.800000X1.300000*%
%TD*%
%TA.AperFunction,ComponentPad*%
%ADD16O,1.100000X2.200000*%
%TD*%
%TA.AperFunction,ComponentPad*%
%ADD17O,1.100000X1.800000*%
%TD*%
%TA.AperFunction,ViaPad*%
%ADD18C,0.800000*%
%TD*%
%TA.AperFunction,Conductor*%
%ADD19C,0.500000*%
%TD*%
%TA.AperFunction,Conductor*%
%ADD20C,0.750000*%
%TD*%
%TA.AperFunction,Conductor*%
%ADD21C,0.300000*%
%TD*%
G04 APERTURE END LIST*
D10*
X54110714Y-28403571D02*
X54110714Y-26903571D01*
X54753571Y-27046428D02*
X54825000Y-26975000D01*
X54967857Y-26903571D01*
X55325000Y-26903571D01*
X55467857Y-26975000D01*
X55539285Y-27046428D01*
X55610714Y-27189285D01*
X55610714Y-27332142D01*
X55539285Y-27546428D01*
X54682142Y-28403571D01*
X55610714Y-28403571D01*
X57110714Y-28260714D02*
X57039285Y-28332142D01*
X56825000Y-28403571D01*
X56682142Y-28403571D01*
X56467857Y-28332142D01*
X56325000Y-28189285D01*
X56253571Y-28046428D01*
X56182142Y-27760714D01*
X56182142Y-27546428D01*
X56253571Y-27260714D01*
X56325000Y-27117857D01*
X56467857Y-26975000D01*
X56682142Y-26903571D01*
X56825000Y-26903571D01*
X57039285Y-26975000D01*
X57110714Y-27046428D01*
X71482142Y-32089285D02*
X71553571Y-32303571D01*
X71553571Y-32660714D01*
X71482142Y-32803571D01*
X71410714Y-32875000D01*
X71267857Y-32946428D01*
X71125000Y-32946428D01*
X70982142Y-32875000D01*
X70910714Y-32803571D01*
X70839285Y-32660714D01*
X70767857Y-32375000D01*
X70696428Y-32232142D01*
X70625000Y-32160714D01*
X70482142Y-32089285D01*
X70339285Y-32089285D01*
X70196428Y-32160714D01*
X70125000Y-32232142D01*
X70053571Y-32375000D01*
X70053571Y-32732142D01*
X70125000Y-32946428D01*
X70053571Y-33446428D02*
X71553571Y-33803571D01*
X70482142Y-34089285D01*
X71553571Y-34375000D01*
X70053571Y-34732142D01*
X71553571Y-35303571D02*
X70053571Y-35303571D01*
X70053571Y-35660714D01*
X70125000Y-35875000D01*
X70267857Y-36017857D01*
X70410714Y-36089285D01*
X70696428Y-36160714D01*
X70910714Y-36160714D01*
X71196428Y-36089285D01*
X71339285Y-36017857D01*
X71482142Y-35875000D01*
X71553571Y-35660714D01*
X71553571Y-35303571D01*
X46667857Y-61003571D02*
X46667857Y-62217857D01*
X46596428Y-62360714D01*
X46525000Y-62432142D01*
X46382142Y-62503571D01*
X46096428Y-62503571D01*
X45953571Y-62432142D01*
X45882142Y-62360714D01*
X45810714Y-62217857D01*
X45810714Y-61003571D01*
X45167857Y-62075000D02*
X44453571Y-62075000D01*
X45310714Y-62503571D02*
X44810714Y-61003571D01*
X44310714Y-62503571D01*
X42953571Y-62503571D02*
X43453571Y-61789285D01*
X43810714Y-62503571D02*
X43810714Y-61003571D01*
X43239285Y-61003571D01*
X43096428Y-61075000D01*
X43025000Y-61146428D01*
X42953571Y-61289285D01*
X42953571Y-61503571D01*
X43025000Y-61646428D01*
X43096428Y-61717857D01*
X43239285Y-61789285D01*
X43810714Y-61789285D01*
X42525000Y-61003571D02*
X41667857Y-61003571D01*
X42096428Y-62503571D02*
X42096428Y-61003571D01*
X58325000Y-58982142D02*
X58253571Y-58839285D01*
X58253571Y-58625000D01*
X58325000Y-58410714D01*
X58467857Y-58267857D01*
X58610714Y-58196428D01*
X58896428Y-58125000D01*
X59110714Y-58125000D01*
X59396428Y-58196428D01*
X59539285Y-58267857D01*
X59682142Y-58410714D01*
X59753571Y-58625000D01*
X59753571Y-58767857D01*
X59682142Y-58982142D01*
X59610714Y-59053571D01*
X59110714Y-59053571D01*
X59110714Y-58767857D01*
X59753571Y-59696428D02*
X58253571Y-59696428D01*
X59753571Y-60553571D01*
X58253571Y-60553571D01*
X59753571Y-61267857D02*
X58253571Y-61267857D01*
X58253571Y-61625000D01*
X58325000Y-61839285D01*
X58467857Y-61982142D01*
X58610714Y-62053571D01*
X58896428Y-62125000D01*
X59110714Y-62125000D01*
X59396428Y-62053571D01*
X59539285Y-61982142D01*
X59682142Y-61839285D01*
X59753571Y-61625000D01*
X59753571Y-61267857D01*
X55182142Y-57807142D02*
X55182142Y-58950000D01*
X55753571Y-58378571D02*
X54610714Y-58378571D01*
X55753571Y-60450000D02*
X55753571Y-59592857D01*
X55753571Y-60021428D02*
X54253571Y-60021428D01*
X54467857Y-59878571D01*
X54610714Y-59735714D01*
X54682142Y-59592857D01*
X54396428Y-61021428D02*
X54325000Y-61092857D01*
X54253571Y-61235714D01*
X54253571Y-61592857D01*
X54325000Y-61735714D01*
X54396428Y-61807142D01*
X54539285Y-61878571D01*
X54682142Y-61878571D01*
X54896428Y-61807142D01*
X55753571Y-60950000D01*
X55753571Y-61878571D01*
X54253571Y-62307142D02*
X55753571Y-62807142D01*
X54253571Y-63307142D01*
D11*
%TO.P,H1,1*%
%TO.N,GND*%
X77080419Y-62519581D03*
X74800000Y-61575000D03*
X72519581Y-62519581D03*
X71575000Y-64800000D03*
X72519581Y-67080419D03*
X74800000Y-68025000D03*
X77080419Y-67080419D03*
X78025000Y-64800000D03*
D12*
X74800000Y-64800000D03*
%TD*%
D11*
%TO.P,H2,1*%
%TO.N,GND*%
X37280419Y-62719581D03*
X35000000Y-61775000D03*
X32719581Y-62719581D03*
X31775000Y-65000000D03*
X32719581Y-67280419D03*
X35000000Y-68225000D03*
X37280419Y-67280419D03*
X38225000Y-65000000D03*
D12*
X35000000Y-65000000D03*
%TD*%
D11*
%TO.P,H3,1*%
%TO.N,GND*%
X77080419Y-22919581D03*
X74800000Y-21975000D03*
X72519581Y-22919581D03*
X71575000Y-25200000D03*
X72519581Y-27480419D03*
X74800000Y-28425000D03*
X77080419Y-27480419D03*
X78025000Y-25200000D03*
D12*
X74800000Y-25200000D03*
%TD*%
D11*
%TO.P,H4,1*%
%TO.N,GND*%
X37280419Y-22719581D03*
X35000000Y-21775000D03*
X32719581Y-22719581D03*
X31775000Y-25000000D03*
X32719581Y-27280419D03*
X35000000Y-28225000D03*
X37280419Y-27280419D03*
X38225000Y-25000000D03*
D12*
X35000000Y-25000000D03*
%TD*%
D13*
%TO.P,J1,2*%
%TO.N,GND*%
X58750000Y-64950000D03*
D14*
%TO.P,J1,1*%
%TO.N,+12V*%
X55250000Y-64950000D03*
%TD*%
D15*
%TO.P,J2,4*%
%TO.N,GND*%
X53850000Y-25190000D03*
%TO.P,J2,3*%
%TO.N,I2C_SDA*%
X55100000Y-25190000D03*
%TO.P,J2,2*%
%TO.N,I2C_SCL*%
X56350000Y-25190000D03*
%TO.P,J2,1*%
%TO.N,+3V3*%
%TA.AperFunction,ComponentPad*%
G36*
G01*
X58000000Y-24740000D02*
X58000000Y-25640000D01*
G75*
G02*
X57800000Y-25840000I-200000J0D01*
G01*
X57400000Y-25840000D01*
G75*
G02*
X57200000Y-25640000I0J200000D01*
G01*
X57200000Y-24740000D01*
G75*
G02*
X57400000Y-24540000I200000J0D01*
G01*
X57800000Y-24540000D01*
G75*
G02*
X58000000Y-24740000I0J-200000D01*
G01*
G37*
%TD.AperFunction*%
%TD*%
%TO.P,J3,4*%
%TO.N,GND*%
X46125000Y-64625000D03*
%TO.P,J3,3*%
%TO.N,USART3_RX*%
X44875000Y-64625000D03*
%TO.P,J3,2*%
%TO.N,USART3_TX*%
X43625000Y-64625000D03*
%TO.P,J3,1*%
%TO.N,+3V3*%
%TA.AperFunction,ComponentPad*%
G36*
G01*
X41975000Y-65075000D02*
X41975000Y-64175000D01*
G75*
G02*
X42175000Y-63975000I200000J0D01*
G01*
X42575000Y-63975000D01*
G75*
G02*
X42775000Y-64175000I0J-200000D01*
G01*
X42775000Y-65075000D01*
G75*
G02*
X42575000Y-65275000I-200000J0D01*
G01*
X42175000Y-65275000D01*
G75*
G02*
X41975000Y-65075000I0J200000D01*
G01*
G37*
%TD.AperFunction*%
%TD*%
D16*
%TO.P,J5,6*%
%TO.N,Net-(J5-Pad6)*%
X78175000Y-44030000D03*
D17*
X76025000Y-41230000D03*
X76025000Y-46830000D03*
%TD*%
D18*
%TO.N,GND*%
X74300000Y-42725000D03*
X53640000Y-49600000D03*
X52000000Y-49450000D03*
X50550000Y-51750000D03*
X42625000Y-51225000D03*
X37050000Y-45810000D03*
X37720000Y-45070000D03*
X37980000Y-43850000D03*
X37340000Y-37230000D03*
X38520000Y-35930000D03*
X43130000Y-34530000D03*
X52840000Y-36575000D03*
X55070000Y-36420000D03*
X72360000Y-31640000D03*
X72350000Y-34160000D03*
X72360000Y-35440000D03*
X71300000Y-57350000D03*
X65600000Y-53250000D03*
X66170000Y-52290000D03*
X70250000Y-49200000D03*
X61270000Y-54340000D03*
X59310000Y-55500000D03*
X52900000Y-59550000D03*
X46950000Y-63670000D03*
X53850000Y-24030000D03*
X44370000Y-25450000D03*
X34975000Y-44400000D03*
X34225000Y-43800000D03*
X37400000Y-39900000D03*
X36050000Y-37500000D03*
X36725000Y-38100000D03*
X71250000Y-56475000D03*
X66125000Y-51350000D03*
X68150000Y-53275000D03*
X71850000Y-41800000D03*
X71450000Y-44350000D03*
X63950000Y-54675000D03*
X62000000Y-50150000D03*
X59175000Y-62550000D03*
X60425000Y-63200000D03*
%TO.N,+3V3*%
X40210000Y-35380000D03*
X42130000Y-34540000D03*
X63425000Y-50175000D03*
X57600000Y-23825000D03*
X48930000Y-25460000D03*
X71310000Y-50590000D03*
X71440000Y-53970000D03*
X77070000Y-52850000D03*
X76400000Y-51630000D03*
X74290000Y-54620000D03*
X75930000Y-54730000D03*
X65350000Y-49450000D03*
X51860000Y-37060000D03*
X37710000Y-47650000D03*
X37000000Y-47020000D03*
X43620000Y-50750000D03*
X51800000Y-48460000D03*
X72360000Y-36750000D03*
X71400000Y-54830000D03*
X70430000Y-50570000D03*
X75390000Y-51630000D03*
X41060000Y-36830000D03*
X45310000Y-33330000D03*
X49020000Y-34110000D03*
X42350000Y-63350000D03*
%TO.N,+5V*%
X67960000Y-45322712D03*
X69554081Y-44365919D03*
X70595656Y-46235002D03*
X70450611Y-44384998D03*
%TO.N,SWO*%
X72691929Y-38599990D03*
X75900000Y-34610000D03*
%TO.N,NRST*%
X49680000Y-41930000D03*
X59460000Y-37530000D03*
%TD*%
D19*
%TO.N,GND*%
X71450001Y-42199999D02*
X71850000Y-41800000D01*
X71450000Y-44350000D02*
X71450001Y-42199999D01*
D20*
%TO.N,+5V*%
X68597288Y-45322712D02*
X69554081Y-44365919D01*
X67960000Y-45322712D02*
X68597288Y-45322712D01*
D21*
X70595656Y-44530043D02*
X70450611Y-44384998D01*
X70595656Y-46235002D02*
X70595656Y-44530043D01*
%TO.N,SWO*%
X72691929Y-38599990D02*
X75780000Y-35511919D01*
X75780000Y-34730000D02*
X75900000Y-34610000D01*
X75780000Y-35511919D02*
X75780000Y-34730000D01*
%TO.N,NRST*%
X49680000Y-41930000D02*
X55000000Y-41930000D01*
X59400000Y-37530000D02*
X59460000Y-37530000D01*
X55000000Y-41930000D02*
X59400000Y-37530000D01*
%TD*%
M02*
