%TF.GenerationSoftware,KiCad,Pcbnew,(5.1.10-1-10_14)*%
%TF.CreationDate,2022-04-25T19:01:15+02:00*%
%TF.ProjectId,STM32_USB_BuckConvertor,53544d33-325f-4555-9342-5f4275636b43,rev?*%
%TF.SameCoordinates,Original*%
%TF.FileFunction,Paste,Top*%
%TF.FilePolarity,Positive*%
%FSLAX46Y46*%
G04 Gerber Fmt 4.6, Leading zero omitted, Abs format (unit mm)*
G04 Created by KiCad (PCBNEW (5.1.10-1-10_14)) date 2022-04-25 19:01:15*
%MOMM*%
%LPD*%
G01*
G04 APERTURE LIST*
%ADD10R,1.060000X0.650000*%
%ADD11R,0.900000X1.200000*%
%ADD12R,0.650000X1.060000*%
%ADD13R,2.100000X0.750000*%
%ADD14R,1.500000X0.450000*%
%ADD15R,2.500000X1.900000*%
%ADD16R,0.800000X0.900000*%
%ADD17R,1.000000X0.800000*%
%ADD18R,0.700000X1.500000*%
%ADD19R,1.200000X1.400000*%
G04 APERTURE END LIST*
D10*
%TO.C,U1*%
X70260000Y-44360000D03*
X70260000Y-45310000D03*
X70260000Y-43410000D03*
X72460000Y-43410000D03*
X72460000Y-44360000D03*
X72460000Y-45310000D03*
%TD*%
%TO.C,U2*%
G36*
G01*
X42125000Y-37625000D02*
X42125000Y-36225000D01*
G75*
G02*
X42200000Y-36150000I75000J0D01*
G01*
X42350000Y-36150000D01*
G75*
G02*
X42425000Y-36225000I0J-75000D01*
G01*
X42425000Y-37625000D01*
G75*
G02*
X42350000Y-37700000I-75000J0D01*
G01*
X42200000Y-37700000D01*
G75*
G02*
X42125000Y-37625000I0J75000D01*
G01*
G37*
G36*
G01*
X42625000Y-37625000D02*
X42625000Y-36225000D01*
G75*
G02*
X42700000Y-36150000I75000J0D01*
G01*
X42850000Y-36150000D01*
G75*
G02*
X42925000Y-36225000I0J-75000D01*
G01*
X42925000Y-37625000D01*
G75*
G02*
X42850000Y-37700000I-75000J0D01*
G01*
X42700000Y-37700000D01*
G75*
G02*
X42625000Y-37625000I0J75000D01*
G01*
G37*
G36*
G01*
X43125000Y-37625000D02*
X43125000Y-36225000D01*
G75*
G02*
X43200000Y-36150000I75000J0D01*
G01*
X43350000Y-36150000D01*
G75*
G02*
X43425000Y-36225000I0J-75000D01*
G01*
X43425000Y-37625000D01*
G75*
G02*
X43350000Y-37700000I-75000J0D01*
G01*
X43200000Y-37700000D01*
G75*
G02*
X43125000Y-37625000I0J75000D01*
G01*
G37*
G36*
G01*
X43625000Y-37625000D02*
X43625000Y-36225000D01*
G75*
G02*
X43700000Y-36150000I75000J0D01*
G01*
X43850000Y-36150000D01*
G75*
G02*
X43925000Y-36225000I0J-75000D01*
G01*
X43925000Y-37625000D01*
G75*
G02*
X43850000Y-37700000I-75000J0D01*
G01*
X43700000Y-37700000D01*
G75*
G02*
X43625000Y-37625000I0J75000D01*
G01*
G37*
G36*
G01*
X44125000Y-37625000D02*
X44125000Y-36225000D01*
G75*
G02*
X44200000Y-36150000I75000J0D01*
G01*
X44350000Y-36150000D01*
G75*
G02*
X44425000Y-36225000I0J-75000D01*
G01*
X44425000Y-37625000D01*
G75*
G02*
X44350000Y-37700000I-75000J0D01*
G01*
X44200000Y-37700000D01*
G75*
G02*
X44125000Y-37625000I0J75000D01*
G01*
G37*
G36*
G01*
X44625000Y-37625000D02*
X44625000Y-36225000D01*
G75*
G02*
X44700000Y-36150000I75000J0D01*
G01*
X44850000Y-36150000D01*
G75*
G02*
X44925000Y-36225000I0J-75000D01*
G01*
X44925000Y-37625000D01*
G75*
G02*
X44850000Y-37700000I-75000J0D01*
G01*
X44700000Y-37700000D01*
G75*
G02*
X44625000Y-37625000I0J75000D01*
G01*
G37*
G36*
G01*
X45125000Y-37625000D02*
X45125000Y-36225000D01*
G75*
G02*
X45200000Y-36150000I75000J0D01*
G01*
X45350000Y-36150000D01*
G75*
G02*
X45425000Y-36225000I0J-75000D01*
G01*
X45425000Y-37625000D01*
G75*
G02*
X45350000Y-37700000I-75000J0D01*
G01*
X45200000Y-37700000D01*
G75*
G02*
X45125000Y-37625000I0J75000D01*
G01*
G37*
G36*
G01*
X45625000Y-37625000D02*
X45625000Y-36225000D01*
G75*
G02*
X45700000Y-36150000I75000J0D01*
G01*
X45850000Y-36150000D01*
G75*
G02*
X45925000Y-36225000I0J-75000D01*
G01*
X45925000Y-37625000D01*
G75*
G02*
X45850000Y-37700000I-75000J0D01*
G01*
X45700000Y-37700000D01*
G75*
G02*
X45625000Y-37625000I0J75000D01*
G01*
G37*
G36*
G01*
X46125000Y-37625000D02*
X46125000Y-36225000D01*
G75*
G02*
X46200000Y-36150000I75000J0D01*
G01*
X46350000Y-36150000D01*
G75*
G02*
X46425000Y-36225000I0J-75000D01*
G01*
X46425000Y-37625000D01*
G75*
G02*
X46350000Y-37700000I-75000J0D01*
G01*
X46200000Y-37700000D01*
G75*
G02*
X46125000Y-37625000I0J75000D01*
G01*
G37*
G36*
G01*
X46625000Y-37625000D02*
X46625000Y-36225000D01*
G75*
G02*
X46700000Y-36150000I75000J0D01*
G01*
X46850000Y-36150000D01*
G75*
G02*
X46925000Y-36225000I0J-75000D01*
G01*
X46925000Y-37625000D01*
G75*
G02*
X46850000Y-37700000I-75000J0D01*
G01*
X46700000Y-37700000D01*
G75*
G02*
X46625000Y-37625000I0J75000D01*
G01*
G37*
G36*
G01*
X47125000Y-37625000D02*
X47125000Y-36225000D01*
G75*
G02*
X47200000Y-36150000I75000J0D01*
G01*
X47350000Y-36150000D01*
G75*
G02*
X47425000Y-36225000I0J-75000D01*
G01*
X47425000Y-37625000D01*
G75*
G02*
X47350000Y-37700000I-75000J0D01*
G01*
X47200000Y-37700000D01*
G75*
G02*
X47125000Y-37625000I0J75000D01*
G01*
G37*
G36*
G01*
X47625000Y-37625000D02*
X47625000Y-36225000D01*
G75*
G02*
X47700000Y-36150000I75000J0D01*
G01*
X47850000Y-36150000D01*
G75*
G02*
X47925000Y-36225000I0J-75000D01*
G01*
X47925000Y-37625000D01*
G75*
G02*
X47850000Y-37700000I-75000J0D01*
G01*
X47700000Y-37700000D01*
G75*
G02*
X47625000Y-37625000I0J75000D01*
G01*
G37*
G36*
G01*
X48125000Y-37625000D02*
X48125000Y-36225000D01*
G75*
G02*
X48200000Y-36150000I75000J0D01*
G01*
X48350000Y-36150000D01*
G75*
G02*
X48425000Y-36225000I0J-75000D01*
G01*
X48425000Y-37625000D01*
G75*
G02*
X48350000Y-37700000I-75000J0D01*
G01*
X48200000Y-37700000D01*
G75*
G02*
X48125000Y-37625000I0J75000D01*
G01*
G37*
G36*
G01*
X48625000Y-37625000D02*
X48625000Y-36225000D01*
G75*
G02*
X48700000Y-36150000I75000J0D01*
G01*
X48850000Y-36150000D01*
G75*
G02*
X48925000Y-36225000I0J-75000D01*
G01*
X48925000Y-37625000D01*
G75*
G02*
X48850000Y-37700000I-75000J0D01*
G01*
X48700000Y-37700000D01*
G75*
G02*
X48625000Y-37625000I0J75000D01*
G01*
G37*
G36*
G01*
X49125000Y-37625000D02*
X49125000Y-36225000D01*
G75*
G02*
X49200000Y-36150000I75000J0D01*
G01*
X49350000Y-36150000D01*
G75*
G02*
X49425000Y-36225000I0J-75000D01*
G01*
X49425000Y-37625000D01*
G75*
G02*
X49350000Y-37700000I-75000J0D01*
G01*
X49200000Y-37700000D01*
G75*
G02*
X49125000Y-37625000I0J75000D01*
G01*
G37*
G36*
G01*
X49625000Y-37625000D02*
X49625000Y-36225000D01*
G75*
G02*
X49700000Y-36150000I75000J0D01*
G01*
X49850000Y-36150000D01*
G75*
G02*
X49925000Y-36225000I0J-75000D01*
G01*
X49925000Y-37625000D01*
G75*
G02*
X49850000Y-37700000I-75000J0D01*
G01*
X49700000Y-37700000D01*
G75*
G02*
X49625000Y-37625000I0J75000D01*
G01*
G37*
G36*
G01*
X50925000Y-38925000D02*
X50925000Y-38775000D01*
G75*
G02*
X51000000Y-38700000I75000J0D01*
G01*
X52400000Y-38700000D01*
G75*
G02*
X52475000Y-38775000I0J-75000D01*
G01*
X52475000Y-38925000D01*
G75*
G02*
X52400000Y-39000000I-75000J0D01*
G01*
X51000000Y-39000000D01*
G75*
G02*
X50925000Y-38925000I0J75000D01*
G01*
G37*
G36*
G01*
X50925000Y-39425000D02*
X50925000Y-39275000D01*
G75*
G02*
X51000000Y-39200000I75000J0D01*
G01*
X52400000Y-39200000D01*
G75*
G02*
X52475000Y-39275000I0J-75000D01*
G01*
X52475000Y-39425000D01*
G75*
G02*
X52400000Y-39500000I-75000J0D01*
G01*
X51000000Y-39500000D01*
G75*
G02*
X50925000Y-39425000I0J75000D01*
G01*
G37*
G36*
G01*
X50925000Y-39925000D02*
X50925000Y-39775000D01*
G75*
G02*
X51000000Y-39700000I75000J0D01*
G01*
X52400000Y-39700000D01*
G75*
G02*
X52475000Y-39775000I0J-75000D01*
G01*
X52475000Y-39925000D01*
G75*
G02*
X52400000Y-40000000I-75000J0D01*
G01*
X51000000Y-40000000D01*
G75*
G02*
X50925000Y-39925000I0J75000D01*
G01*
G37*
G36*
G01*
X50925000Y-40425000D02*
X50925000Y-40275000D01*
G75*
G02*
X51000000Y-40200000I75000J0D01*
G01*
X52400000Y-40200000D01*
G75*
G02*
X52475000Y-40275000I0J-75000D01*
G01*
X52475000Y-40425000D01*
G75*
G02*
X52400000Y-40500000I-75000J0D01*
G01*
X51000000Y-40500000D01*
G75*
G02*
X50925000Y-40425000I0J75000D01*
G01*
G37*
G36*
G01*
X50925000Y-40925000D02*
X50925000Y-40775000D01*
G75*
G02*
X51000000Y-40700000I75000J0D01*
G01*
X52400000Y-40700000D01*
G75*
G02*
X52475000Y-40775000I0J-75000D01*
G01*
X52475000Y-40925000D01*
G75*
G02*
X52400000Y-41000000I-75000J0D01*
G01*
X51000000Y-41000000D01*
G75*
G02*
X50925000Y-40925000I0J75000D01*
G01*
G37*
G36*
G01*
X50925000Y-41425000D02*
X50925000Y-41275000D01*
G75*
G02*
X51000000Y-41200000I75000J0D01*
G01*
X52400000Y-41200000D01*
G75*
G02*
X52475000Y-41275000I0J-75000D01*
G01*
X52475000Y-41425000D01*
G75*
G02*
X52400000Y-41500000I-75000J0D01*
G01*
X51000000Y-41500000D01*
G75*
G02*
X50925000Y-41425000I0J75000D01*
G01*
G37*
G36*
G01*
X50925000Y-41925000D02*
X50925000Y-41775000D01*
G75*
G02*
X51000000Y-41700000I75000J0D01*
G01*
X52400000Y-41700000D01*
G75*
G02*
X52475000Y-41775000I0J-75000D01*
G01*
X52475000Y-41925000D01*
G75*
G02*
X52400000Y-42000000I-75000J0D01*
G01*
X51000000Y-42000000D01*
G75*
G02*
X50925000Y-41925000I0J75000D01*
G01*
G37*
G36*
G01*
X50925000Y-42425000D02*
X50925000Y-42275000D01*
G75*
G02*
X51000000Y-42200000I75000J0D01*
G01*
X52400000Y-42200000D01*
G75*
G02*
X52475000Y-42275000I0J-75000D01*
G01*
X52475000Y-42425000D01*
G75*
G02*
X52400000Y-42500000I-75000J0D01*
G01*
X51000000Y-42500000D01*
G75*
G02*
X50925000Y-42425000I0J75000D01*
G01*
G37*
G36*
G01*
X50925000Y-42925000D02*
X50925000Y-42775000D01*
G75*
G02*
X51000000Y-42700000I75000J0D01*
G01*
X52400000Y-42700000D01*
G75*
G02*
X52475000Y-42775000I0J-75000D01*
G01*
X52475000Y-42925000D01*
G75*
G02*
X52400000Y-43000000I-75000J0D01*
G01*
X51000000Y-43000000D01*
G75*
G02*
X50925000Y-42925000I0J75000D01*
G01*
G37*
G36*
G01*
X50925000Y-43425000D02*
X50925000Y-43275000D01*
G75*
G02*
X51000000Y-43200000I75000J0D01*
G01*
X52400000Y-43200000D01*
G75*
G02*
X52475000Y-43275000I0J-75000D01*
G01*
X52475000Y-43425000D01*
G75*
G02*
X52400000Y-43500000I-75000J0D01*
G01*
X51000000Y-43500000D01*
G75*
G02*
X50925000Y-43425000I0J75000D01*
G01*
G37*
G36*
G01*
X50925000Y-43925000D02*
X50925000Y-43775000D01*
G75*
G02*
X51000000Y-43700000I75000J0D01*
G01*
X52400000Y-43700000D01*
G75*
G02*
X52475000Y-43775000I0J-75000D01*
G01*
X52475000Y-43925000D01*
G75*
G02*
X52400000Y-44000000I-75000J0D01*
G01*
X51000000Y-44000000D01*
G75*
G02*
X50925000Y-43925000I0J75000D01*
G01*
G37*
G36*
G01*
X50925000Y-44425000D02*
X50925000Y-44275000D01*
G75*
G02*
X51000000Y-44200000I75000J0D01*
G01*
X52400000Y-44200000D01*
G75*
G02*
X52475000Y-44275000I0J-75000D01*
G01*
X52475000Y-44425000D01*
G75*
G02*
X52400000Y-44500000I-75000J0D01*
G01*
X51000000Y-44500000D01*
G75*
G02*
X50925000Y-44425000I0J75000D01*
G01*
G37*
G36*
G01*
X50925000Y-44925000D02*
X50925000Y-44775000D01*
G75*
G02*
X51000000Y-44700000I75000J0D01*
G01*
X52400000Y-44700000D01*
G75*
G02*
X52475000Y-44775000I0J-75000D01*
G01*
X52475000Y-44925000D01*
G75*
G02*
X52400000Y-45000000I-75000J0D01*
G01*
X51000000Y-45000000D01*
G75*
G02*
X50925000Y-44925000I0J75000D01*
G01*
G37*
G36*
G01*
X50925000Y-45425000D02*
X50925000Y-45275000D01*
G75*
G02*
X51000000Y-45200000I75000J0D01*
G01*
X52400000Y-45200000D01*
G75*
G02*
X52475000Y-45275000I0J-75000D01*
G01*
X52475000Y-45425000D01*
G75*
G02*
X52400000Y-45500000I-75000J0D01*
G01*
X51000000Y-45500000D01*
G75*
G02*
X50925000Y-45425000I0J75000D01*
G01*
G37*
G36*
G01*
X50925000Y-45925000D02*
X50925000Y-45775000D01*
G75*
G02*
X51000000Y-45700000I75000J0D01*
G01*
X52400000Y-45700000D01*
G75*
G02*
X52475000Y-45775000I0J-75000D01*
G01*
X52475000Y-45925000D01*
G75*
G02*
X52400000Y-46000000I-75000J0D01*
G01*
X51000000Y-46000000D01*
G75*
G02*
X50925000Y-45925000I0J75000D01*
G01*
G37*
G36*
G01*
X50925000Y-46425000D02*
X50925000Y-46275000D01*
G75*
G02*
X51000000Y-46200000I75000J0D01*
G01*
X52400000Y-46200000D01*
G75*
G02*
X52475000Y-46275000I0J-75000D01*
G01*
X52475000Y-46425000D01*
G75*
G02*
X52400000Y-46500000I-75000J0D01*
G01*
X51000000Y-46500000D01*
G75*
G02*
X50925000Y-46425000I0J75000D01*
G01*
G37*
G36*
G01*
X49625000Y-48975000D02*
X49625000Y-47575000D01*
G75*
G02*
X49700000Y-47500000I75000J0D01*
G01*
X49850000Y-47500000D01*
G75*
G02*
X49925000Y-47575000I0J-75000D01*
G01*
X49925000Y-48975000D01*
G75*
G02*
X49850000Y-49050000I-75000J0D01*
G01*
X49700000Y-49050000D01*
G75*
G02*
X49625000Y-48975000I0J75000D01*
G01*
G37*
G36*
G01*
X49125000Y-48975000D02*
X49125000Y-47575000D01*
G75*
G02*
X49200000Y-47500000I75000J0D01*
G01*
X49350000Y-47500000D01*
G75*
G02*
X49425000Y-47575000I0J-75000D01*
G01*
X49425000Y-48975000D01*
G75*
G02*
X49350000Y-49050000I-75000J0D01*
G01*
X49200000Y-49050000D01*
G75*
G02*
X49125000Y-48975000I0J75000D01*
G01*
G37*
G36*
G01*
X48625000Y-48975000D02*
X48625000Y-47575000D01*
G75*
G02*
X48700000Y-47500000I75000J0D01*
G01*
X48850000Y-47500000D01*
G75*
G02*
X48925000Y-47575000I0J-75000D01*
G01*
X48925000Y-48975000D01*
G75*
G02*
X48850000Y-49050000I-75000J0D01*
G01*
X48700000Y-49050000D01*
G75*
G02*
X48625000Y-48975000I0J75000D01*
G01*
G37*
G36*
G01*
X48125000Y-48975000D02*
X48125000Y-47575000D01*
G75*
G02*
X48200000Y-47500000I75000J0D01*
G01*
X48350000Y-47500000D01*
G75*
G02*
X48425000Y-47575000I0J-75000D01*
G01*
X48425000Y-48975000D01*
G75*
G02*
X48350000Y-49050000I-75000J0D01*
G01*
X48200000Y-49050000D01*
G75*
G02*
X48125000Y-48975000I0J75000D01*
G01*
G37*
G36*
G01*
X47625000Y-48975000D02*
X47625000Y-47575000D01*
G75*
G02*
X47700000Y-47500000I75000J0D01*
G01*
X47850000Y-47500000D01*
G75*
G02*
X47925000Y-47575000I0J-75000D01*
G01*
X47925000Y-48975000D01*
G75*
G02*
X47850000Y-49050000I-75000J0D01*
G01*
X47700000Y-49050000D01*
G75*
G02*
X47625000Y-48975000I0J75000D01*
G01*
G37*
G36*
G01*
X47125000Y-48975000D02*
X47125000Y-47575000D01*
G75*
G02*
X47200000Y-47500000I75000J0D01*
G01*
X47350000Y-47500000D01*
G75*
G02*
X47425000Y-47575000I0J-75000D01*
G01*
X47425000Y-48975000D01*
G75*
G02*
X47350000Y-49050000I-75000J0D01*
G01*
X47200000Y-49050000D01*
G75*
G02*
X47125000Y-48975000I0J75000D01*
G01*
G37*
G36*
G01*
X46625000Y-48975000D02*
X46625000Y-47575000D01*
G75*
G02*
X46700000Y-47500000I75000J0D01*
G01*
X46850000Y-47500000D01*
G75*
G02*
X46925000Y-47575000I0J-75000D01*
G01*
X46925000Y-48975000D01*
G75*
G02*
X46850000Y-49050000I-75000J0D01*
G01*
X46700000Y-49050000D01*
G75*
G02*
X46625000Y-48975000I0J75000D01*
G01*
G37*
G36*
G01*
X46125000Y-48975000D02*
X46125000Y-47575000D01*
G75*
G02*
X46200000Y-47500000I75000J0D01*
G01*
X46350000Y-47500000D01*
G75*
G02*
X46425000Y-47575000I0J-75000D01*
G01*
X46425000Y-48975000D01*
G75*
G02*
X46350000Y-49050000I-75000J0D01*
G01*
X46200000Y-49050000D01*
G75*
G02*
X46125000Y-48975000I0J75000D01*
G01*
G37*
G36*
G01*
X45625000Y-48975000D02*
X45625000Y-47575000D01*
G75*
G02*
X45700000Y-47500000I75000J0D01*
G01*
X45850000Y-47500000D01*
G75*
G02*
X45925000Y-47575000I0J-75000D01*
G01*
X45925000Y-48975000D01*
G75*
G02*
X45850000Y-49050000I-75000J0D01*
G01*
X45700000Y-49050000D01*
G75*
G02*
X45625000Y-48975000I0J75000D01*
G01*
G37*
G36*
G01*
X45125000Y-48975000D02*
X45125000Y-47575000D01*
G75*
G02*
X45200000Y-47500000I75000J0D01*
G01*
X45350000Y-47500000D01*
G75*
G02*
X45425000Y-47575000I0J-75000D01*
G01*
X45425000Y-48975000D01*
G75*
G02*
X45350000Y-49050000I-75000J0D01*
G01*
X45200000Y-49050000D01*
G75*
G02*
X45125000Y-48975000I0J75000D01*
G01*
G37*
G36*
G01*
X44625000Y-48975000D02*
X44625000Y-47575000D01*
G75*
G02*
X44700000Y-47500000I75000J0D01*
G01*
X44850000Y-47500000D01*
G75*
G02*
X44925000Y-47575000I0J-75000D01*
G01*
X44925000Y-48975000D01*
G75*
G02*
X44850000Y-49050000I-75000J0D01*
G01*
X44700000Y-49050000D01*
G75*
G02*
X44625000Y-48975000I0J75000D01*
G01*
G37*
G36*
G01*
X44125000Y-48975000D02*
X44125000Y-47575000D01*
G75*
G02*
X44200000Y-47500000I75000J0D01*
G01*
X44350000Y-47500000D01*
G75*
G02*
X44425000Y-47575000I0J-75000D01*
G01*
X44425000Y-48975000D01*
G75*
G02*
X44350000Y-49050000I-75000J0D01*
G01*
X44200000Y-49050000D01*
G75*
G02*
X44125000Y-48975000I0J75000D01*
G01*
G37*
G36*
G01*
X43625000Y-48975000D02*
X43625000Y-47575000D01*
G75*
G02*
X43700000Y-47500000I75000J0D01*
G01*
X43850000Y-47500000D01*
G75*
G02*
X43925000Y-47575000I0J-75000D01*
G01*
X43925000Y-48975000D01*
G75*
G02*
X43850000Y-49050000I-75000J0D01*
G01*
X43700000Y-49050000D01*
G75*
G02*
X43625000Y-48975000I0J75000D01*
G01*
G37*
G36*
G01*
X43125000Y-48975000D02*
X43125000Y-47575000D01*
G75*
G02*
X43200000Y-47500000I75000J0D01*
G01*
X43350000Y-47500000D01*
G75*
G02*
X43425000Y-47575000I0J-75000D01*
G01*
X43425000Y-48975000D01*
G75*
G02*
X43350000Y-49050000I-75000J0D01*
G01*
X43200000Y-49050000D01*
G75*
G02*
X43125000Y-48975000I0J75000D01*
G01*
G37*
G36*
G01*
X42625000Y-48975000D02*
X42625000Y-47575000D01*
G75*
G02*
X42700000Y-47500000I75000J0D01*
G01*
X42850000Y-47500000D01*
G75*
G02*
X42925000Y-47575000I0J-75000D01*
G01*
X42925000Y-48975000D01*
G75*
G02*
X42850000Y-49050000I-75000J0D01*
G01*
X42700000Y-49050000D01*
G75*
G02*
X42625000Y-48975000I0J75000D01*
G01*
G37*
G36*
G01*
X42125000Y-48975000D02*
X42125000Y-47575000D01*
G75*
G02*
X42200000Y-47500000I75000J0D01*
G01*
X42350000Y-47500000D01*
G75*
G02*
X42425000Y-47575000I0J-75000D01*
G01*
X42425000Y-48975000D01*
G75*
G02*
X42350000Y-49050000I-75000J0D01*
G01*
X42200000Y-49050000D01*
G75*
G02*
X42125000Y-48975000I0J75000D01*
G01*
G37*
G36*
G01*
X39575000Y-46425000D02*
X39575000Y-46275000D01*
G75*
G02*
X39650000Y-46200000I75000J0D01*
G01*
X41050000Y-46200000D01*
G75*
G02*
X41125000Y-46275000I0J-75000D01*
G01*
X41125000Y-46425000D01*
G75*
G02*
X41050000Y-46500000I-75000J0D01*
G01*
X39650000Y-46500000D01*
G75*
G02*
X39575000Y-46425000I0J75000D01*
G01*
G37*
G36*
G01*
X39575000Y-45925000D02*
X39575000Y-45775000D01*
G75*
G02*
X39650000Y-45700000I75000J0D01*
G01*
X41050000Y-45700000D01*
G75*
G02*
X41125000Y-45775000I0J-75000D01*
G01*
X41125000Y-45925000D01*
G75*
G02*
X41050000Y-46000000I-75000J0D01*
G01*
X39650000Y-46000000D01*
G75*
G02*
X39575000Y-45925000I0J75000D01*
G01*
G37*
G36*
G01*
X39575000Y-45425000D02*
X39575000Y-45275000D01*
G75*
G02*
X39650000Y-45200000I75000J0D01*
G01*
X41050000Y-45200000D01*
G75*
G02*
X41125000Y-45275000I0J-75000D01*
G01*
X41125000Y-45425000D01*
G75*
G02*
X41050000Y-45500000I-75000J0D01*
G01*
X39650000Y-45500000D01*
G75*
G02*
X39575000Y-45425000I0J75000D01*
G01*
G37*
G36*
G01*
X39575000Y-44925000D02*
X39575000Y-44775000D01*
G75*
G02*
X39650000Y-44700000I75000J0D01*
G01*
X41050000Y-44700000D01*
G75*
G02*
X41125000Y-44775000I0J-75000D01*
G01*
X41125000Y-44925000D01*
G75*
G02*
X41050000Y-45000000I-75000J0D01*
G01*
X39650000Y-45000000D01*
G75*
G02*
X39575000Y-44925000I0J75000D01*
G01*
G37*
G36*
G01*
X39575000Y-44425000D02*
X39575000Y-44275000D01*
G75*
G02*
X39650000Y-44200000I75000J0D01*
G01*
X41050000Y-44200000D01*
G75*
G02*
X41125000Y-44275000I0J-75000D01*
G01*
X41125000Y-44425000D01*
G75*
G02*
X41050000Y-44500000I-75000J0D01*
G01*
X39650000Y-44500000D01*
G75*
G02*
X39575000Y-44425000I0J75000D01*
G01*
G37*
G36*
G01*
X39575000Y-43925000D02*
X39575000Y-43775000D01*
G75*
G02*
X39650000Y-43700000I75000J0D01*
G01*
X41050000Y-43700000D01*
G75*
G02*
X41125000Y-43775000I0J-75000D01*
G01*
X41125000Y-43925000D01*
G75*
G02*
X41050000Y-44000000I-75000J0D01*
G01*
X39650000Y-44000000D01*
G75*
G02*
X39575000Y-43925000I0J75000D01*
G01*
G37*
G36*
G01*
X39575000Y-43425000D02*
X39575000Y-43275000D01*
G75*
G02*
X39650000Y-43200000I75000J0D01*
G01*
X41050000Y-43200000D01*
G75*
G02*
X41125000Y-43275000I0J-75000D01*
G01*
X41125000Y-43425000D01*
G75*
G02*
X41050000Y-43500000I-75000J0D01*
G01*
X39650000Y-43500000D01*
G75*
G02*
X39575000Y-43425000I0J75000D01*
G01*
G37*
G36*
G01*
X39575000Y-42925000D02*
X39575000Y-42775000D01*
G75*
G02*
X39650000Y-42700000I75000J0D01*
G01*
X41050000Y-42700000D01*
G75*
G02*
X41125000Y-42775000I0J-75000D01*
G01*
X41125000Y-42925000D01*
G75*
G02*
X41050000Y-43000000I-75000J0D01*
G01*
X39650000Y-43000000D01*
G75*
G02*
X39575000Y-42925000I0J75000D01*
G01*
G37*
G36*
G01*
X39575000Y-42425000D02*
X39575000Y-42275000D01*
G75*
G02*
X39650000Y-42200000I75000J0D01*
G01*
X41050000Y-42200000D01*
G75*
G02*
X41125000Y-42275000I0J-75000D01*
G01*
X41125000Y-42425000D01*
G75*
G02*
X41050000Y-42500000I-75000J0D01*
G01*
X39650000Y-42500000D01*
G75*
G02*
X39575000Y-42425000I0J75000D01*
G01*
G37*
G36*
G01*
X39575000Y-41925000D02*
X39575000Y-41775000D01*
G75*
G02*
X39650000Y-41700000I75000J0D01*
G01*
X41050000Y-41700000D01*
G75*
G02*
X41125000Y-41775000I0J-75000D01*
G01*
X41125000Y-41925000D01*
G75*
G02*
X41050000Y-42000000I-75000J0D01*
G01*
X39650000Y-42000000D01*
G75*
G02*
X39575000Y-41925000I0J75000D01*
G01*
G37*
G36*
G01*
X39575000Y-41425000D02*
X39575000Y-41275000D01*
G75*
G02*
X39650000Y-41200000I75000J0D01*
G01*
X41050000Y-41200000D01*
G75*
G02*
X41125000Y-41275000I0J-75000D01*
G01*
X41125000Y-41425000D01*
G75*
G02*
X41050000Y-41500000I-75000J0D01*
G01*
X39650000Y-41500000D01*
G75*
G02*
X39575000Y-41425000I0J75000D01*
G01*
G37*
G36*
G01*
X39575000Y-40925000D02*
X39575000Y-40775000D01*
G75*
G02*
X39650000Y-40700000I75000J0D01*
G01*
X41050000Y-40700000D01*
G75*
G02*
X41125000Y-40775000I0J-75000D01*
G01*
X41125000Y-40925000D01*
G75*
G02*
X41050000Y-41000000I-75000J0D01*
G01*
X39650000Y-41000000D01*
G75*
G02*
X39575000Y-40925000I0J75000D01*
G01*
G37*
G36*
G01*
X39575000Y-40425000D02*
X39575000Y-40275000D01*
G75*
G02*
X39650000Y-40200000I75000J0D01*
G01*
X41050000Y-40200000D01*
G75*
G02*
X41125000Y-40275000I0J-75000D01*
G01*
X41125000Y-40425000D01*
G75*
G02*
X41050000Y-40500000I-75000J0D01*
G01*
X39650000Y-40500000D01*
G75*
G02*
X39575000Y-40425000I0J75000D01*
G01*
G37*
G36*
G01*
X39575000Y-39925000D02*
X39575000Y-39775000D01*
G75*
G02*
X39650000Y-39700000I75000J0D01*
G01*
X41050000Y-39700000D01*
G75*
G02*
X41125000Y-39775000I0J-75000D01*
G01*
X41125000Y-39925000D01*
G75*
G02*
X41050000Y-40000000I-75000J0D01*
G01*
X39650000Y-40000000D01*
G75*
G02*
X39575000Y-39925000I0J75000D01*
G01*
G37*
G36*
G01*
X39575000Y-39425000D02*
X39575000Y-39275000D01*
G75*
G02*
X39650000Y-39200000I75000J0D01*
G01*
X41050000Y-39200000D01*
G75*
G02*
X41125000Y-39275000I0J-75000D01*
G01*
X41125000Y-39425000D01*
G75*
G02*
X41050000Y-39500000I-75000J0D01*
G01*
X39650000Y-39500000D01*
G75*
G02*
X39575000Y-39425000I0J75000D01*
G01*
G37*
G36*
G01*
X39575000Y-38925000D02*
X39575000Y-38775000D01*
G75*
G02*
X39650000Y-38700000I75000J0D01*
G01*
X41050000Y-38700000D01*
G75*
G02*
X41125000Y-38775000I0J-75000D01*
G01*
X41125000Y-38925000D01*
G75*
G02*
X41050000Y-39000000I-75000J0D01*
G01*
X39650000Y-39000000D01*
G75*
G02*
X39575000Y-38925000I0J75000D01*
G01*
G37*
%TD*%
%TO.C,C1*%
G36*
G01*
X57770000Y-56120001D02*
X57770000Y-54819999D01*
G75*
G02*
X58019999Y-54570000I249999J0D01*
G01*
X58670001Y-54570000D01*
G75*
G02*
X58920000Y-54819999I0J-249999D01*
G01*
X58920000Y-56120001D01*
G75*
G02*
X58670001Y-56370000I-249999J0D01*
G01*
X58019999Y-56370000D01*
G75*
G02*
X57770000Y-56120001I0J249999D01*
G01*
G37*
G36*
G01*
X54820000Y-56120001D02*
X54820000Y-54819999D01*
G75*
G02*
X55069999Y-54570000I249999J0D01*
G01*
X55720001Y-54570000D01*
G75*
G02*
X55970000Y-54819999I0J-249999D01*
G01*
X55970000Y-56120001D01*
G75*
G02*
X55720001Y-56370000I-249999J0D01*
G01*
X55069999Y-56370000D01*
G75*
G02*
X54820000Y-56120001I0J249999D01*
G01*
G37*
%TD*%
%TO.C,C2*%
G36*
G01*
X68020000Y-54079999D02*
X68020000Y-55380001D01*
G75*
G02*
X67770001Y-55630000I-249999J0D01*
G01*
X67119999Y-55630000D01*
G75*
G02*
X66870000Y-55380001I0J249999D01*
G01*
X66870000Y-54079999D01*
G75*
G02*
X67119999Y-53830000I249999J0D01*
G01*
X67770001Y-53830000D01*
G75*
G02*
X68020000Y-54079999I0J-249999D01*
G01*
G37*
G36*
G01*
X70970000Y-54079999D02*
X70970000Y-55380001D01*
G75*
G02*
X70720001Y-55630000I-249999J0D01*
G01*
X70069999Y-55630000D01*
G75*
G02*
X69820000Y-55380001I0J249999D01*
G01*
X69820000Y-54079999D01*
G75*
G02*
X70069999Y-53830000I249999J0D01*
G01*
X70720001Y-53830000D01*
G75*
G02*
X70970000Y-54079999I0J-249999D01*
G01*
G37*
%TD*%
%TO.C,C3*%
G36*
G01*
X68020000Y-51279999D02*
X68020000Y-52580001D01*
G75*
G02*
X67770001Y-52830000I-249999J0D01*
G01*
X67119999Y-52830000D01*
G75*
G02*
X66870000Y-52580001I0J249999D01*
G01*
X66870000Y-51279999D01*
G75*
G02*
X67119999Y-51030000I249999J0D01*
G01*
X67770001Y-51030000D01*
G75*
G02*
X68020000Y-51279999I0J-249999D01*
G01*
G37*
G36*
G01*
X70970000Y-51279999D02*
X70970000Y-52580001D01*
G75*
G02*
X70720001Y-52830000I-249999J0D01*
G01*
X70069999Y-52830000D01*
G75*
G02*
X69820000Y-52580001I0J249999D01*
G01*
X69820000Y-51279999D01*
G75*
G02*
X70069999Y-51030000I249999J0D01*
G01*
X70720001Y-51030000D01*
G75*
G02*
X70970000Y-51279999I0J-249999D01*
G01*
G37*
%TD*%
%TO.C,C4*%
G36*
G01*
X65220000Y-54060000D02*
X65220000Y-54400000D01*
G75*
G02*
X65080000Y-54540000I-140000J0D01*
G01*
X64800000Y-54540000D01*
G75*
G02*
X64660000Y-54400000I0J140000D01*
G01*
X64660000Y-54060000D01*
G75*
G02*
X64800000Y-53920000I140000J0D01*
G01*
X65080000Y-53920000D01*
G75*
G02*
X65220000Y-54060000I0J-140000D01*
G01*
G37*
G36*
G01*
X66180000Y-54060000D02*
X66180000Y-54400000D01*
G75*
G02*
X66040000Y-54540000I-140000J0D01*
G01*
X65760000Y-54540000D01*
G75*
G02*
X65620000Y-54400000I0J140000D01*
G01*
X65620000Y-54060000D01*
G75*
G02*
X65760000Y-53920000I140000J0D01*
G01*
X66040000Y-53920000D01*
G75*
G02*
X66180000Y-54060000I0J-140000D01*
G01*
G37*
%TD*%
%TO.C,C5*%
G36*
G01*
X38700000Y-37250000D02*
X38700000Y-37750000D01*
G75*
G02*
X38475000Y-37975000I-225000J0D01*
G01*
X38025000Y-37975000D01*
G75*
G02*
X37800000Y-37750000I0J225000D01*
G01*
X37800000Y-37250000D01*
G75*
G02*
X38025000Y-37025000I225000J0D01*
G01*
X38475000Y-37025000D01*
G75*
G02*
X38700000Y-37250000I0J-225000D01*
G01*
G37*
G36*
G01*
X40250000Y-37250000D02*
X40250000Y-37750000D01*
G75*
G02*
X40025000Y-37975000I-225000J0D01*
G01*
X39575000Y-37975000D01*
G75*
G02*
X39350000Y-37750000I0J225000D01*
G01*
X39350000Y-37250000D01*
G75*
G02*
X39575000Y-37025000I225000J0D01*
G01*
X40025000Y-37025000D01*
G75*
G02*
X40250000Y-37250000I0J-225000D01*
G01*
G37*
%TD*%
%TO.C,C6*%
G36*
G01*
X39525000Y-35930000D02*
X39525000Y-36270000D01*
G75*
G02*
X39385000Y-36410000I-140000J0D01*
G01*
X39105000Y-36410000D01*
G75*
G02*
X38965000Y-36270000I0J140000D01*
G01*
X38965000Y-35930000D01*
G75*
G02*
X39105000Y-35790000I140000J0D01*
G01*
X39385000Y-35790000D01*
G75*
G02*
X39525000Y-35930000I0J-140000D01*
G01*
G37*
G36*
G01*
X40485000Y-35930000D02*
X40485000Y-36270000D01*
G75*
G02*
X40345000Y-36410000I-140000J0D01*
G01*
X40065000Y-36410000D01*
G75*
G02*
X39925000Y-36270000I0J140000D01*
G01*
X39925000Y-35930000D01*
G75*
G02*
X40065000Y-35790000I140000J0D01*
G01*
X40345000Y-35790000D01*
G75*
G02*
X40485000Y-35930000I0J-140000D01*
G01*
G37*
%TD*%
%TO.C,C7*%
G36*
G01*
X42925000Y-49830000D02*
X42925000Y-50170000D01*
G75*
G02*
X42785000Y-50310000I-140000J0D01*
G01*
X42505000Y-50310000D01*
G75*
G02*
X42365000Y-50170000I0J140000D01*
G01*
X42365000Y-49830000D01*
G75*
G02*
X42505000Y-49690000I140000J0D01*
G01*
X42785000Y-49690000D01*
G75*
G02*
X42925000Y-49830000I0J-140000D01*
G01*
G37*
G36*
G01*
X43885000Y-49830000D02*
X43885000Y-50170000D01*
G75*
G02*
X43745000Y-50310000I-140000J0D01*
G01*
X43465000Y-50310000D01*
G75*
G02*
X43325000Y-50170000I0J140000D01*
G01*
X43325000Y-49830000D01*
G75*
G02*
X43465000Y-49690000I140000J0D01*
G01*
X43745000Y-49690000D01*
G75*
G02*
X43885000Y-49830000I0J-140000D01*
G01*
G37*
%TD*%
%TO.C,C8*%
G36*
G01*
X50880000Y-49150000D02*
X51220000Y-49150000D01*
G75*
G02*
X51360000Y-49290000I0J-140000D01*
G01*
X51360000Y-49570000D01*
G75*
G02*
X51220000Y-49710000I-140000J0D01*
G01*
X50880000Y-49710000D01*
G75*
G02*
X50740000Y-49570000I0J140000D01*
G01*
X50740000Y-49290000D01*
G75*
G02*
X50880000Y-49150000I140000J0D01*
G01*
G37*
G36*
G01*
X50880000Y-48190000D02*
X51220000Y-48190000D01*
G75*
G02*
X51360000Y-48330000I0J-140000D01*
G01*
X51360000Y-48610000D01*
G75*
G02*
X51220000Y-48750000I-140000J0D01*
G01*
X50880000Y-48750000D01*
G75*
G02*
X50740000Y-48610000I0J140000D01*
G01*
X50740000Y-48330000D01*
G75*
G02*
X50880000Y-48190000I140000J0D01*
G01*
G37*
%TD*%
%TO.C,C9*%
G36*
G01*
X52550000Y-37970000D02*
X52550000Y-37630000D01*
G75*
G02*
X52690000Y-37490000I140000J0D01*
G01*
X52970000Y-37490000D01*
G75*
G02*
X53110000Y-37630000I0J-140000D01*
G01*
X53110000Y-37970000D01*
G75*
G02*
X52970000Y-38110000I-140000J0D01*
G01*
X52690000Y-38110000D01*
G75*
G02*
X52550000Y-37970000I0J140000D01*
G01*
G37*
G36*
G01*
X51590000Y-37970000D02*
X51590000Y-37630000D01*
G75*
G02*
X51730000Y-37490000I140000J0D01*
G01*
X52010000Y-37490000D01*
G75*
G02*
X52150000Y-37630000I0J-140000D01*
G01*
X52150000Y-37970000D01*
G75*
G02*
X52010000Y-38110000I-140000J0D01*
G01*
X51730000Y-38110000D01*
G75*
G02*
X51590000Y-37970000I0J140000D01*
G01*
G37*
%TD*%
%TO.C,C10*%
G36*
G01*
X42790000Y-35460000D02*
X42790000Y-35120000D01*
G75*
G02*
X42930000Y-34980000I140000J0D01*
G01*
X43210000Y-34980000D01*
G75*
G02*
X43350000Y-35120000I0J-140000D01*
G01*
X43350000Y-35460000D01*
G75*
G02*
X43210000Y-35600000I-140000J0D01*
G01*
X42930000Y-35600000D01*
G75*
G02*
X42790000Y-35460000I0J140000D01*
G01*
G37*
G36*
G01*
X41830000Y-35460000D02*
X41830000Y-35120000D01*
G75*
G02*
X41970000Y-34980000I140000J0D01*
G01*
X42250000Y-34980000D01*
G75*
G02*
X42390000Y-35120000I0J-140000D01*
G01*
X42390000Y-35460000D01*
G75*
G02*
X42250000Y-35600000I-140000J0D01*
G01*
X41970000Y-35600000D01*
G75*
G02*
X41830000Y-35460000I0J140000D01*
G01*
G37*
%TD*%
%TO.C,C11*%
G36*
G01*
X38900000Y-44090000D02*
X38560000Y-44090000D01*
G75*
G02*
X38420000Y-43950000I0J140000D01*
G01*
X38420000Y-43670000D01*
G75*
G02*
X38560000Y-43530000I140000J0D01*
G01*
X38900000Y-43530000D01*
G75*
G02*
X39040000Y-43670000I0J-140000D01*
G01*
X39040000Y-43950000D01*
G75*
G02*
X38900000Y-44090000I-140000J0D01*
G01*
G37*
G36*
G01*
X38900000Y-45050000D02*
X38560000Y-45050000D01*
G75*
G02*
X38420000Y-44910000I0J140000D01*
G01*
X38420000Y-44630000D01*
G75*
G02*
X38560000Y-44490000I140000J0D01*
G01*
X38900000Y-44490000D01*
G75*
G02*
X39040000Y-44630000I0J-140000D01*
G01*
X39040000Y-44910000D01*
G75*
G02*
X38900000Y-45050000I-140000J0D01*
G01*
G37*
%TD*%
%TO.C,C12*%
G36*
G01*
X38025000Y-45630000D02*
X38025000Y-45970000D01*
G75*
G02*
X37885000Y-46110000I-140000J0D01*
G01*
X37605000Y-46110000D01*
G75*
G02*
X37465000Y-45970000I0J140000D01*
G01*
X37465000Y-45630000D01*
G75*
G02*
X37605000Y-45490000I140000J0D01*
G01*
X37885000Y-45490000D01*
G75*
G02*
X38025000Y-45630000I0J-140000D01*
G01*
G37*
G36*
G01*
X38985000Y-45630000D02*
X38985000Y-45970000D01*
G75*
G02*
X38845000Y-46110000I-140000J0D01*
G01*
X38565000Y-46110000D01*
G75*
G02*
X38425000Y-45970000I0J140000D01*
G01*
X38425000Y-45630000D01*
G75*
G02*
X38565000Y-45490000I140000J0D01*
G01*
X38845000Y-45490000D01*
G75*
G02*
X38985000Y-45630000I0J-140000D01*
G01*
G37*
%TD*%
%TO.C,C13*%
G36*
G01*
X49420000Y-51275000D02*
X49920000Y-51275000D01*
G75*
G02*
X50145000Y-51500000I0J-225000D01*
G01*
X50145000Y-51950000D01*
G75*
G02*
X49920000Y-52175000I-225000J0D01*
G01*
X49420000Y-52175000D01*
G75*
G02*
X49195000Y-51950000I0J225000D01*
G01*
X49195000Y-51500000D01*
G75*
G02*
X49420000Y-51275000I225000J0D01*
G01*
G37*
G36*
G01*
X49420000Y-49725000D02*
X49920000Y-49725000D01*
G75*
G02*
X50145000Y-49950000I0J-225000D01*
G01*
X50145000Y-50400000D01*
G75*
G02*
X49920000Y-50625000I-225000J0D01*
G01*
X49420000Y-50625000D01*
G75*
G02*
X49195000Y-50400000I0J225000D01*
G01*
X49195000Y-49950000D01*
G75*
G02*
X49420000Y-49725000I225000J0D01*
G01*
G37*
%TD*%
%TO.C,C14*%
G36*
G01*
X54425000Y-36925000D02*
X53925000Y-36925000D01*
G75*
G02*
X53700000Y-36700000I0J225000D01*
G01*
X53700000Y-36250000D01*
G75*
G02*
X53925000Y-36025000I225000J0D01*
G01*
X54425000Y-36025000D01*
G75*
G02*
X54650000Y-36250000I0J-225000D01*
G01*
X54650000Y-36700000D01*
G75*
G02*
X54425000Y-36925000I-225000J0D01*
G01*
G37*
G36*
G01*
X54425000Y-38475000D02*
X53925000Y-38475000D01*
G75*
G02*
X53700000Y-38250000I0J225000D01*
G01*
X53700000Y-37800000D01*
G75*
G02*
X53925000Y-37575000I225000J0D01*
G01*
X54425000Y-37575000D01*
G75*
G02*
X54650000Y-37800000I0J-225000D01*
G01*
X54650000Y-38250000D01*
G75*
G02*
X54425000Y-38475000I-225000J0D01*
G01*
G37*
%TD*%
%TO.C,C15*%
G36*
G01*
X35720000Y-38420000D02*
X35720000Y-38080000D01*
G75*
G02*
X35860000Y-37940000I140000J0D01*
G01*
X36140000Y-37940000D01*
G75*
G02*
X36280000Y-38080000I0J-140000D01*
G01*
X36280000Y-38420000D01*
G75*
G02*
X36140000Y-38560000I-140000J0D01*
G01*
X35860000Y-38560000D01*
G75*
G02*
X35720000Y-38420000I0J140000D01*
G01*
G37*
G36*
G01*
X34760000Y-38420000D02*
X34760000Y-38080000D01*
G75*
G02*
X34900000Y-37940000I140000J0D01*
G01*
X35180000Y-37940000D01*
G75*
G02*
X35320000Y-38080000I0J-140000D01*
G01*
X35320000Y-38420000D01*
G75*
G02*
X35180000Y-38560000I-140000J0D01*
G01*
X34900000Y-38560000D01*
G75*
G02*
X34760000Y-38420000I0J140000D01*
G01*
G37*
%TD*%
%TO.C,C16*%
G36*
G01*
X35240000Y-43510000D02*
X35240000Y-43850000D01*
G75*
G02*
X35100000Y-43990000I-140000J0D01*
G01*
X34820000Y-43990000D01*
G75*
G02*
X34680000Y-43850000I0J140000D01*
G01*
X34680000Y-43510000D01*
G75*
G02*
X34820000Y-43370000I140000J0D01*
G01*
X35100000Y-43370000D01*
G75*
G02*
X35240000Y-43510000I0J-140000D01*
G01*
G37*
G36*
G01*
X36200000Y-43510000D02*
X36200000Y-43850000D01*
G75*
G02*
X36060000Y-43990000I-140000J0D01*
G01*
X35780000Y-43990000D01*
G75*
G02*
X35640000Y-43850000I0J140000D01*
G01*
X35640000Y-43510000D01*
G75*
G02*
X35780000Y-43370000I140000J0D01*
G01*
X36060000Y-43370000D01*
G75*
G02*
X36200000Y-43510000I0J-140000D01*
G01*
G37*
%TD*%
D11*
%TO.C,D1*%
X50370000Y-53910000D03*
X53670000Y-53910000D03*
%TD*%
%TO.C,D2*%
X70440000Y-57410000D03*
X67140000Y-57410000D03*
%TD*%
%TO.C,D3*%
G36*
G01*
X54075000Y-46743750D02*
X54075000Y-47256250D01*
G75*
G02*
X53856250Y-47475000I-218750J0D01*
G01*
X53418750Y-47475000D01*
G75*
G02*
X53200000Y-47256250I0J218750D01*
G01*
X53200000Y-46743750D01*
G75*
G02*
X53418750Y-46525000I218750J0D01*
G01*
X53856250Y-46525000D01*
G75*
G02*
X54075000Y-46743750I0J-218750D01*
G01*
G37*
G36*
G01*
X55650000Y-46743750D02*
X55650000Y-47256250D01*
G75*
G02*
X55431250Y-47475000I-218750J0D01*
G01*
X54993750Y-47475000D01*
G75*
G02*
X54775000Y-47256250I0J218750D01*
G01*
X54775000Y-46743750D01*
G75*
G02*
X54993750Y-46525000I218750J0D01*
G01*
X55431250Y-46525000D01*
G75*
G02*
X55650000Y-46743750I0J-218750D01*
G01*
G37*
%TD*%
%TO.C,D4*%
G36*
G01*
X65093750Y-48150000D02*
X65606250Y-48150000D01*
G75*
G02*
X65825000Y-48368750I0J-218750D01*
G01*
X65825000Y-48806250D01*
G75*
G02*
X65606250Y-49025000I-218750J0D01*
G01*
X65093750Y-49025000D01*
G75*
G02*
X64875000Y-48806250I0J218750D01*
G01*
X64875000Y-48368750D01*
G75*
G02*
X65093750Y-48150000I218750J0D01*
G01*
G37*
G36*
G01*
X65093750Y-46575000D02*
X65606250Y-46575000D01*
G75*
G02*
X65825000Y-46793750I0J-218750D01*
G01*
X65825000Y-47231250D01*
G75*
G02*
X65606250Y-47450000I-218750J0D01*
G01*
X65093750Y-47450000D01*
G75*
G02*
X64875000Y-47231250I0J218750D01*
G01*
X64875000Y-46793750D01*
G75*
G02*
X65093750Y-46575000I218750J0D01*
G01*
G37*
%TD*%
%TO.C,F1*%
G36*
G01*
X51195000Y-55805000D02*
X51195000Y-57055000D01*
G75*
G02*
X50945000Y-57305000I-250000J0D01*
G01*
X50195000Y-57305000D01*
G75*
G02*
X49945000Y-57055000I0J250000D01*
G01*
X49945000Y-55805000D01*
G75*
G02*
X50195000Y-55555000I250000J0D01*
G01*
X50945000Y-55555000D01*
G75*
G02*
X51195000Y-55805000I0J-250000D01*
G01*
G37*
G36*
G01*
X53995000Y-55805000D02*
X53995000Y-57055000D01*
G75*
G02*
X53745000Y-57305000I-250000J0D01*
G01*
X52995000Y-57305000D01*
G75*
G02*
X52745000Y-57055000I0J250000D01*
G01*
X52745000Y-55805000D01*
G75*
G02*
X52995000Y-55555000I250000J0D01*
G01*
X53745000Y-55555000D01*
G75*
G02*
X53995000Y-55805000I0J-250000D01*
G01*
G37*
%TD*%
%TO.C,FB1*%
G36*
G01*
X55675000Y-57318750D02*
X55675000Y-58081250D01*
G75*
G02*
X55456250Y-58300000I-218750J0D01*
G01*
X55018750Y-58300000D01*
G75*
G02*
X54800000Y-58081250I0J218750D01*
G01*
X54800000Y-57318750D01*
G75*
G02*
X55018750Y-57100000I218750J0D01*
G01*
X55456250Y-57100000D01*
G75*
G02*
X55675000Y-57318750I0J-218750D01*
G01*
G37*
G36*
G01*
X57800000Y-57318750D02*
X57800000Y-58081250D01*
G75*
G02*
X57581250Y-58300000I-218750J0D01*
G01*
X57143750Y-58300000D01*
G75*
G02*
X56925000Y-58081250I0J218750D01*
G01*
X56925000Y-57318750D01*
G75*
G02*
X57143750Y-57100000I218750J0D01*
G01*
X57581250Y-57100000D01*
G75*
G02*
X57800000Y-57318750I0J-218750D01*
G01*
G37*
%TD*%
D12*
%TO.C,IC1*%
X64130000Y-58340000D03*
X65080000Y-58340000D03*
X63180000Y-58340000D03*
X63180000Y-56140000D03*
X64130000Y-56140000D03*
X65080000Y-56140000D03*
%TD*%
D13*
%TO.C,J4*%
X77440000Y-31600000D03*
X73840000Y-31600000D03*
X77440000Y-32870000D03*
X73840000Y-32870000D03*
X77440000Y-34140000D03*
X73840000Y-34140000D03*
X77440000Y-35410000D03*
X73840000Y-35410000D03*
X77440000Y-36680000D03*
X73840000Y-36680000D03*
%TD*%
D14*
%TO.C,J5*%
X76275000Y-45330000D03*
X76275000Y-42730000D03*
X76275000Y-44680000D03*
X76275000Y-43380000D03*
X76275000Y-44030000D03*
%TD*%
D15*
%TO.C,L1*%
X75270000Y-53050000D03*
X75270000Y-57150000D03*
%TD*%
%TO.C,L2*%
G36*
G01*
X38415000Y-47072500D02*
X38415000Y-46727500D01*
G75*
G02*
X38562500Y-46580000I147500J0D01*
G01*
X38857500Y-46580000D01*
G75*
G02*
X39005000Y-46727500I0J-147500D01*
G01*
X39005000Y-47072500D01*
G75*
G02*
X38857500Y-47220000I-147500J0D01*
G01*
X38562500Y-47220000D01*
G75*
G02*
X38415000Y-47072500I0J147500D01*
G01*
G37*
G36*
G01*
X37445000Y-47072500D02*
X37445000Y-46727500D01*
G75*
G02*
X37592500Y-46580000I147500J0D01*
G01*
X37887500Y-46580000D01*
G75*
G02*
X38035000Y-46727500I0J-147500D01*
G01*
X38035000Y-47072500D01*
G75*
G02*
X37887500Y-47220000I-147500J0D01*
G01*
X37592500Y-47220000D01*
G75*
G02*
X37445000Y-47072500I0J147500D01*
G01*
G37*
%TD*%
D16*
%TO.C,Q1*%
X51900000Y-60400000D03*
X50950000Y-58400000D03*
X52850000Y-58400000D03*
%TD*%
%TO.C,R1*%
G36*
G01*
X61455000Y-58765000D02*
X60905000Y-58765000D01*
G75*
G02*
X60705000Y-58565000I0J200000D01*
G01*
X60705000Y-58165000D01*
G75*
G02*
X60905000Y-57965000I200000J0D01*
G01*
X61455000Y-57965000D01*
G75*
G02*
X61655000Y-58165000I0J-200000D01*
G01*
X61655000Y-58565000D01*
G75*
G02*
X61455000Y-58765000I-200000J0D01*
G01*
G37*
G36*
G01*
X61455000Y-60415000D02*
X60905000Y-60415000D01*
G75*
G02*
X60705000Y-60215000I0J200000D01*
G01*
X60705000Y-59815000D01*
G75*
G02*
X60905000Y-59615000I200000J0D01*
G01*
X61455000Y-59615000D01*
G75*
G02*
X61655000Y-59815000I0J-200000D01*
G01*
X61655000Y-60215000D01*
G75*
G02*
X61455000Y-60415000I-200000J0D01*
G01*
G37*
%TD*%
%TO.C,R2*%
G36*
G01*
X61005000Y-56445000D02*
X61555000Y-56445000D01*
G75*
G02*
X61755000Y-56645000I0J-200000D01*
G01*
X61755000Y-57045000D01*
G75*
G02*
X61555000Y-57245000I-200000J0D01*
G01*
X61005000Y-57245000D01*
G75*
G02*
X60805000Y-57045000I0J200000D01*
G01*
X60805000Y-56645000D01*
G75*
G02*
X61005000Y-56445000I200000J0D01*
G01*
G37*
G36*
G01*
X61005000Y-54795000D02*
X61555000Y-54795000D01*
G75*
G02*
X61755000Y-54995000I0J-200000D01*
G01*
X61755000Y-55395000D01*
G75*
G02*
X61555000Y-55595000I-200000J0D01*
G01*
X61005000Y-55595000D01*
G75*
G02*
X60805000Y-55395000I0J200000D01*
G01*
X60805000Y-54995000D01*
G75*
G02*
X61005000Y-54795000I200000J0D01*
G01*
G37*
%TD*%
%TO.C,R3*%
G36*
G01*
X63750000Y-51825000D02*
X63200000Y-51825000D01*
G75*
G02*
X63000000Y-51625000I0J200000D01*
G01*
X63000000Y-51225000D01*
G75*
G02*
X63200000Y-51025000I200000J0D01*
G01*
X63750000Y-51025000D01*
G75*
G02*
X63950000Y-51225000I0J-200000D01*
G01*
X63950000Y-51625000D01*
G75*
G02*
X63750000Y-51825000I-200000J0D01*
G01*
G37*
G36*
G01*
X63750000Y-53475000D02*
X63200000Y-53475000D01*
G75*
G02*
X63000000Y-53275000I0J200000D01*
G01*
X63000000Y-52875000D01*
G75*
G02*
X63200000Y-52675000I200000J0D01*
G01*
X63750000Y-52675000D01*
G75*
G02*
X63950000Y-52875000I0J-200000D01*
G01*
X63950000Y-53275000D01*
G75*
G02*
X63750000Y-53475000I-200000J0D01*
G01*
G37*
%TD*%
%TO.C,R4*%
G36*
G01*
X61525000Y-53300000D02*
X61525000Y-52750000D01*
G75*
G02*
X61725000Y-52550000I200000J0D01*
G01*
X62125000Y-52550000D01*
G75*
G02*
X62325000Y-52750000I0J-200000D01*
G01*
X62325000Y-53300000D01*
G75*
G02*
X62125000Y-53500000I-200000J0D01*
G01*
X61725000Y-53500000D01*
G75*
G02*
X61525000Y-53300000I0J200000D01*
G01*
G37*
G36*
G01*
X59875000Y-53300000D02*
X59875000Y-52750000D01*
G75*
G02*
X60075000Y-52550000I200000J0D01*
G01*
X60475000Y-52550000D01*
G75*
G02*
X60675000Y-52750000I0J-200000D01*
G01*
X60675000Y-53300000D01*
G75*
G02*
X60475000Y-53500000I-200000J0D01*
G01*
X60075000Y-53500000D01*
G75*
G02*
X59875000Y-53300000I0J200000D01*
G01*
G37*
%TD*%
%TO.C,R5*%
G36*
G01*
X60700000Y-51100000D02*
X60700000Y-51650000D01*
G75*
G02*
X60500000Y-51850000I-200000J0D01*
G01*
X60100000Y-51850000D01*
G75*
G02*
X59900000Y-51650000I0J200000D01*
G01*
X59900000Y-51100000D01*
G75*
G02*
X60100000Y-50900000I200000J0D01*
G01*
X60500000Y-50900000D01*
G75*
G02*
X60700000Y-51100000I0J-200000D01*
G01*
G37*
G36*
G01*
X62350000Y-51100000D02*
X62350000Y-51650000D01*
G75*
G02*
X62150000Y-51850000I-200000J0D01*
G01*
X61750000Y-51850000D01*
G75*
G02*
X61550000Y-51650000I0J200000D01*
G01*
X61550000Y-51100000D01*
G75*
G02*
X61750000Y-50900000I200000J0D01*
G01*
X62150000Y-50900000D01*
G75*
G02*
X62350000Y-51100000I0J-200000D01*
G01*
G37*
%TD*%
%TO.C,R6*%
G36*
G01*
X44335000Y-34530000D02*
X43965000Y-34530000D01*
G75*
G02*
X43830000Y-34395000I0J135000D01*
G01*
X43830000Y-34125000D01*
G75*
G02*
X43965000Y-33990000I135000J0D01*
G01*
X44335000Y-33990000D01*
G75*
G02*
X44470000Y-34125000I0J-135000D01*
G01*
X44470000Y-34395000D01*
G75*
G02*
X44335000Y-34530000I-135000J0D01*
G01*
G37*
G36*
G01*
X44335000Y-35550000D02*
X43965000Y-35550000D01*
G75*
G02*
X43830000Y-35415000I0J135000D01*
G01*
X43830000Y-35145000D01*
G75*
G02*
X43965000Y-35010000I135000J0D01*
G01*
X44335000Y-35010000D01*
G75*
G02*
X44470000Y-35145000I0J-135000D01*
G01*
X44470000Y-35415000D01*
G75*
G02*
X44335000Y-35550000I-135000J0D01*
G01*
G37*
%TD*%
%TO.C,R7*%
G36*
G01*
X38060000Y-41790000D02*
X38060000Y-42160000D01*
G75*
G02*
X37925000Y-42295000I-135000J0D01*
G01*
X37655000Y-42295000D01*
G75*
G02*
X37520000Y-42160000I0J135000D01*
G01*
X37520000Y-41790000D01*
G75*
G02*
X37655000Y-41655000I135000J0D01*
G01*
X37925000Y-41655000D01*
G75*
G02*
X38060000Y-41790000I0J-135000D01*
G01*
G37*
G36*
G01*
X39080000Y-41790000D02*
X39080000Y-42160000D01*
G75*
G02*
X38945000Y-42295000I-135000J0D01*
G01*
X38675000Y-42295000D01*
G75*
G02*
X38540000Y-42160000I0J135000D01*
G01*
X38540000Y-41790000D01*
G75*
G02*
X38675000Y-41655000I135000J0D01*
G01*
X38945000Y-41655000D01*
G75*
G02*
X39080000Y-41790000I0J-135000D01*
G01*
G37*
%TD*%
%TO.C,R8*%
G36*
G01*
X54000000Y-48425000D02*
X54000000Y-48975000D01*
G75*
G02*
X53800000Y-49175000I-200000J0D01*
G01*
X53400000Y-49175000D01*
G75*
G02*
X53200000Y-48975000I0J200000D01*
G01*
X53200000Y-48425000D01*
G75*
G02*
X53400000Y-48225000I200000J0D01*
G01*
X53800000Y-48225000D01*
G75*
G02*
X54000000Y-48425000I0J-200000D01*
G01*
G37*
G36*
G01*
X55650000Y-48425000D02*
X55650000Y-48975000D01*
G75*
G02*
X55450000Y-49175000I-200000J0D01*
G01*
X55050000Y-49175000D01*
G75*
G02*
X54850000Y-48975000I0J200000D01*
G01*
X54850000Y-48425000D01*
G75*
G02*
X55050000Y-48225000I200000J0D01*
G01*
X55450000Y-48225000D01*
G75*
G02*
X55650000Y-48425000I0J-200000D01*
G01*
G37*
%TD*%
%TO.C,R9*%
G36*
G01*
X47560000Y-33905000D02*
X47560000Y-34275000D01*
G75*
G02*
X47425000Y-34410000I-135000J0D01*
G01*
X47155000Y-34410000D01*
G75*
G02*
X47020000Y-34275000I0J135000D01*
G01*
X47020000Y-33905000D01*
G75*
G02*
X47155000Y-33770000I135000J0D01*
G01*
X47425000Y-33770000D01*
G75*
G02*
X47560000Y-33905000I0J-135000D01*
G01*
G37*
G36*
G01*
X48580000Y-33905000D02*
X48580000Y-34275000D01*
G75*
G02*
X48445000Y-34410000I-135000J0D01*
G01*
X48175000Y-34410000D01*
G75*
G02*
X48040000Y-34275000I0J135000D01*
G01*
X48040000Y-33905000D01*
G75*
G02*
X48175000Y-33770000I135000J0D01*
G01*
X48445000Y-33770000D01*
G75*
G02*
X48580000Y-33905000I0J-135000D01*
G01*
G37*
%TD*%
%TO.C,R10*%
G36*
G01*
X46060000Y-34265000D02*
X46060000Y-33895000D01*
G75*
G02*
X46195000Y-33760000I135000J0D01*
G01*
X46465000Y-33760000D01*
G75*
G02*
X46600000Y-33895000I0J-135000D01*
G01*
X46600000Y-34265000D01*
G75*
G02*
X46465000Y-34400000I-135000J0D01*
G01*
X46195000Y-34400000D01*
G75*
G02*
X46060000Y-34265000I0J135000D01*
G01*
G37*
G36*
G01*
X45040000Y-34265000D02*
X45040000Y-33895000D01*
G75*
G02*
X45175000Y-33760000I135000J0D01*
G01*
X45445000Y-33760000D01*
G75*
G02*
X45580000Y-33895000I0J-135000D01*
G01*
X45580000Y-34265000D01*
G75*
G02*
X45445000Y-34400000I-135000J0D01*
G01*
X45175000Y-34400000D01*
G75*
G02*
X45040000Y-34265000I0J135000D01*
G01*
G37*
%TD*%
%TO.C,R11*%
G36*
G01*
X68635000Y-50135000D02*
X68635000Y-49585000D01*
G75*
G02*
X68835000Y-49385000I200000J0D01*
G01*
X69235000Y-49385000D01*
G75*
G02*
X69435000Y-49585000I0J-200000D01*
G01*
X69435000Y-50135000D01*
G75*
G02*
X69235000Y-50335000I-200000J0D01*
G01*
X68835000Y-50335000D01*
G75*
G02*
X68635000Y-50135000I0J200000D01*
G01*
G37*
G36*
G01*
X66985000Y-50135000D02*
X66985000Y-49585000D01*
G75*
G02*
X67185000Y-49385000I200000J0D01*
G01*
X67585000Y-49385000D01*
G75*
G02*
X67785000Y-49585000I0J-200000D01*
G01*
X67785000Y-50135000D01*
G75*
G02*
X67585000Y-50335000I-200000J0D01*
G01*
X67185000Y-50335000D01*
G75*
G02*
X66985000Y-50135000I0J200000D01*
G01*
G37*
%TD*%
D17*
%TO.C,SW1*%
X50250000Y-23610000D03*
X42950000Y-23610000D03*
X42950000Y-21400000D03*
X50250000Y-21400000D03*
D18*
X44350000Y-24260000D03*
X45850000Y-24260000D03*
X48850000Y-24260000D03*
%TD*%
D19*
%TO.C,Y1*%
X36400000Y-39890000D03*
X36400000Y-42090000D03*
X34700000Y-42090000D03*
X34700000Y-39890000D03*
%TD*%
M02*
