%TF.GenerationSoftware,KiCad,Pcbnew,(5.1.10-1-10_14)*%
%TF.CreationDate,2022-04-25T19:01:15+02:00*%
%TF.ProjectId,STM32_USB_BuckConvertor,53544d33-325f-4555-9342-5f4275636b43,rev?*%
%TF.SameCoordinates,Original*%
%TF.FileFunction,Copper,L3,Inr*%
%TF.FilePolarity,Positive*%
%FSLAX46Y46*%
G04 Gerber Fmt 4.6, Leading zero omitted, Abs format (unit mm)*
G04 Created by KiCad (PCBNEW (5.1.10-1-10_14)) date 2022-04-25 19:01:15*
%MOMM*%
%LPD*%
G01*
G04 APERTURE LIST*
%TA.AperFunction,ComponentPad*%
%ADD10C,0.900000*%
%TD*%
%TA.AperFunction,ComponentPad*%
%ADD11C,8.600000*%
%TD*%
%TA.AperFunction,ComponentPad*%
%ADD12C,2.400000*%
%TD*%
%TA.AperFunction,ComponentPad*%
%ADD13R,2.400000X2.400000*%
%TD*%
%TA.AperFunction,ComponentPad*%
%ADD14O,0.800000X1.300000*%
%TD*%
%TA.AperFunction,ComponentPad*%
%ADD15O,1.100000X2.200000*%
%TD*%
%TA.AperFunction,ComponentPad*%
%ADD16O,1.100000X1.800000*%
%TD*%
%TA.AperFunction,ViaPad*%
%ADD17C,0.800000*%
%TD*%
%TA.AperFunction,Conductor*%
%ADD18C,0.254000*%
%TD*%
%TA.AperFunction,Conductor*%
%ADD19C,0.100000*%
%TD*%
G04 APERTURE END LIST*
D10*
%TO.N,GND*%
%TO.C,H1*%
X77080419Y-62519581D03*
X74800000Y-61575000D03*
X72519581Y-62519581D03*
X71575000Y-64800000D03*
X72519581Y-67080419D03*
X74800000Y-68025000D03*
X77080419Y-67080419D03*
X78025000Y-64800000D03*
D11*
X74800000Y-64800000D03*
%TD*%
D10*
%TO.N,GND*%
%TO.C,H2*%
X37280419Y-62719581D03*
X35000000Y-61775000D03*
X32719581Y-62719581D03*
X31775000Y-65000000D03*
X32719581Y-67280419D03*
X35000000Y-68225000D03*
X37280419Y-67280419D03*
X38225000Y-65000000D03*
D11*
X35000000Y-65000000D03*
%TD*%
D10*
%TO.N,GND*%
%TO.C,H3*%
X77080419Y-22919581D03*
X74800000Y-21975000D03*
X72519581Y-22919581D03*
X71575000Y-25200000D03*
X72519581Y-27480419D03*
X74800000Y-28425000D03*
X77080419Y-27480419D03*
X78025000Y-25200000D03*
D11*
X74800000Y-25200000D03*
%TD*%
D10*
%TO.N,GND*%
%TO.C,H4*%
X37280419Y-22719581D03*
X35000000Y-21775000D03*
X32719581Y-22719581D03*
X31775000Y-25000000D03*
X32719581Y-27280419D03*
X35000000Y-28225000D03*
X37280419Y-27280419D03*
X38225000Y-25000000D03*
D11*
X35000000Y-25000000D03*
%TD*%
D12*
%TO.N,GND*%
%TO.C,J1*%
X58750000Y-64950000D03*
D13*
%TO.N,+12V*%
X55250000Y-64950000D03*
%TD*%
D14*
%TO.N,GND*%
%TO.C,J2*%
X53850000Y-25190000D03*
%TO.N,I2C_SDA*%
X55100000Y-25190000D03*
%TO.N,I2C_SCL*%
X56350000Y-25190000D03*
%TO.N,+3V3*%
%TA.AperFunction,ComponentPad*%
G36*
G01*
X58000000Y-24740000D02*
X58000000Y-25640000D01*
G75*
G02*
X57800000Y-25840000I-200000J0D01*
G01*
X57400000Y-25840000D01*
G75*
G02*
X57200000Y-25640000I0J200000D01*
G01*
X57200000Y-24740000D01*
G75*
G02*
X57400000Y-24540000I200000J0D01*
G01*
X57800000Y-24540000D01*
G75*
G02*
X58000000Y-24740000I0J-200000D01*
G01*
G37*
%TD.AperFunction*%
%TD*%
%TO.N,GND*%
%TO.C,J3*%
X46125000Y-64625000D03*
%TO.N,USART3_RX*%
X44875000Y-64625000D03*
%TO.N,USART3_TX*%
X43625000Y-64625000D03*
%TO.N,+3V3*%
%TA.AperFunction,ComponentPad*%
G36*
G01*
X41975000Y-65075000D02*
X41975000Y-64175000D01*
G75*
G02*
X42175000Y-63975000I200000J0D01*
G01*
X42575000Y-63975000D01*
G75*
G02*
X42775000Y-64175000I0J-200000D01*
G01*
X42775000Y-65075000D01*
G75*
G02*
X42575000Y-65275000I-200000J0D01*
G01*
X42175000Y-65275000D01*
G75*
G02*
X41975000Y-65075000I0J200000D01*
G01*
G37*
%TD.AperFunction*%
%TD*%
D15*
%TO.N,Net-(J5-Pad6)*%
%TO.C,J5*%
X78175000Y-44030000D03*
D16*
X76025000Y-41230000D03*
X76025000Y-46830000D03*
%TD*%
D17*
%TO.N,GND*%
X74300000Y-42725000D03*
X53640000Y-49600000D03*
X52000000Y-49450000D03*
X50550000Y-51750000D03*
X42625000Y-51225000D03*
X37050000Y-45810000D03*
X37720000Y-45070000D03*
X37980000Y-43850000D03*
X37340000Y-37230000D03*
X38520000Y-35930000D03*
X43130000Y-34530000D03*
X52840000Y-36575000D03*
X55070000Y-36420000D03*
X72360000Y-31640000D03*
X72350000Y-34160000D03*
X72360000Y-35440000D03*
X71300000Y-57350000D03*
X65600000Y-53250000D03*
X66170000Y-52290000D03*
X70250000Y-49200000D03*
X61270000Y-54340000D03*
X59310000Y-55500000D03*
X52900000Y-59550000D03*
X46950000Y-63670000D03*
X53850000Y-24030000D03*
X44370000Y-25450000D03*
X34975000Y-44400000D03*
X34225000Y-43800000D03*
X37400000Y-39900000D03*
X36050000Y-37500000D03*
X36725000Y-38100000D03*
X71250000Y-56475000D03*
X66125000Y-51350000D03*
X68150000Y-53275000D03*
X71850000Y-41800000D03*
X71450000Y-44350000D03*
X63950000Y-54675000D03*
X62000000Y-50150000D03*
X59175000Y-62550000D03*
X60425000Y-63200000D03*
%TO.N,+3V3*%
X40210000Y-35380000D03*
X42130000Y-34540000D03*
X63425000Y-50175000D03*
X57600000Y-23825000D03*
X48930000Y-25460000D03*
X71310000Y-50590000D03*
X71440000Y-53970000D03*
X77070000Y-52850000D03*
X76400000Y-51630000D03*
X74290000Y-54620000D03*
X75930000Y-54730000D03*
X65350000Y-49450000D03*
X51860000Y-37060000D03*
X37710000Y-47650000D03*
X37000000Y-47020000D03*
X43620000Y-50750000D03*
X51800000Y-48460000D03*
X72360000Y-36750000D03*
X71400000Y-54830000D03*
X70430000Y-50570000D03*
X75390000Y-51630000D03*
X41060000Y-36830000D03*
X45310000Y-33330000D03*
X49020000Y-34110000D03*
X42350000Y-63350000D03*
%TO.N,+5V*%
X67960000Y-45322712D03*
X69554081Y-44365919D03*
X70595656Y-46235002D03*
X70450611Y-44384998D03*
%TO.N,SWO*%
X72691929Y-38599990D03*
X75900000Y-34610000D03*
%TO.N,NRST*%
X49680000Y-41930000D03*
X59460000Y-37530000D03*
%TD*%
D18*
%TO.N,+3V3*%
X72462401Y-20826660D02*
X71654121Y-21366735D01*
X70966735Y-22054121D01*
X70426660Y-22862401D01*
X70054650Y-23760514D01*
X69865000Y-24713945D01*
X69865000Y-25686055D01*
X70054650Y-26639486D01*
X70426660Y-27537599D01*
X70966735Y-28345879D01*
X71654121Y-29033265D01*
X72462401Y-29573340D01*
X73360514Y-29945350D01*
X74313945Y-30135000D01*
X75286055Y-30135000D01*
X76239486Y-29945350D01*
X77137599Y-29573340D01*
X77945879Y-29033265D01*
X78633265Y-28345879D01*
X79173340Y-27537599D01*
X79340000Y-27135245D01*
X79340000Y-43238296D01*
X79275094Y-43024326D01*
X79165058Y-42818464D01*
X79016975Y-42638025D01*
X78836535Y-42489942D01*
X78630673Y-42379906D01*
X78407299Y-42312147D01*
X78175000Y-42289267D01*
X77942700Y-42312147D01*
X77719326Y-42379906D01*
X77513464Y-42489942D01*
X77333025Y-42638025D01*
X77184942Y-42818465D01*
X77074906Y-43024327D01*
X77007147Y-43247701D01*
X76990000Y-43421794D01*
X76990000Y-44638207D01*
X77007147Y-44812300D01*
X77074906Y-45035674D01*
X77184943Y-45241536D01*
X77333026Y-45421975D01*
X77513465Y-45570058D01*
X77719327Y-45680094D01*
X77942701Y-45747853D01*
X78175000Y-45770733D01*
X78407300Y-45747853D01*
X78630674Y-45680094D01*
X78836536Y-45570058D01*
X79016975Y-45421975D01*
X79165058Y-45241536D01*
X79275094Y-45035674D01*
X79340000Y-44821704D01*
X79340001Y-62864757D01*
X79173340Y-62462401D01*
X78633265Y-61654121D01*
X77945879Y-60966735D01*
X77137599Y-60426660D01*
X76239486Y-60054650D01*
X75286055Y-59865000D01*
X74313945Y-59865000D01*
X73360514Y-60054650D01*
X72462401Y-60426660D01*
X71654121Y-60966735D01*
X70966735Y-61654121D01*
X70426660Y-62462401D01*
X70054650Y-63360514D01*
X69865000Y-64313945D01*
X69865000Y-65286055D01*
X70054650Y-66239486D01*
X70426660Y-67137599D01*
X70966735Y-67945879D01*
X71654121Y-68633265D01*
X72462401Y-69173340D01*
X72864754Y-69340000D01*
X37387496Y-69340000D01*
X38145879Y-68833265D01*
X38833265Y-68145879D01*
X39373340Y-67337599D01*
X39745350Y-66439486D01*
X39935000Y-65486055D01*
X39935000Y-65275000D01*
X41336928Y-65275000D01*
X41349188Y-65399482D01*
X41385498Y-65519180D01*
X41444463Y-65629494D01*
X41523815Y-65726185D01*
X41620506Y-65805537D01*
X41730820Y-65864502D01*
X41850518Y-65900812D01*
X41975000Y-65913072D01*
X42089250Y-65910000D01*
X42248000Y-65751250D01*
X42248000Y-64752000D01*
X41498750Y-64752000D01*
X41340000Y-64910750D01*
X41336928Y-65275000D01*
X39935000Y-65275000D01*
X39935000Y-64513945D01*
X39827797Y-63975000D01*
X41336928Y-63975000D01*
X41340000Y-64339250D01*
X41498750Y-64498000D01*
X42248000Y-64498000D01*
X42248000Y-63498750D01*
X42502000Y-63498750D01*
X42502000Y-64498000D01*
X42522000Y-64498000D01*
X42522000Y-64752000D01*
X42502000Y-64752000D01*
X42502000Y-65751250D01*
X42660750Y-65910000D01*
X42775000Y-65913072D01*
X42899482Y-65900812D01*
X43019180Y-65864502D01*
X43129494Y-65805537D01*
X43145594Y-65792324D01*
X43227008Y-65835841D01*
X43422106Y-65895024D01*
X43625000Y-65915007D01*
X43827895Y-65895024D01*
X44022993Y-65835841D01*
X44202797Y-65739734D01*
X44250001Y-65700995D01*
X44297204Y-65739734D01*
X44477008Y-65835841D01*
X44672106Y-65895024D01*
X44875000Y-65915007D01*
X45077895Y-65895024D01*
X45272993Y-65835841D01*
X45452797Y-65739734D01*
X45500001Y-65700995D01*
X45547204Y-65739734D01*
X45727008Y-65835841D01*
X45922106Y-65895024D01*
X46125000Y-65915007D01*
X46327895Y-65895024D01*
X46522993Y-65835841D01*
X46702797Y-65739734D01*
X46860396Y-65610396D01*
X46989734Y-65452797D01*
X47085841Y-65272992D01*
X47145024Y-65077894D01*
X47160000Y-64925837D01*
X47160000Y-64683506D01*
X47251898Y-64665226D01*
X47440256Y-64587205D01*
X47609774Y-64473937D01*
X47753937Y-64329774D01*
X47867205Y-64160256D01*
X47945226Y-63971898D01*
X47985000Y-63771939D01*
X47985000Y-63750000D01*
X53411928Y-63750000D01*
X53411928Y-66150000D01*
X53424188Y-66274482D01*
X53460498Y-66394180D01*
X53519463Y-66504494D01*
X53598815Y-66601185D01*
X53695506Y-66680537D01*
X53805820Y-66739502D01*
X53925518Y-66775812D01*
X54050000Y-66788072D01*
X56450000Y-66788072D01*
X56574482Y-66775812D01*
X56694180Y-66739502D01*
X56804494Y-66680537D01*
X56901185Y-66601185D01*
X56980537Y-66504494D01*
X57039502Y-66394180D01*
X57075812Y-66274482D01*
X57088072Y-66150000D01*
X57088072Y-65732838D01*
X57123844Y-65819199D01*
X57324662Y-66119744D01*
X57580256Y-66375338D01*
X57880801Y-66576156D01*
X58214750Y-66714482D01*
X58569268Y-66785000D01*
X58930732Y-66785000D01*
X59285250Y-66714482D01*
X59619199Y-66576156D01*
X59919744Y-66375338D01*
X60175338Y-66119744D01*
X60376156Y-65819199D01*
X60514482Y-65485250D01*
X60585000Y-65130732D01*
X60585000Y-64769268D01*
X60514482Y-64414750D01*
X60440027Y-64235000D01*
X60526939Y-64235000D01*
X60726898Y-64195226D01*
X60915256Y-64117205D01*
X61084774Y-64003937D01*
X61228937Y-63859774D01*
X61342205Y-63690256D01*
X61420226Y-63501898D01*
X61460000Y-63301939D01*
X61460000Y-63098061D01*
X61420226Y-62898102D01*
X61342205Y-62709744D01*
X61228937Y-62540226D01*
X61084774Y-62396063D01*
X60915256Y-62282795D01*
X60726898Y-62204774D01*
X60526939Y-62165000D01*
X60323061Y-62165000D01*
X60150058Y-62199412D01*
X60092205Y-62059744D01*
X59978937Y-61890226D01*
X59834774Y-61746063D01*
X59665256Y-61632795D01*
X59476898Y-61554774D01*
X59276939Y-61515000D01*
X59073061Y-61515000D01*
X58873102Y-61554774D01*
X58684744Y-61632795D01*
X58515226Y-61746063D01*
X58371063Y-61890226D01*
X58257795Y-62059744D01*
X58179774Y-62248102D01*
X58140000Y-62448061D01*
X58140000Y-62651939D01*
X58179774Y-62851898D01*
X58257795Y-63040256D01*
X58338419Y-63160919D01*
X58214750Y-63185518D01*
X57880801Y-63323844D01*
X57580256Y-63524662D01*
X57324662Y-63780256D01*
X57123844Y-64080801D01*
X57088072Y-64167162D01*
X57088072Y-63750000D01*
X57075812Y-63625518D01*
X57039502Y-63505820D01*
X56980537Y-63395506D01*
X56901185Y-63298815D01*
X56804494Y-63219463D01*
X56694180Y-63160498D01*
X56574482Y-63124188D01*
X56450000Y-63111928D01*
X54050000Y-63111928D01*
X53925518Y-63124188D01*
X53805820Y-63160498D01*
X53695506Y-63219463D01*
X53598815Y-63298815D01*
X53519463Y-63395506D01*
X53460498Y-63505820D01*
X53424188Y-63625518D01*
X53411928Y-63750000D01*
X47985000Y-63750000D01*
X47985000Y-63568061D01*
X47945226Y-63368102D01*
X47867205Y-63179744D01*
X47753937Y-63010226D01*
X47609774Y-62866063D01*
X47440256Y-62752795D01*
X47251898Y-62674774D01*
X47051939Y-62635000D01*
X46848061Y-62635000D01*
X46648102Y-62674774D01*
X46459744Y-62752795D01*
X46290226Y-62866063D01*
X46146063Y-63010226D01*
X46032795Y-63179744D01*
X45961832Y-63351063D01*
X45922105Y-63354976D01*
X45727007Y-63414159D01*
X45547203Y-63510266D01*
X45500000Y-63549004D01*
X45452797Y-63510266D01*
X45272992Y-63414159D01*
X45077894Y-63354976D01*
X44875000Y-63334993D01*
X44672105Y-63354976D01*
X44477007Y-63414159D01*
X44297203Y-63510266D01*
X44250000Y-63549004D01*
X44202797Y-63510266D01*
X44022992Y-63414159D01*
X43827894Y-63354976D01*
X43625000Y-63334993D01*
X43422105Y-63354976D01*
X43227007Y-63414159D01*
X43145593Y-63457675D01*
X43129494Y-63444463D01*
X43019180Y-63385498D01*
X42899482Y-63349188D01*
X42775000Y-63336928D01*
X42660750Y-63340000D01*
X42502000Y-63498750D01*
X42248000Y-63498750D01*
X42089250Y-63340000D01*
X41975000Y-63336928D01*
X41850518Y-63349188D01*
X41730820Y-63385498D01*
X41620506Y-63444463D01*
X41523815Y-63523815D01*
X41444463Y-63620506D01*
X41385498Y-63730820D01*
X41349188Y-63850518D01*
X41336928Y-63975000D01*
X39827797Y-63975000D01*
X39745350Y-63560514D01*
X39373340Y-62662401D01*
X38833265Y-61854121D01*
X38145879Y-61166735D01*
X37337599Y-60626660D01*
X36439486Y-60254650D01*
X35486055Y-60065000D01*
X34513945Y-60065000D01*
X33560514Y-60254650D01*
X32662401Y-60626660D01*
X31854121Y-61166735D01*
X31166735Y-61854121D01*
X30660000Y-62612504D01*
X30660000Y-59448061D01*
X51865000Y-59448061D01*
X51865000Y-59651939D01*
X51904774Y-59851898D01*
X51982795Y-60040256D01*
X52096063Y-60209774D01*
X52240226Y-60353937D01*
X52409744Y-60467205D01*
X52598102Y-60545226D01*
X52798061Y-60585000D01*
X53001939Y-60585000D01*
X53201898Y-60545226D01*
X53390256Y-60467205D01*
X53559774Y-60353937D01*
X53703937Y-60209774D01*
X53817205Y-60040256D01*
X53895226Y-59851898D01*
X53935000Y-59651939D01*
X53935000Y-59448061D01*
X53895226Y-59248102D01*
X53817205Y-59059744D01*
X53703937Y-58890226D01*
X53559774Y-58746063D01*
X53390256Y-58632795D01*
X53201898Y-58554774D01*
X53001939Y-58515000D01*
X52798061Y-58515000D01*
X52598102Y-58554774D01*
X52409744Y-58632795D01*
X52240226Y-58746063D01*
X52096063Y-58890226D01*
X51982795Y-59059744D01*
X51904774Y-59248102D01*
X51865000Y-59448061D01*
X30660000Y-59448061D01*
X30660000Y-55398061D01*
X58275000Y-55398061D01*
X58275000Y-55601939D01*
X58314774Y-55801898D01*
X58392795Y-55990256D01*
X58506063Y-56159774D01*
X58650226Y-56303937D01*
X58819744Y-56417205D01*
X59008102Y-56495226D01*
X59208061Y-56535000D01*
X59411939Y-56535000D01*
X59611898Y-56495226D01*
X59800256Y-56417205D01*
X59866322Y-56373061D01*
X70215000Y-56373061D01*
X70215000Y-56576939D01*
X70254774Y-56776898D01*
X70332795Y-56965256D01*
X70336681Y-56971072D01*
X70304774Y-57048102D01*
X70265000Y-57248061D01*
X70265000Y-57451939D01*
X70304774Y-57651898D01*
X70382795Y-57840256D01*
X70496063Y-58009774D01*
X70640226Y-58153937D01*
X70809744Y-58267205D01*
X70998102Y-58345226D01*
X71198061Y-58385000D01*
X71401939Y-58385000D01*
X71601898Y-58345226D01*
X71790256Y-58267205D01*
X71959774Y-58153937D01*
X72103937Y-58009774D01*
X72217205Y-57840256D01*
X72295226Y-57651898D01*
X72335000Y-57451939D01*
X72335000Y-57248061D01*
X72295226Y-57048102D01*
X72217205Y-56859744D01*
X72213319Y-56853928D01*
X72245226Y-56776898D01*
X72285000Y-56576939D01*
X72285000Y-56373061D01*
X72245226Y-56173102D01*
X72167205Y-55984744D01*
X72053937Y-55815226D01*
X71909774Y-55671063D01*
X71740256Y-55557795D01*
X71551898Y-55479774D01*
X71351939Y-55440000D01*
X71148061Y-55440000D01*
X70948102Y-55479774D01*
X70759744Y-55557795D01*
X70590226Y-55671063D01*
X70446063Y-55815226D01*
X70332795Y-55984744D01*
X70254774Y-56173102D01*
X70215000Y-56373061D01*
X59866322Y-56373061D01*
X59969774Y-56303937D01*
X60113937Y-56159774D01*
X60227205Y-55990256D01*
X60305226Y-55801898D01*
X60345000Y-55601939D01*
X60345000Y-55398061D01*
X60305226Y-55198102D01*
X60227205Y-55009744D01*
X60113937Y-54840226D01*
X59969774Y-54696063D01*
X59800256Y-54582795D01*
X59611898Y-54504774D01*
X59411939Y-54465000D01*
X59208061Y-54465000D01*
X59008102Y-54504774D01*
X58819744Y-54582795D01*
X58650226Y-54696063D01*
X58506063Y-54840226D01*
X58392795Y-55009744D01*
X58314774Y-55198102D01*
X58275000Y-55398061D01*
X30660000Y-55398061D01*
X30660000Y-54238061D01*
X60235000Y-54238061D01*
X60235000Y-54441939D01*
X60274774Y-54641898D01*
X60352795Y-54830256D01*
X60466063Y-54999774D01*
X60610226Y-55143937D01*
X60779744Y-55257205D01*
X60968102Y-55335226D01*
X61168061Y-55375000D01*
X61371939Y-55375000D01*
X61571898Y-55335226D01*
X61760256Y-55257205D01*
X61929774Y-55143937D01*
X62073937Y-54999774D01*
X62187205Y-54830256D01*
X62265226Y-54641898D01*
X62278918Y-54573061D01*
X62915000Y-54573061D01*
X62915000Y-54776939D01*
X62954774Y-54976898D01*
X63032795Y-55165256D01*
X63146063Y-55334774D01*
X63290226Y-55478937D01*
X63459744Y-55592205D01*
X63648102Y-55670226D01*
X63848061Y-55710000D01*
X64051939Y-55710000D01*
X64251898Y-55670226D01*
X64440256Y-55592205D01*
X64609774Y-55478937D01*
X64753937Y-55334774D01*
X64867205Y-55165256D01*
X64945226Y-54976898D01*
X64985000Y-54776939D01*
X64985000Y-54573061D01*
X64945226Y-54373102D01*
X64867205Y-54184744D01*
X64753937Y-54015226D01*
X64609774Y-53871063D01*
X64440256Y-53757795D01*
X64251898Y-53679774D01*
X64051939Y-53640000D01*
X63848061Y-53640000D01*
X63648102Y-53679774D01*
X63459744Y-53757795D01*
X63290226Y-53871063D01*
X63146063Y-54015226D01*
X63032795Y-54184744D01*
X62954774Y-54373102D01*
X62915000Y-54573061D01*
X62278918Y-54573061D01*
X62305000Y-54441939D01*
X62305000Y-54238061D01*
X62265226Y-54038102D01*
X62187205Y-53849744D01*
X62073937Y-53680226D01*
X61929774Y-53536063D01*
X61760256Y-53422795D01*
X61571898Y-53344774D01*
X61371939Y-53305000D01*
X61168061Y-53305000D01*
X60968102Y-53344774D01*
X60779744Y-53422795D01*
X60610226Y-53536063D01*
X60466063Y-53680226D01*
X60352795Y-53849744D01*
X60274774Y-54038102D01*
X60235000Y-54238061D01*
X30660000Y-54238061D01*
X30660000Y-53148061D01*
X64565000Y-53148061D01*
X64565000Y-53351939D01*
X64604774Y-53551898D01*
X64682795Y-53740256D01*
X64796063Y-53909774D01*
X64940226Y-54053937D01*
X65109744Y-54167205D01*
X65298102Y-54245226D01*
X65498061Y-54285000D01*
X65701939Y-54285000D01*
X65901898Y-54245226D01*
X66090256Y-54167205D01*
X66259774Y-54053937D01*
X66403937Y-53909774D01*
X66517205Y-53740256D01*
X66595226Y-53551898D01*
X66635000Y-53351939D01*
X66635000Y-53217666D01*
X66660256Y-53207205D01*
X66711356Y-53173061D01*
X67115000Y-53173061D01*
X67115000Y-53376939D01*
X67154774Y-53576898D01*
X67232795Y-53765256D01*
X67346063Y-53934774D01*
X67490226Y-54078937D01*
X67659744Y-54192205D01*
X67848102Y-54270226D01*
X68048061Y-54310000D01*
X68251939Y-54310000D01*
X68451898Y-54270226D01*
X68640256Y-54192205D01*
X68809774Y-54078937D01*
X68953937Y-53934774D01*
X69067205Y-53765256D01*
X69145226Y-53576898D01*
X69185000Y-53376939D01*
X69185000Y-53173061D01*
X69145226Y-52973102D01*
X69067205Y-52784744D01*
X68953937Y-52615226D01*
X68809774Y-52471063D01*
X68640256Y-52357795D01*
X68451898Y-52279774D01*
X68251939Y-52240000D01*
X68048061Y-52240000D01*
X67848102Y-52279774D01*
X67659744Y-52357795D01*
X67490226Y-52471063D01*
X67346063Y-52615226D01*
X67232795Y-52784744D01*
X67154774Y-52973102D01*
X67115000Y-53173061D01*
X66711356Y-53173061D01*
X66829774Y-53093937D01*
X66973937Y-52949774D01*
X67087205Y-52780256D01*
X67165226Y-52591898D01*
X67205000Y-52391939D01*
X67205000Y-52188061D01*
X67165226Y-51988102D01*
X67087205Y-51799744D01*
X67069785Y-51773673D01*
X67120226Y-51651898D01*
X67160000Y-51451939D01*
X67160000Y-51248061D01*
X67120226Y-51048102D01*
X67042205Y-50859744D01*
X66928937Y-50690226D01*
X66784774Y-50546063D01*
X66615256Y-50432795D01*
X66426898Y-50354774D01*
X66226939Y-50315000D01*
X66023061Y-50315000D01*
X65823102Y-50354774D01*
X65634744Y-50432795D01*
X65465226Y-50546063D01*
X65321063Y-50690226D01*
X65207795Y-50859744D01*
X65129774Y-51048102D01*
X65090000Y-51248061D01*
X65090000Y-51451939D01*
X65129774Y-51651898D01*
X65207795Y-51840256D01*
X65225215Y-51866327D01*
X65174774Y-51988102D01*
X65135000Y-52188061D01*
X65135000Y-52322334D01*
X65109744Y-52332795D01*
X64940226Y-52446063D01*
X64796063Y-52590226D01*
X64682795Y-52759744D01*
X64604774Y-52948102D01*
X64565000Y-53148061D01*
X30660000Y-53148061D01*
X30660000Y-51123061D01*
X41590000Y-51123061D01*
X41590000Y-51326939D01*
X41629774Y-51526898D01*
X41707795Y-51715256D01*
X41821063Y-51884774D01*
X41965226Y-52028937D01*
X42134744Y-52142205D01*
X42323102Y-52220226D01*
X42523061Y-52260000D01*
X42726939Y-52260000D01*
X42926898Y-52220226D01*
X43115256Y-52142205D01*
X43284774Y-52028937D01*
X43428937Y-51884774D01*
X43542205Y-51715256D01*
X43570038Y-51648061D01*
X49515000Y-51648061D01*
X49515000Y-51851939D01*
X49554774Y-52051898D01*
X49632795Y-52240256D01*
X49746063Y-52409774D01*
X49890226Y-52553937D01*
X50059744Y-52667205D01*
X50248102Y-52745226D01*
X50448061Y-52785000D01*
X50651939Y-52785000D01*
X50851898Y-52745226D01*
X51040256Y-52667205D01*
X51209774Y-52553937D01*
X51353937Y-52409774D01*
X51467205Y-52240256D01*
X51545226Y-52051898D01*
X51585000Y-51851939D01*
X51585000Y-51648061D01*
X51545226Y-51448102D01*
X51467205Y-51259744D01*
X51353937Y-51090226D01*
X51209774Y-50946063D01*
X51040256Y-50832795D01*
X50851898Y-50754774D01*
X50651939Y-50715000D01*
X50448061Y-50715000D01*
X50248102Y-50754774D01*
X50059744Y-50832795D01*
X49890226Y-50946063D01*
X49746063Y-51090226D01*
X49632795Y-51259744D01*
X49554774Y-51448102D01*
X49515000Y-51648061D01*
X43570038Y-51648061D01*
X43620226Y-51526898D01*
X43660000Y-51326939D01*
X43660000Y-51123061D01*
X43620226Y-50923102D01*
X43542205Y-50734744D01*
X43428937Y-50565226D01*
X43284774Y-50421063D01*
X43115256Y-50307795D01*
X42926898Y-50229774D01*
X42726939Y-50190000D01*
X42523061Y-50190000D01*
X42323102Y-50229774D01*
X42134744Y-50307795D01*
X41965226Y-50421063D01*
X41821063Y-50565226D01*
X41707795Y-50734744D01*
X41629774Y-50923102D01*
X41590000Y-51123061D01*
X30660000Y-51123061D01*
X30660000Y-49348061D01*
X50965000Y-49348061D01*
X50965000Y-49551939D01*
X51004774Y-49751898D01*
X51082795Y-49940256D01*
X51196063Y-50109774D01*
X51340226Y-50253937D01*
X51509744Y-50367205D01*
X51698102Y-50445226D01*
X51898061Y-50485000D01*
X52101939Y-50485000D01*
X52301898Y-50445226D01*
X52490256Y-50367205D01*
X52659774Y-50253937D01*
X52763114Y-50150597D01*
X52836063Y-50259774D01*
X52980226Y-50403937D01*
X53149744Y-50517205D01*
X53338102Y-50595226D01*
X53538061Y-50635000D01*
X53741939Y-50635000D01*
X53941898Y-50595226D01*
X54130256Y-50517205D01*
X54299774Y-50403937D01*
X54443937Y-50259774D01*
X54557205Y-50090256D01*
X54574682Y-50048061D01*
X60965000Y-50048061D01*
X60965000Y-50251939D01*
X61004774Y-50451898D01*
X61082795Y-50640256D01*
X61196063Y-50809774D01*
X61340226Y-50953937D01*
X61509744Y-51067205D01*
X61698102Y-51145226D01*
X61898061Y-51185000D01*
X62101939Y-51185000D01*
X62301898Y-51145226D01*
X62490256Y-51067205D01*
X62659774Y-50953937D01*
X62803937Y-50809774D01*
X62917205Y-50640256D01*
X62995226Y-50451898D01*
X63035000Y-50251939D01*
X63035000Y-50048061D01*
X62995226Y-49848102D01*
X62917205Y-49659744D01*
X62803937Y-49490226D01*
X62659774Y-49346063D01*
X62490256Y-49232795D01*
X62301898Y-49154774D01*
X62101939Y-49115000D01*
X61898061Y-49115000D01*
X61698102Y-49154774D01*
X61509744Y-49232795D01*
X61340226Y-49346063D01*
X61196063Y-49490226D01*
X61082795Y-49659744D01*
X61004774Y-49848102D01*
X60965000Y-50048061D01*
X54574682Y-50048061D01*
X54635226Y-49901898D01*
X54675000Y-49701939D01*
X54675000Y-49498061D01*
X54635226Y-49298102D01*
X54557205Y-49109744D01*
X54549399Y-49098061D01*
X69215000Y-49098061D01*
X69215000Y-49301939D01*
X69254774Y-49501898D01*
X69332795Y-49690256D01*
X69446063Y-49859774D01*
X69590226Y-50003937D01*
X69759744Y-50117205D01*
X69948102Y-50195226D01*
X70148061Y-50235000D01*
X70351939Y-50235000D01*
X70551898Y-50195226D01*
X70740256Y-50117205D01*
X70909774Y-50003937D01*
X71053937Y-49859774D01*
X71167205Y-49690256D01*
X71245226Y-49501898D01*
X71285000Y-49301939D01*
X71285000Y-49098061D01*
X71245226Y-48898102D01*
X71167205Y-48709744D01*
X71053937Y-48540226D01*
X70909774Y-48396063D01*
X70740256Y-48282795D01*
X70551898Y-48204774D01*
X70351939Y-48165000D01*
X70148061Y-48165000D01*
X69948102Y-48204774D01*
X69759744Y-48282795D01*
X69590226Y-48396063D01*
X69446063Y-48540226D01*
X69332795Y-48709744D01*
X69254774Y-48898102D01*
X69215000Y-49098061D01*
X54549399Y-49098061D01*
X54443937Y-48940226D01*
X54299774Y-48796063D01*
X54130256Y-48682795D01*
X53941898Y-48604774D01*
X53741939Y-48565000D01*
X53538061Y-48565000D01*
X53338102Y-48604774D01*
X53149744Y-48682795D01*
X52980226Y-48796063D01*
X52876886Y-48899403D01*
X52803937Y-48790226D01*
X52659774Y-48646063D01*
X52490256Y-48532795D01*
X52301898Y-48454774D01*
X52101939Y-48415000D01*
X51898061Y-48415000D01*
X51698102Y-48454774D01*
X51509744Y-48532795D01*
X51340226Y-48646063D01*
X51196063Y-48790226D01*
X51082795Y-48959744D01*
X51004774Y-49148102D01*
X50965000Y-49348061D01*
X30660000Y-49348061D01*
X30660000Y-45708061D01*
X36015000Y-45708061D01*
X36015000Y-45911939D01*
X36054774Y-46111898D01*
X36132795Y-46300256D01*
X36246063Y-46469774D01*
X36390226Y-46613937D01*
X36559744Y-46727205D01*
X36748102Y-46805226D01*
X36948061Y-46845000D01*
X37151939Y-46845000D01*
X37351898Y-46805226D01*
X37540256Y-46727205D01*
X37709774Y-46613937D01*
X37853937Y-46469774D01*
X37967205Y-46300256D01*
X38045226Y-46111898D01*
X38057438Y-46050505D01*
X38210256Y-45987205D01*
X38379774Y-45873937D01*
X38523937Y-45729774D01*
X38637205Y-45560256D01*
X38715226Y-45371898D01*
X38745286Y-45220773D01*
X66925000Y-45220773D01*
X66925000Y-45424651D01*
X66964774Y-45624610D01*
X67042795Y-45812968D01*
X67156063Y-45982486D01*
X67300226Y-46126649D01*
X67469744Y-46239917D01*
X67658102Y-46317938D01*
X67858061Y-46357712D01*
X68061939Y-46357712D01*
X68261898Y-46317938D01*
X68450256Y-46239917D01*
X68619774Y-46126649D01*
X68763937Y-45982486D01*
X68877205Y-45812968D01*
X68955226Y-45624610D01*
X68995000Y-45424651D01*
X68995000Y-45237137D01*
X69063825Y-45283124D01*
X69252183Y-45361145D01*
X69452142Y-45400919D01*
X69656020Y-45400919D01*
X69855979Y-45361145D01*
X69979316Y-45310057D01*
X70064300Y-45345259D01*
X69935882Y-45431065D01*
X69791719Y-45575228D01*
X69678451Y-45744746D01*
X69600430Y-45933104D01*
X69560656Y-46133063D01*
X69560656Y-46336941D01*
X69600430Y-46536900D01*
X69678451Y-46725258D01*
X69791719Y-46894776D01*
X69935882Y-47038939D01*
X70105400Y-47152207D01*
X70293758Y-47230228D01*
X70493717Y-47270002D01*
X70697595Y-47270002D01*
X70897554Y-47230228D01*
X71085912Y-47152207D01*
X71255430Y-47038939D01*
X71399593Y-46894776D01*
X71512861Y-46725258D01*
X71590882Y-46536900D01*
X71613777Y-46421794D01*
X74840000Y-46421794D01*
X74840000Y-47238207D01*
X74857147Y-47412300D01*
X74924906Y-47635674D01*
X75034943Y-47841536D01*
X75183026Y-48021975D01*
X75363465Y-48170058D01*
X75569327Y-48280094D01*
X75792701Y-48347853D01*
X76025000Y-48370733D01*
X76257300Y-48347853D01*
X76480674Y-48280094D01*
X76686536Y-48170058D01*
X76866975Y-48021975D01*
X77015058Y-47841536D01*
X77125094Y-47635674D01*
X77192853Y-47412299D01*
X77210000Y-47238206D01*
X77210000Y-46421793D01*
X77192853Y-46247700D01*
X77125094Y-46024326D01*
X77015058Y-45818464D01*
X76866975Y-45638025D01*
X76686535Y-45489942D01*
X76480673Y-45379906D01*
X76257299Y-45312147D01*
X76025000Y-45289267D01*
X75792700Y-45312147D01*
X75569326Y-45379906D01*
X75363464Y-45489942D01*
X75183025Y-45638025D01*
X75034942Y-45818465D01*
X74924906Y-46024327D01*
X74857147Y-46247701D01*
X74840000Y-46421794D01*
X71613777Y-46421794D01*
X71630656Y-46336941D01*
X71630656Y-46133063D01*
X71590882Y-45933104D01*
X71512861Y-45744746D01*
X71399593Y-45575228D01*
X71255430Y-45431065D01*
X71092483Y-45322188D01*
X71148102Y-45345226D01*
X71348061Y-45385000D01*
X71551939Y-45385000D01*
X71751898Y-45345226D01*
X71940256Y-45267205D01*
X72109774Y-45153937D01*
X72253937Y-45009774D01*
X72367205Y-44840256D01*
X72445226Y-44651898D01*
X72485000Y-44451939D01*
X72485000Y-44248061D01*
X72445226Y-44048102D01*
X72367205Y-43859744D01*
X72253937Y-43690226D01*
X72109774Y-43546063D01*
X71940256Y-43432795D01*
X71751898Y-43354774D01*
X71551939Y-43315000D01*
X71348061Y-43315000D01*
X71148102Y-43354774D01*
X70959744Y-43432795D01*
X70920186Y-43459227D01*
X70752509Y-43389772D01*
X70552550Y-43349998D01*
X70348672Y-43349998D01*
X70148713Y-43389772D01*
X70025376Y-43440860D01*
X69855979Y-43370693D01*
X69656020Y-43330919D01*
X69452142Y-43330919D01*
X69252183Y-43370693D01*
X69063825Y-43448714D01*
X68894307Y-43561982D01*
X68750144Y-43706145D01*
X68636876Y-43875663D01*
X68558855Y-44064021D01*
X68519081Y-44263980D01*
X68519081Y-44451494D01*
X68450256Y-44405507D01*
X68261898Y-44327486D01*
X68061939Y-44287712D01*
X67858061Y-44287712D01*
X67658102Y-44327486D01*
X67469744Y-44405507D01*
X67300226Y-44518775D01*
X67156063Y-44662938D01*
X67042795Y-44832456D01*
X66964774Y-45020814D01*
X66925000Y-45220773D01*
X38745286Y-45220773D01*
X38755000Y-45171939D01*
X38755000Y-44968061D01*
X38715226Y-44768102D01*
X38659688Y-44634023D01*
X38783937Y-44509774D01*
X38897205Y-44340256D01*
X38975226Y-44151898D01*
X39015000Y-43951939D01*
X39015000Y-43748061D01*
X38975226Y-43548102D01*
X38897205Y-43359744D01*
X38783937Y-43190226D01*
X38639774Y-43046063D01*
X38470256Y-42932795D01*
X38281898Y-42854774D01*
X38081939Y-42815000D01*
X37878061Y-42815000D01*
X37678102Y-42854774D01*
X37489744Y-42932795D01*
X37320226Y-43046063D01*
X37176063Y-43190226D01*
X37062795Y-43359744D01*
X36984774Y-43548102D01*
X36945000Y-43748061D01*
X36945000Y-43951939D01*
X36984774Y-44151898D01*
X37040312Y-44285977D01*
X36916063Y-44410226D01*
X36802795Y-44579744D01*
X36724774Y-44768102D01*
X36712562Y-44829495D01*
X36559744Y-44892795D01*
X36390226Y-45006063D01*
X36246063Y-45150226D01*
X36132795Y-45319744D01*
X36054774Y-45508102D01*
X36015000Y-45708061D01*
X30660000Y-45708061D01*
X30660000Y-43698061D01*
X33190000Y-43698061D01*
X33190000Y-43901939D01*
X33229774Y-44101898D01*
X33307795Y-44290256D01*
X33421063Y-44459774D01*
X33565226Y-44603937D01*
X33734744Y-44717205D01*
X33923102Y-44795226D01*
X34026992Y-44815891D01*
X34057795Y-44890256D01*
X34171063Y-45059774D01*
X34315226Y-45203937D01*
X34484744Y-45317205D01*
X34673102Y-45395226D01*
X34873061Y-45435000D01*
X35076939Y-45435000D01*
X35276898Y-45395226D01*
X35465256Y-45317205D01*
X35634774Y-45203937D01*
X35778937Y-45059774D01*
X35892205Y-44890256D01*
X35970226Y-44701898D01*
X36010000Y-44501939D01*
X36010000Y-44298061D01*
X35970226Y-44098102D01*
X35892205Y-43909744D01*
X35778937Y-43740226D01*
X35634774Y-43596063D01*
X35465256Y-43482795D01*
X35276898Y-43404774D01*
X35173008Y-43384109D01*
X35142205Y-43309744D01*
X35028937Y-43140226D01*
X34884774Y-42996063D01*
X34715256Y-42882795D01*
X34526898Y-42804774D01*
X34326939Y-42765000D01*
X34123061Y-42765000D01*
X33923102Y-42804774D01*
X33734744Y-42882795D01*
X33565226Y-42996063D01*
X33421063Y-43140226D01*
X33307795Y-43309744D01*
X33229774Y-43498102D01*
X33190000Y-43698061D01*
X30660000Y-43698061D01*
X30660000Y-41828061D01*
X48645000Y-41828061D01*
X48645000Y-42031939D01*
X48684774Y-42231898D01*
X48762795Y-42420256D01*
X48876063Y-42589774D01*
X49020226Y-42733937D01*
X49189744Y-42847205D01*
X49378102Y-42925226D01*
X49578061Y-42965000D01*
X49781939Y-42965000D01*
X49981898Y-42925226D01*
X50170256Y-42847205D01*
X50339774Y-42733937D01*
X50483937Y-42589774D01*
X50597205Y-42420256D01*
X50675226Y-42231898D01*
X50715000Y-42031939D01*
X50715000Y-41828061D01*
X50689142Y-41698061D01*
X70815000Y-41698061D01*
X70815000Y-41901939D01*
X70854774Y-42101898D01*
X70932795Y-42290256D01*
X71046063Y-42459774D01*
X71190226Y-42603937D01*
X71359744Y-42717205D01*
X71548102Y-42795226D01*
X71748061Y-42835000D01*
X71951939Y-42835000D01*
X72151898Y-42795226D01*
X72340256Y-42717205D01*
X72481152Y-42623061D01*
X73265000Y-42623061D01*
X73265000Y-42826939D01*
X73304774Y-43026898D01*
X73382795Y-43215256D01*
X73496063Y-43384774D01*
X73640226Y-43528937D01*
X73809744Y-43642205D01*
X73998102Y-43720226D01*
X74198061Y-43760000D01*
X74401939Y-43760000D01*
X74601898Y-43720226D01*
X74790256Y-43642205D01*
X74959774Y-43528937D01*
X75103937Y-43384774D01*
X75217205Y-43215256D01*
X75295226Y-43026898D01*
X75335000Y-42826939D01*
X75335000Y-42623061D01*
X75316847Y-42531800D01*
X75363465Y-42570058D01*
X75569327Y-42680094D01*
X75792701Y-42747853D01*
X76025000Y-42770733D01*
X76257300Y-42747853D01*
X76480674Y-42680094D01*
X76686536Y-42570058D01*
X76866975Y-42421975D01*
X77015058Y-42241536D01*
X77125094Y-42035674D01*
X77192853Y-41812299D01*
X77210000Y-41638206D01*
X77210000Y-40821793D01*
X77192853Y-40647700D01*
X77125094Y-40424326D01*
X77015058Y-40218464D01*
X76866975Y-40038025D01*
X76686535Y-39889942D01*
X76480673Y-39779906D01*
X76257299Y-39712147D01*
X76025000Y-39689267D01*
X75792700Y-39712147D01*
X75569326Y-39779906D01*
X75363464Y-39889942D01*
X75183025Y-40038025D01*
X75034942Y-40218465D01*
X74924906Y-40424327D01*
X74857147Y-40647701D01*
X74840000Y-40821794D01*
X74840000Y-41638207D01*
X74857147Y-41812300D01*
X74872438Y-41862707D01*
X74790256Y-41807795D01*
X74601898Y-41729774D01*
X74401939Y-41690000D01*
X74198061Y-41690000D01*
X73998102Y-41729774D01*
X73809744Y-41807795D01*
X73640226Y-41921063D01*
X73496063Y-42065226D01*
X73382795Y-42234744D01*
X73304774Y-42423102D01*
X73265000Y-42623061D01*
X72481152Y-42623061D01*
X72509774Y-42603937D01*
X72653937Y-42459774D01*
X72767205Y-42290256D01*
X72845226Y-42101898D01*
X72885000Y-41901939D01*
X72885000Y-41698061D01*
X72845226Y-41498102D01*
X72767205Y-41309744D01*
X72653937Y-41140226D01*
X72509774Y-40996063D01*
X72340256Y-40882795D01*
X72151898Y-40804774D01*
X71951939Y-40765000D01*
X71748061Y-40765000D01*
X71548102Y-40804774D01*
X71359744Y-40882795D01*
X71190226Y-40996063D01*
X71046063Y-41140226D01*
X70932795Y-41309744D01*
X70854774Y-41498102D01*
X70815000Y-41698061D01*
X50689142Y-41698061D01*
X50675226Y-41628102D01*
X50597205Y-41439744D01*
X50483937Y-41270226D01*
X50339774Y-41126063D01*
X50170256Y-41012795D01*
X49981898Y-40934774D01*
X49781939Y-40895000D01*
X49578061Y-40895000D01*
X49378102Y-40934774D01*
X49189744Y-41012795D01*
X49020226Y-41126063D01*
X48876063Y-41270226D01*
X48762795Y-41439744D01*
X48684774Y-41628102D01*
X48645000Y-41828061D01*
X30660000Y-41828061D01*
X30660000Y-37398061D01*
X35015000Y-37398061D01*
X35015000Y-37601939D01*
X35054774Y-37801898D01*
X35132795Y-37990256D01*
X35246063Y-38159774D01*
X35390226Y-38303937D01*
X35559744Y-38417205D01*
X35748102Y-38495226D01*
X35770257Y-38499633D01*
X35807795Y-38590256D01*
X35921063Y-38759774D01*
X36065226Y-38903937D01*
X36234744Y-39017205D01*
X36423102Y-39095226D01*
X36623061Y-39135000D01*
X36701289Y-39135000D01*
X36596063Y-39240226D01*
X36482795Y-39409744D01*
X36404774Y-39598102D01*
X36365000Y-39798061D01*
X36365000Y-40001939D01*
X36404774Y-40201898D01*
X36482795Y-40390256D01*
X36596063Y-40559774D01*
X36740226Y-40703937D01*
X36909744Y-40817205D01*
X37098102Y-40895226D01*
X37298061Y-40935000D01*
X37501939Y-40935000D01*
X37701898Y-40895226D01*
X37890256Y-40817205D01*
X38059774Y-40703937D01*
X38203937Y-40559774D01*
X38317205Y-40390256D01*
X38395226Y-40201898D01*
X38435000Y-40001939D01*
X38435000Y-39798061D01*
X38395226Y-39598102D01*
X38317205Y-39409744D01*
X38203937Y-39240226D01*
X38059774Y-39096063D01*
X37890256Y-38982795D01*
X37701898Y-38904774D01*
X37501939Y-38865000D01*
X37423711Y-38865000D01*
X37528937Y-38759774D01*
X37642205Y-38590256D01*
X37720226Y-38401898D01*
X37760000Y-38201939D01*
X37760000Y-38176306D01*
X37830256Y-38147205D01*
X37999774Y-38033937D01*
X38143937Y-37889774D01*
X38257205Y-37720256D01*
X38335226Y-37531898D01*
X38375000Y-37331939D01*
X38375000Y-37128061D01*
X38339455Y-36949364D01*
X38418061Y-36965000D01*
X38621939Y-36965000D01*
X38821898Y-36925226D01*
X39010256Y-36847205D01*
X39179774Y-36733937D01*
X39323937Y-36589774D01*
X39401921Y-36473061D01*
X51805000Y-36473061D01*
X51805000Y-36676939D01*
X51844774Y-36876898D01*
X51922795Y-37065256D01*
X52036063Y-37234774D01*
X52180226Y-37378937D01*
X52349744Y-37492205D01*
X52538102Y-37570226D01*
X52738061Y-37610000D01*
X52941939Y-37610000D01*
X53141898Y-37570226D01*
X53330256Y-37492205D01*
X53499774Y-37378937D01*
X53643937Y-37234774D01*
X53757205Y-37065256D01*
X53835226Y-36876898D01*
X53875000Y-36676939D01*
X53875000Y-36473061D01*
X53844169Y-36318061D01*
X54035000Y-36318061D01*
X54035000Y-36521939D01*
X54074774Y-36721898D01*
X54152795Y-36910256D01*
X54266063Y-37079774D01*
X54410226Y-37223937D01*
X54579744Y-37337205D01*
X54768102Y-37415226D01*
X54968061Y-37455000D01*
X55171939Y-37455000D01*
X55307371Y-37428061D01*
X58425000Y-37428061D01*
X58425000Y-37631939D01*
X58464774Y-37831898D01*
X58542795Y-38020256D01*
X58656063Y-38189774D01*
X58800226Y-38333937D01*
X58969744Y-38447205D01*
X59158102Y-38525226D01*
X59358061Y-38565000D01*
X59561939Y-38565000D01*
X59761898Y-38525226D01*
X59827503Y-38498051D01*
X71656929Y-38498051D01*
X71656929Y-38701929D01*
X71696703Y-38901888D01*
X71774724Y-39090246D01*
X71887992Y-39259764D01*
X72032155Y-39403927D01*
X72201673Y-39517195D01*
X72390031Y-39595216D01*
X72589990Y-39634990D01*
X72793868Y-39634990D01*
X72993827Y-39595216D01*
X73182185Y-39517195D01*
X73351703Y-39403927D01*
X73495866Y-39259764D01*
X73609134Y-39090246D01*
X73687155Y-38901888D01*
X73726929Y-38701929D01*
X73726929Y-38498051D01*
X73687155Y-38298092D01*
X73609134Y-38109734D01*
X73495866Y-37940216D01*
X73351703Y-37796053D01*
X73182185Y-37682785D01*
X72993827Y-37604764D01*
X72793868Y-37564990D01*
X72589990Y-37564990D01*
X72390031Y-37604764D01*
X72201673Y-37682785D01*
X72032155Y-37796053D01*
X71887992Y-37940216D01*
X71774724Y-38109734D01*
X71696703Y-38298092D01*
X71656929Y-38498051D01*
X59827503Y-38498051D01*
X59950256Y-38447205D01*
X60119774Y-38333937D01*
X60263937Y-38189774D01*
X60377205Y-38020256D01*
X60455226Y-37831898D01*
X60495000Y-37631939D01*
X60495000Y-37428061D01*
X60455226Y-37228102D01*
X60377205Y-37039744D01*
X60263937Y-36870226D01*
X60119774Y-36726063D01*
X59950256Y-36612795D01*
X59761898Y-36534774D01*
X59561939Y-36495000D01*
X59358061Y-36495000D01*
X59158102Y-36534774D01*
X58969744Y-36612795D01*
X58800226Y-36726063D01*
X58656063Y-36870226D01*
X58542795Y-37039744D01*
X58464774Y-37228102D01*
X58425000Y-37428061D01*
X55307371Y-37428061D01*
X55371898Y-37415226D01*
X55560256Y-37337205D01*
X55729774Y-37223937D01*
X55873937Y-37079774D01*
X55987205Y-36910256D01*
X56065226Y-36721898D01*
X56105000Y-36521939D01*
X56105000Y-36318061D01*
X56065226Y-36118102D01*
X55987205Y-35929744D01*
X55873937Y-35760226D01*
X55729774Y-35616063D01*
X55560256Y-35502795D01*
X55371898Y-35424774D01*
X55171939Y-35385000D01*
X54968061Y-35385000D01*
X54768102Y-35424774D01*
X54579744Y-35502795D01*
X54410226Y-35616063D01*
X54266063Y-35760226D01*
X54152795Y-35929744D01*
X54074774Y-36118102D01*
X54035000Y-36318061D01*
X53844169Y-36318061D01*
X53835226Y-36273102D01*
X53757205Y-36084744D01*
X53643937Y-35915226D01*
X53499774Y-35771063D01*
X53330256Y-35657795D01*
X53141898Y-35579774D01*
X52941939Y-35540000D01*
X52738061Y-35540000D01*
X52538102Y-35579774D01*
X52349744Y-35657795D01*
X52180226Y-35771063D01*
X52036063Y-35915226D01*
X51922795Y-36084744D01*
X51844774Y-36273102D01*
X51805000Y-36473061D01*
X39401921Y-36473061D01*
X39437205Y-36420256D01*
X39515226Y-36231898D01*
X39555000Y-36031939D01*
X39555000Y-35828061D01*
X39515226Y-35628102D01*
X39437205Y-35439744D01*
X39323937Y-35270226D01*
X39179774Y-35126063D01*
X39010256Y-35012795D01*
X38821898Y-34934774D01*
X38621939Y-34895000D01*
X38418061Y-34895000D01*
X38218102Y-34934774D01*
X38029744Y-35012795D01*
X37860226Y-35126063D01*
X37716063Y-35270226D01*
X37602795Y-35439744D01*
X37524774Y-35628102D01*
X37485000Y-35828061D01*
X37485000Y-36031939D01*
X37520545Y-36210636D01*
X37441939Y-36195000D01*
X37238061Y-36195000D01*
X37038102Y-36234774D01*
X36849744Y-36312795D01*
X36680226Y-36426063D01*
X36536063Y-36570226D01*
X36530394Y-36578710D01*
X36351898Y-36504774D01*
X36151939Y-36465000D01*
X35948061Y-36465000D01*
X35748102Y-36504774D01*
X35559744Y-36582795D01*
X35390226Y-36696063D01*
X35246063Y-36840226D01*
X35132795Y-37009744D01*
X35054774Y-37198102D01*
X35015000Y-37398061D01*
X30660000Y-37398061D01*
X30660000Y-34428061D01*
X42095000Y-34428061D01*
X42095000Y-34631939D01*
X42134774Y-34831898D01*
X42212795Y-35020256D01*
X42326063Y-35189774D01*
X42470226Y-35333937D01*
X42639744Y-35447205D01*
X42828102Y-35525226D01*
X43028061Y-35565000D01*
X43231939Y-35565000D01*
X43431898Y-35525226D01*
X43620256Y-35447205D01*
X43789774Y-35333937D01*
X43933937Y-35189774D01*
X44047205Y-35020256D01*
X44125226Y-34831898D01*
X44165000Y-34631939D01*
X44165000Y-34428061D01*
X44125226Y-34228102D01*
X44054793Y-34058061D01*
X71315000Y-34058061D01*
X71315000Y-34261939D01*
X71354774Y-34461898D01*
X71432795Y-34650256D01*
X71537850Y-34807483D01*
X71442795Y-34949744D01*
X71364774Y-35138102D01*
X71325000Y-35338061D01*
X71325000Y-35541939D01*
X71364774Y-35741898D01*
X71442795Y-35930256D01*
X71556063Y-36099774D01*
X71700226Y-36243937D01*
X71869744Y-36357205D01*
X72058102Y-36435226D01*
X72258061Y-36475000D01*
X72461939Y-36475000D01*
X72661898Y-36435226D01*
X72850256Y-36357205D01*
X73019774Y-36243937D01*
X73163937Y-36099774D01*
X73277205Y-35930256D01*
X73355226Y-35741898D01*
X73395000Y-35541939D01*
X73395000Y-35338061D01*
X73355226Y-35138102D01*
X73277205Y-34949744D01*
X73172150Y-34792517D01*
X73267205Y-34650256D01*
X73326104Y-34508061D01*
X74865000Y-34508061D01*
X74865000Y-34711939D01*
X74904774Y-34911898D01*
X74982795Y-35100256D01*
X75096063Y-35269774D01*
X75240226Y-35413937D01*
X75409744Y-35527205D01*
X75598102Y-35605226D01*
X75798061Y-35645000D01*
X76001939Y-35645000D01*
X76201898Y-35605226D01*
X76390256Y-35527205D01*
X76559774Y-35413937D01*
X76703937Y-35269774D01*
X76817205Y-35100256D01*
X76895226Y-34911898D01*
X76935000Y-34711939D01*
X76935000Y-34508061D01*
X76895226Y-34308102D01*
X76817205Y-34119744D01*
X76703937Y-33950226D01*
X76559774Y-33806063D01*
X76390256Y-33692795D01*
X76201898Y-33614774D01*
X76001939Y-33575000D01*
X75798061Y-33575000D01*
X75598102Y-33614774D01*
X75409744Y-33692795D01*
X75240226Y-33806063D01*
X75096063Y-33950226D01*
X74982795Y-34119744D01*
X74904774Y-34308102D01*
X74865000Y-34508061D01*
X73326104Y-34508061D01*
X73345226Y-34461898D01*
X73385000Y-34261939D01*
X73385000Y-34058061D01*
X73345226Y-33858102D01*
X73267205Y-33669744D01*
X73153937Y-33500226D01*
X73009774Y-33356063D01*
X72840256Y-33242795D01*
X72651898Y-33164774D01*
X72451939Y-33125000D01*
X72248061Y-33125000D01*
X72048102Y-33164774D01*
X71859744Y-33242795D01*
X71690226Y-33356063D01*
X71546063Y-33500226D01*
X71432795Y-33669744D01*
X71354774Y-33858102D01*
X71315000Y-34058061D01*
X44054793Y-34058061D01*
X44047205Y-34039744D01*
X43933937Y-33870226D01*
X43789774Y-33726063D01*
X43620256Y-33612795D01*
X43431898Y-33534774D01*
X43231939Y-33495000D01*
X43028061Y-33495000D01*
X42828102Y-33534774D01*
X42639744Y-33612795D01*
X42470226Y-33726063D01*
X42326063Y-33870226D01*
X42212795Y-34039744D01*
X42134774Y-34228102D01*
X42095000Y-34428061D01*
X30660000Y-34428061D01*
X30660000Y-31538061D01*
X71325000Y-31538061D01*
X71325000Y-31741939D01*
X71364774Y-31941898D01*
X71442795Y-32130256D01*
X71556063Y-32299774D01*
X71700226Y-32443937D01*
X71869744Y-32557205D01*
X72058102Y-32635226D01*
X72258061Y-32675000D01*
X72461939Y-32675000D01*
X72661898Y-32635226D01*
X72850256Y-32557205D01*
X73019774Y-32443937D01*
X73163937Y-32299774D01*
X73277205Y-32130256D01*
X73355226Y-31941898D01*
X73395000Y-31741939D01*
X73395000Y-31538061D01*
X73355226Y-31338102D01*
X73277205Y-31149744D01*
X73163937Y-30980226D01*
X73019774Y-30836063D01*
X72850256Y-30722795D01*
X72661898Y-30644774D01*
X72461939Y-30605000D01*
X72258061Y-30605000D01*
X72058102Y-30644774D01*
X71869744Y-30722795D01*
X71700226Y-30836063D01*
X71556063Y-30980226D01*
X71442795Y-31149744D01*
X71364774Y-31338102D01*
X71325000Y-31538061D01*
X30660000Y-31538061D01*
X30660000Y-27387496D01*
X31166735Y-28145879D01*
X31854121Y-28833265D01*
X32662401Y-29373340D01*
X33560514Y-29745350D01*
X34513945Y-29935000D01*
X35486055Y-29935000D01*
X36439486Y-29745350D01*
X37337599Y-29373340D01*
X38145879Y-28833265D01*
X38833265Y-28145879D01*
X39373340Y-27337599D01*
X39745350Y-26439486D01*
X39935000Y-25486055D01*
X39935000Y-25348061D01*
X43335000Y-25348061D01*
X43335000Y-25551939D01*
X43374774Y-25751898D01*
X43452795Y-25940256D01*
X43566063Y-26109774D01*
X43710226Y-26253937D01*
X43879744Y-26367205D01*
X44068102Y-26445226D01*
X44268061Y-26485000D01*
X44471939Y-26485000D01*
X44671898Y-26445226D01*
X44860256Y-26367205D01*
X45029774Y-26253937D01*
X45173937Y-26109774D01*
X45287205Y-25940256D01*
X45365226Y-25751898D01*
X45405000Y-25551939D01*
X45405000Y-25348061D01*
X45365226Y-25148102D01*
X45287205Y-24959744D01*
X45173937Y-24790226D01*
X45029774Y-24646063D01*
X44860256Y-24532795D01*
X44671898Y-24454774D01*
X44471939Y-24415000D01*
X44268061Y-24415000D01*
X44068102Y-24454774D01*
X43879744Y-24532795D01*
X43710226Y-24646063D01*
X43566063Y-24790226D01*
X43452795Y-24959744D01*
X43374774Y-25148102D01*
X43335000Y-25348061D01*
X39935000Y-25348061D01*
X39935000Y-24513945D01*
X39818460Y-23928061D01*
X52815000Y-23928061D01*
X52815000Y-24131939D01*
X52854774Y-24331898D01*
X52918820Y-24486516D01*
X52889159Y-24542007D01*
X52829976Y-24737105D01*
X52815000Y-24889162D01*
X52815000Y-25490837D01*
X52829976Y-25642894D01*
X52889159Y-25837992D01*
X52985266Y-26017797D01*
X53114604Y-26175396D01*
X53272203Y-26304734D01*
X53452007Y-26400841D01*
X53647105Y-26460024D01*
X53850000Y-26480007D01*
X54052894Y-26460024D01*
X54247992Y-26400841D01*
X54427797Y-26304734D01*
X54475000Y-26265996D01*
X54522203Y-26304734D01*
X54702007Y-26400841D01*
X54897105Y-26460024D01*
X55100000Y-26480007D01*
X55302894Y-26460024D01*
X55497992Y-26400841D01*
X55677797Y-26304734D01*
X55725000Y-26265996D01*
X55772203Y-26304734D01*
X55952007Y-26400841D01*
X56147105Y-26460024D01*
X56350000Y-26480007D01*
X56552894Y-26460024D01*
X56747992Y-26400841D01*
X56829406Y-26357324D01*
X56845506Y-26370537D01*
X56955820Y-26429502D01*
X57075518Y-26465812D01*
X57200000Y-26478072D01*
X57314250Y-26475000D01*
X57473000Y-26316250D01*
X57473000Y-25317000D01*
X57727000Y-25317000D01*
X57727000Y-26316250D01*
X57885750Y-26475000D01*
X58000000Y-26478072D01*
X58124482Y-26465812D01*
X58244180Y-26429502D01*
X58354494Y-26370537D01*
X58451185Y-26291185D01*
X58530537Y-26194494D01*
X58589502Y-26084180D01*
X58625812Y-25964482D01*
X58638072Y-25840000D01*
X58635000Y-25475750D01*
X58476250Y-25317000D01*
X57727000Y-25317000D01*
X57473000Y-25317000D01*
X57453000Y-25317000D01*
X57453000Y-25063000D01*
X57473000Y-25063000D01*
X57473000Y-24063750D01*
X57727000Y-24063750D01*
X57727000Y-25063000D01*
X58476250Y-25063000D01*
X58635000Y-24904250D01*
X58638072Y-24540000D01*
X58625812Y-24415518D01*
X58589502Y-24295820D01*
X58530537Y-24185506D01*
X58451185Y-24088815D01*
X58354494Y-24009463D01*
X58244180Y-23950498D01*
X58124482Y-23914188D01*
X58000000Y-23901928D01*
X57885750Y-23905000D01*
X57727000Y-24063750D01*
X57473000Y-24063750D01*
X57314250Y-23905000D01*
X57200000Y-23901928D01*
X57075518Y-23914188D01*
X56955820Y-23950498D01*
X56845506Y-24009463D01*
X56829407Y-24022675D01*
X56747993Y-23979159D01*
X56552895Y-23919976D01*
X56350000Y-23899993D01*
X56147106Y-23919976D01*
X55952008Y-23979159D01*
X55772204Y-24075266D01*
X55725001Y-24114005D01*
X55677797Y-24075266D01*
X55497993Y-23979159D01*
X55302895Y-23919976D01*
X55100000Y-23899993D01*
X54897106Y-23919976D01*
X54884172Y-23923899D01*
X54845226Y-23728102D01*
X54767205Y-23539744D01*
X54653937Y-23370226D01*
X54509774Y-23226063D01*
X54340256Y-23112795D01*
X54151898Y-23034774D01*
X53951939Y-22995000D01*
X53748061Y-22995000D01*
X53548102Y-23034774D01*
X53359744Y-23112795D01*
X53190226Y-23226063D01*
X53046063Y-23370226D01*
X52932795Y-23539744D01*
X52854774Y-23728102D01*
X52815000Y-23928061D01*
X39818460Y-23928061D01*
X39745350Y-23560514D01*
X39373340Y-22662401D01*
X39193424Y-22393137D01*
X44015000Y-22393137D01*
X44015000Y-22606863D01*
X44056696Y-22816483D01*
X44138485Y-23013940D01*
X44257225Y-23191647D01*
X44408353Y-23342775D01*
X44586060Y-23461515D01*
X44783517Y-23543304D01*
X44993137Y-23585000D01*
X45206863Y-23585000D01*
X45416483Y-23543304D01*
X45613940Y-23461515D01*
X45791647Y-23342775D01*
X45942775Y-23191647D01*
X46061515Y-23013940D01*
X46143304Y-22816483D01*
X46185000Y-22606863D01*
X46185000Y-22393137D01*
X47015000Y-22393137D01*
X47015000Y-22606863D01*
X47056696Y-22816483D01*
X47138485Y-23013940D01*
X47257225Y-23191647D01*
X47408353Y-23342775D01*
X47586060Y-23461515D01*
X47783517Y-23543304D01*
X47993137Y-23585000D01*
X48206863Y-23585000D01*
X48416483Y-23543304D01*
X48613940Y-23461515D01*
X48791647Y-23342775D01*
X48942775Y-23191647D01*
X49061515Y-23013940D01*
X49143304Y-22816483D01*
X49185000Y-22606863D01*
X49185000Y-22393137D01*
X49143304Y-22183517D01*
X49061515Y-21986060D01*
X48942775Y-21808353D01*
X48791647Y-21657225D01*
X48613940Y-21538485D01*
X48416483Y-21456696D01*
X48206863Y-21415000D01*
X47993137Y-21415000D01*
X47783517Y-21456696D01*
X47586060Y-21538485D01*
X47408353Y-21657225D01*
X47257225Y-21808353D01*
X47138485Y-21986060D01*
X47056696Y-22183517D01*
X47015000Y-22393137D01*
X46185000Y-22393137D01*
X46143304Y-22183517D01*
X46061515Y-21986060D01*
X45942775Y-21808353D01*
X45791647Y-21657225D01*
X45613940Y-21538485D01*
X45416483Y-21456696D01*
X45206863Y-21415000D01*
X44993137Y-21415000D01*
X44783517Y-21456696D01*
X44586060Y-21538485D01*
X44408353Y-21657225D01*
X44257225Y-21808353D01*
X44138485Y-21986060D01*
X44056696Y-22183517D01*
X44015000Y-22393137D01*
X39193424Y-22393137D01*
X38833265Y-21854121D01*
X38145879Y-21166735D01*
X37387496Y-20660000D01*
X72864754Y-20660000D01*
X72462401Y-20826660D01*
%TA.AperFunction,Conductor*%
D19*
G36*
X72462401Y-20826660D02*
G01*
X71654121Y-21366735D01*
X70966735Y-22054121D01*
X70426660Y-22862401D01*
X70054650Y-23760514D01*
X69865000Y-24713945D01*
X69865000Y-25686055D01*
X70054650Y-26639486D01*
X70426660Y-27537599D01*
X70966735Y-28345879D01*
X71654121Y-29033265D01*
X72462401Y-29573340D01*
X73360514Y-29945350D01*
X74313945Y-30135000D01*
X75286055Y-30135000D01*
X76239486Y-29945350D01*
X77137599Y-29573340D01*
X77945879Y-29033265D01*
X78633265Y-28345879D01*
X79173340Y-27537599D01*
X79340000Y-27135245D01*
X79340000Y-43238296D01*
X79275094Y-43024326D01*
X79165058Y-42818464D01*
X79016975Y-42638025D01*
X78836535Y-42489942D01*
X78630673Y-42379906D01*
X78407299Y-42312147D01*
X78175000Y-42289267D01*
X77942700Y-42312147D01*
X77719326Y-42379906D01*
X77513464Y-42489942D01*
X77333025Y-42638025D01*
X77184942Y-42818465D01*
X77074906Y-43024327D01*
X77007147Y-43247701D01*
X76990000Y-43421794D01*
X76990000Y-44638207D01*
X77007147Y-44812300D01*
X77074906Y-45035674D01*
X77184943Y-45241536D01*
X77333026Y-45421975D01*
X77513465Y-45570058D01*
X77719327Y-45680094D01*
X77942701Y-45747853D01*
X78175000Y-45770733D01*
X78407300Y-45747853D01*
X78630674Y-45680094D01*
X78836536Y-45570058D01*
X79016975Y-45421975D01*
X79165058Y-45241536D01*
X79275094Y-45035674D01*
X79340000Y-44821704D01*
X79340001Y-62864757D01*
X79173340Y-62462401D01*
X78633265Y-61654121D01*
X77945879Y-60966735D01*
X77137599Y-60426660D01*
X76239486Y-60054650D01*
X75286055Y-59865000D01*
X74313945Y-59865000D01*
X73360514Y-60054650D01*
X72462401Y-60426660D01*
X71654121Y-60966735D01*
X70966735Y-61654121D01*
X70426660Y-62462401D01*
X70054650Y-63360514D01*
X69865000Y-64313945D01*
X69865000Y-65286055D01*
X70054650Y-66239486D01*
X70426660Y-67137599D01*
X70966735Y-67945879D01*
X71654121Y-68633265D01*
X72462401Y-69173340D01*
X72864754Y-69340000D01*
X37387496Y-69340000D01*
X38145879Y-68833265D01*
X38833265Y-68145879D01*
X39373340Y-67337599D01*
X39745350Y-66439486D01*
X39935000Y-65486055D01*
X39935000Y-65275000D01*
X41336928Y-65275000D01*
X41349188Y-65399482D01*
X41385498Y-65519180D01*
X41444463Y-65629494D01*
X41523815Y-65726185D01*
X41620506Y-65805537D01*
X41730820Y-65864502D01*
X41850518Y-65900812D01*
X41975000Y-65913072D01*
X42089250Y-65910000D01*
X42248000Y-65751250D01*
X42248000Y-64752000D01*
X41498750Y-64752000D01*
X41340000Y-64910750D01*
X41336928Y-65275000D01*
X39935000Y-65275000D01*
X39935000Y-64513945D01*
X39827797Y-63975000D01*
X41336928Y-63975000D01*
X41340000Y-64339250D01*
X41498750Y-64498000D01*
X42248000Y-64498000D01*
X42248000Y-63498750D01*
X42502000Y-63498750D01*
X42502000Y-64498000D01*
X42522000Y-64498000D01*
X42522000Y-64752000D01*
X42502000Y-64752000D01*
X42502000Y-65751250D01*
X42660750Y-65910000D01*
X42775000Y-65913072D01*
X42899482Y-65900812D01*
X43019180Y-65864502D01*
X43129494Y-65805537D01*
X43145594Y-65792324D01*
X43227008Y-65835841D01*
X43422106Y-65895024D01*
X43625000Y-65915007D01*
X43827895Y-65895024D01*
X44022993Y-65835841D01*
X44202797Y-65739734D01*
X44250001Y-65700995D01*
X44297204Y-65739734D01*
X44477008Y-65835841D01*
X44672106Y-65895024D01*
X44875000Y-65915007D01*
X45077895Y-65895024D01*
X45272993Y-65835841D01*
X45452797Y-65739734D01*
X45500001Y-65700995D01*
X45547204Y-65739734D01*
X45727008Y-65835841D01*
X45922106Y-65895024D01*
X46125000Y-65915007D01*
X46327895Y-65895024D01*
X46522993Y-65835841D01*
X46702797Y-65739734D01*
X46860396Y-65610396D01*
X46989734Y-65452797D01*
X47085841Y-65272992D01*
X47145024Y-65077894D01*
X47160000Y-64925837D01*
X47160000Y-64683506D01*
X47251898Y-64665226D01*
X47440256Y-64587205D01*
X47609774Y-64473937D01*
X47753937Y-64329774D01*
X47867205Y-64160256D01*
X47945226Y-63971898D01*
X47985000Y-63771939D01*
X47985000Y-63750000D01*
X53411928Y-63750000D01*
X53411928Y-66150000D01*
X53424188Y-66274482D01*
X53460498Y-66394180D01*
X53519463Y-66504494D01*
X53598815Y-66601185D01*
X53695506Y-66680537D01*
X53805820Y-66739502D01*
X53925518Y-66775812D01*
X54050000Y-66788072D01*
X56450000Y-66788072D01*
X56574482Y-66775812D01*
X56694180Y-66739502D01*
X56804494Y-66680537D01*
X56901185Y-66601185D01*
X56980537Y-66504494D01*
X57039502Y-66394180D01*
X57075812Y-66274482D01*
X57088072Y-66150000D01*
X57088072Y-65732838D01*
X57123844Y-65819199D01*
X57324662Y-66119744D01*
X57580256Y-66375338D01*
X57880801Y-66576156D01*
X58214750Y-66714482D01*
X58569268Y-66785000D01*
X58930732Y-66785000D01*
X59285250Y-66714482D01*
X59619199Y-66576156D01*
X59919744Y-66375338D01*
X60175338Y-66119744D01*
X60376156Y-65819199D01*
X60514482Y-65485250D01*
X60585000Y-65130732D01*
X60585000Y-64769268D01*
X60514482Y-64414750D01*
X60440027Y-64235000D01*
X60526939Y-64235000D01*
X60726898Y-64195226D01*
X60915256Y-64117205D01*
X61084774Y-64003937D01*
X61228937Y-63859774D01*
X61342205Y-63690256D01*
X61420226Y-63501898D01*
X61460000Y-63301939D01*
X61460000Y-63098061D01*
X61420226Y-62898102D01*
X61342205Y-62709744D01*
X61228937Y-62540226D01*
X61084774Y-62396063D01*
X60915256Y-62282795D01*
X60726898Y-62204774D01*
X60526939Y-62165000D01*
X60323061Y-62165000D01*
X60150058Y-62199412D01*
X60092205Y-62059744D01*
X59978937Y-61890226D01*
X59834774Y-61746063D01*
X59665256Y-61632795D01*
X59476898Y-61554774D01*
X59276939Y-61515000D01*
X59073061Y-61515000D01*
X58873102Y-61554774D01*
X58684744Y-61632795D01*
X58515226Y-61746063D01*
X58371063Y-61890226D01*
X58257795Y-62059744D01*
X58179774Y-62248102D01*
X58140000Y-62448061D01*
X58140000Y-62651939D01*
X58179774Y-62851898D01*
X58257795Y-63040256D01*
X58338419Y-63160919D01*
X58214750Y-63185518D01*
X57880801Y-63323844D01*
X57580256Y-63524662D01*
X57324662Y-63780256D01*
X57123844Y-64080801D01*
X57088072Y-64167162D01*
X57088072Y-63750000D01*
X57075812Y-63625518D01*
X57039502Y-63505820D01*
X56980537Y-63395506D01*
X56901185Y-63298815D01*
X56804494Y-63219463D01*
X56694180Y-63160498D01*
X56574482Y-63124188D01*
X56450000Y-63111928D01*
X54050000Y-63111928D01*
X53925518Y-63124188D01*
X53805820Y-63160498D01*
X53695506Y-63219463D01*
X53598815Y-63298815D01*
X53519463Y-63395506D01*
X53460498Y-63505820D01*
X53424188Y-63625518D01*
X53411928Y-63750000D01*
X47985000Y-63750000D01*
X47985000Y-63568061D01*
X47945226Y-63368102D01*
X47867205Y-63179744D01*
X47753937Y-63010226D01*
X47609774Y-62866063D01*
X47440256Y-62752795D01*
X47251898Y-62674774D01*
X47051939Y-62635000D01*
X46848061Y-62635000D01*
X46648102Y-62674774D01*
X46459744Y-62752795D01*
X46290226Y-62866063D01*
X46146063Y-63010226D01*
X46032795Y-63179744D01*
X45961832Y-63351063D01*
X45922105Y-63354976D01*
X45727007Y-63414159D01*
X45547203Y-63510266D01*
X45500000Y-63549004D01*
X45452797Y-63510266D01*
X45272992Y-63414159D01*
X45077894Y-63354976D01*
X44875000Y-63334993D01*
X44672105Y-63354976D01*
X44477007Y-63414159D01*
X44297203Y-63510266D01*
X44250000Y-63549004D01*
X44202797Y-63510266D01*
X44022992Y-63414159D01*
X43827894Y-63354976D01*
X43625000Y-63334993D01*
X43422105Y-63354976D01*
X43227007Y-63414159D01*
X43145593Y-63457675D01*
X43129494Y-63444463D01*
X43019180Y-63385498D01*
X42899482Y-63349188D01*
X42775000Y-63336928D01*
X42660750Y-63340000D01*
X42502000Y-63498750D01*
X42248000Y-63498750D01*
X42089250Y-63340000D01*
X41975000Y-63336928D01*
X41850518Y-63349188D01*
X41730820Y-63385498D01*
X41620506Y-63444463D01*
X41523815Y-63523815D01*
X41444463Y-63620506D01*
X41385498Y-63730820D01*
X41349188Y-63850518D01*
X41336928Y-63975000D01*
X39827797Y-63975000D01*
X39745350Y-63560514D01*
X39373340Y-62662401D01*
X38833265Y-61854121D01*
X38145879Y-61166735D01*
X37337599Y-60626660D01*
X36439486Y-60254650D01*
X35486055Y-60065000D01*
X34513945Y-60065000D01*
X33560514Y-60254650D01*
X32662401Y-60626660D01*
X31854121Y-61166735D01*
X31166735Y-61854121D01*
X30660000Y-62612504D01*
X30660000Y-59448061D01*
X51865000Y-59448061D01*
X51865000Y-59651939D01*
X51904774Y-59851898D01*
X51982795Y-60040256D01*
X52096063Y-60209774D01*
X52240226Y-60353937D01*
X52409744Y-60467205D01*
X52598102Y-60545226D01*
X52798061Y-60585000D01*
X53001939Y-60585000D01*
X53201898Y-60545226D01*
X53390256Y-60467205D01*
X53559774Y-60353937D01*
X53703937Y-60209774D01*
X53817205Y-60040256D01*
X53895226Y-59851898D01*
X53935000Y-59651939D01*
X53935000Y-59448061D01*
X53895226Y-59248102D01*
X53817205Y-59059744D01*
X53703937Y-58890226D01*
X53559774Y-58746063D01*
X53390256Y-58632795D01*
X53201898Y-58554774D01*
X53001939Y-58515000D01*
X52798061Y-58515000D01*
X52598102Y-58554774D01*
X52409744Y-58632795D01*
X52240226Y-58746063D01*
X52096063Y-58890226D01*
X51982795Y-59059744D01*
X51904774Y-59248102D01*
X51865000Y-59448061D01*
X30660000Y-59448061D01*
X30660000Y-55398061D01*
X58275000Y-55398061D01*
X58275000Y-55601939D01*
X58314774Y-55801898D01*
X58392795Y-55990256D01*
X58506063Y-56159774D01*
X58650226Y-56303937D01*
X58819744Y-56417205D01*
X59008102Y-56495226D01*
X59208061Y-56535000D01*
X59411939Y-56535000D01*
X59611898Y-56495226D01*
X59800256Y-56417205D01*
X59866322Y-56373061D01*
X70215000Y-56373061D01*
X70215000Y-56576939D01*
X70254774Y-56776898D01*
X70332795Y-56965256D01*
X70336681Y-56971072D01*
X70304774Y-57048102D01*
X70265000Y-57248061D01*
X70265000Y-57451939D01*
X70304774Y-57651898D01*
X70382795Y-57840256D01*
X70496063Y-58009774D01*
X70640226Y-58153937D01*
X70809744Y-58267205D01*
X70998102Y-58345226D01*
X71198061Y-58385000D01*
X71401939Y-58385000D01*
X71601898Y-58345226D01*
X71790256Y-58267205D01*
X71959774Y-58153937D01*
X72103937Y-58009774D01*
X72217205Y-57840256D01*
X72295226Y-57651898D01*
X72335000Y-57451939D01*
X72335000Y-57248061D01*
X72295226Y-57048102D01*
X72217205Y-56859744D01*
X72213319Y-56853928D01*
X72245226Y-56776898D01*
X72285000Y-56576939D01*
X72285000Y-56373061D01*
X72245226Y-56173102D01*
X72167205Y-55984744D01*
X72053937Y-55815226D01*
X71909774Y-55671063D01*
X71740256Y-55557795D01*
X71551898Y-55479774D01*
X71351939Y-55440000D01*
X71148061Y-55440000D01*
X70948102Y-55479774D01*
X70759744Y-55557795D01*
X70590226Y-55671063D01*
X70446063Y-55815226D01*
X70332795Y-55984744D01*
X70254774Y-56173102D01*
X70215000Y-56373061D01*
X59866322Y-56373061D01*
X59969774Y-56303937D01*
X60113937Y-56159774D01*
X60227205Y-55990256D01*
X60305226Y-55801898D01*
X60345000Y-55601939D01*
X60345000Y-55398061D01*
X60305226Y-55198102D01*
X60227205Y-55009744D01*
X60113937Y-54840226D01*
X59969774Y-54696063D01*
X59800256Y-54582795D01*
X59611898Y-54504774D01*
X59411939Y-54465000D01*
X59208061Y-54465000D01*
X59008102Y-54504774D01*
X58819744Y-54582795D01*
X58650226Y-54696063D01*
X58506063Y-54840226D01*
X58392795Y-55009744D01*
X58314774Y-55198102D01*
X58275000Y-55398061D01*
X30660000Y-55398061D01*
X30660000Y-54238061D01*
X60235000Y-54238061D01*
X60235000Y-54441939D01*
X60274774Y-54641898D01*
X60352795Y-54830256D01*
X60466063Y-54999774D01*
X60610226Y-55143937D01*
X60779744Y-55257205D01*
X60968102Y-55335226D01*
X61168061Y-55375000D01*
X61371939Y-55375000D01*
X61571898Y-55335226D01*
X61760256Y-55257205D01*
X61929774Y-55143937D01*
X62073937Y-54999774D01*
X62187205Y-54830256D01*
X62265226Y-54641898D01*
X62278918Y-54573061D01*
X62915000Y-54573061D01*
X62915000Y-54776939D01*
X62954774Y-54976898D01*
X63032795Y-55165256D01*
X63146063Y-55334774D01*
X63290226Y-55478937D01*
X63459744Y-55592205D01*
X63648102Y-55670226D01*
X63848061Y-55710000D01*
X64051939Y-55710000D01*
X64251898Y-55670226D01*
X64440256Y-55592205D01*
X64609774Y-55478937D01*
X64753937Y-55334774D01*
X64867205Y-55165256D01*
X64945226Y-54976898D01*
X64985000Y-54776939D01*
X64985000Y-54573061D01*
X64945226Y-54373102D01*
X64867205Y-54184744D01*
X64753937Y-54015226D01*
X64609774Y-53871063D01*
X64440256Y-53757795D01*
X64251898Y-53679774D01*
X64051939Y-53640000D01*
X63848061Y-53640000D01*
X63648102Y-53679774D01*
X63459744Y-53757795D01*
X63290226Y-53871063D01*
X63146063Y-54015226D01*
X63032795Y-54184744D01*
X62954774Y-54373102D01*
X62915000Y-54573061D01*
X62278918Y-54573061D01*
X62305000Y-54441939D01*
X62305000Y-54238061D01*
X62265226Y-54038102D01*
X62187205Y-53849744D01*
X62073937Y-53680226D01*
X61929774Y-53536063D01*
X61760256Y-53422795D01*
X61571898Y-53344774D01*
X61371939Y-53305000D01*
X61168061Y-53305000D01*
X60968102Y-53344774D01*
X60779744Y-53422795D01*
X60610226Y-53536063D01*
X60466063Y-53680226D01*
X60352795Y-53849744D01*
X60274774Y-54038102D01*
X60235000Y-54238061D01*
X30660000Y-54238061D01*
X30660000Y-53148061D01*
X64565000Y-53148061D01*
X64565000Y-53351939D01*
X64604774Y-53551898D01*
X64682795Y-53740256D01*
X64796063Y-53909774D01*
X64940226Y-54053937D01*
X65109744Y-54167205D01*
X65298102Y-54245226D01*
X65498061Y-54285000D01*
X65701939Y-54285000D01*
X65901898Y-54245226D01*
X66090256Y-54167205D01*
X66259774Y-54053937D01*
X66403937Y-53909774D01*
X66517205Y-53740256D01*
X66595226Y-53551898D01*
X66635000Y-53351939D01*
X66635000Y-53217666D01*
X66660256Y-53207205D01*
X66711356Y-53173061D01*
X67115000Y-53173061D01*
X67115000Y-53376939D01*
X67154774Y-53576898D01*
X67232795Y-53765256D01*
X67346063Y-53934774D01*
X67490226Y-54078937D01*
X67659744Y-54192205D01*
X67848102Y-54270226D01*
X68048061Y-54310000D01*
X68251939Y-54310000D01*
X68451898Y-54270226D01*
X68640256Y-54192205D01*
X68809774Y-54078937D01*
X68953937Y-53934774D01*
X69067205Y-53765256D01*
X69145226Y-53576898D01*
X69185000Y-53376939D01*
X69185000Y-53173061D01*
X69145226Y-52973102D01*
X69067205Y-52784744D01*
X68953937Y-52615226D01*
X68809774Y-52471063D01*
X68640256Y-52357795D01*
X68451898Y-52279774D01*
X68251939Y-52240000D01*
X68048061Y-52240000D01*
X67848102Y-52279774D01*
X67659744Y-52357795D01*
X67490226Y-52471063D01*
X67346063Y-52615226D01*
X67232795Y-52784744D01*
X67154774Y-52973102D01*
X67115000Y-53173061D01*
X66711356Y-53173061D01*
X66829774Y-53093937D01*
X66973937Y-52949774D01*
X67087205Y-52780256D01*
X67165226Y-52591898D01*
X67205000Y-52391939D01*
X67205000Y-52188061D01*
X67165226Y-51988102D01*
X67087205Y-51799744D01*
X67069785Y-51773673D01*
X67120226Y-51651898D01*
X67160000Y-51451939D01*
X67160000Y-51248061D01*
X67120226Y-51048102D01*
X67042205Y-50859744D01*
X66928937Y-50690226D01*
X66784774Y-50546063D01*
X66615256Y-50432795D01*
X66426898Y-50354774D01*
X66226939Y-50315000D01*
X66023061Y-50315000D01*
X65823102Y-50354774D01*
X65634744Y-50432795D01*
X65465226Y-50546063D01*
X65321063Y-50690226D01*
X65207795Y-50859744D01*
X65129774Y-51048102D01*
X65090000Y-51248061D01*
X65090000Y-51451939D01*
X65129774Y-51651898D01*
X65207795Y-51840256D01*
X65225215Y-51866327D01*
X65174774Y-51988102D01*
X65135000Y-52188061D01*
X65135000Y-52322334D01*
X65109744Y-52332795D01*
X64940226Y-52446063D01*
X64796063Y-52590226D01*
X64682795Y-52759744D01*
X64604774Y-52948102D01*
X64565000Y-53148061D01*
X30660000Y-53148061D01*
X30660000Y-51123061D01*
X41590000Y-51123061D01*
X41590000Y-51326939D01*
X41629774Y-51526898D01*
X41707795Y-51715256D01*
X41821063Y-51884774D01*
X41965226Y-52028937D01*
X42134744Y-52142205D01*
X42323102Y-52220226D01*
X42523061Y-52260000D01*
X42726939Y-52260000D01*
X42926898Y-52220226D01*
X43115256Y-52142205D01*
X43284774Y-52028937D01*
X43428937Y-51884774D01*
X43542205Y-51715256D01*
X43570038Y-51648061D01*
X49515000Y-51648061D01*
X49515000Y-51851939D01*
X49554774Y-52051898D01*
X49632795Y-52240256D01*
X49746063Y-52409774D01*
X49890226Y-52553937D01*
X50059744Y-52667205D01*
X50248102Y-52745226D01*
X50448061Y-52785000D01*
X50651939Y-52785000D01*
X50851898Y-52745226D01*
X51040256Y-52667205D01*
X51209774Y-52553937D01*
X51353937Y-52409774D01*
X51467205Y-52240256D01*
X51545226Y-52051898D01*
X51585000Y-51851939D01*
X51585000Y-51648061D01*
X51545226Y-51448102D01*
X51467205Y-51259744D01*
X51353937Y-51090226D01*
X51209774Y-50946063D01*
X51040256Y-50832795D01*
X50851898Y-50754774D01*
X50651939Y-50715000D01*
X50448061Y-50715000D01*
X50248102Y-50754774D01*
X50059744Y-50832795D01*
X49890226Y-50946063D01*
X49746063Y-51090226D01*
X49632795Y-51259744D01*
X49554774Y-51448102D01*
X49515000Y-51648061D01*
X43570038Y-51648061D01*
X43620226Y-51526898D01*
X43660000Y-51326939D01*
X43660000Y-51123061D01*
X43620226Y-50923102D01*
X43542205Y-50734744D01*
X43428937Y-50565226D01*
X43284774Y-50421063D01*
X43115256Y-50307795D01*
X42926898Y-50229774D01*
X42726939Y-50190000D01*
X42523061Y-50190000D01*
X42323102Y-50229774D01*
X42134744Y-50307795D01*
X41965226Y-50421063D01*
X41821063Y-50565226D01*
X41707795Y-50734744D01*
X41629774Y-50923102D01*
X41590000Y-51123061D01*
X30660000Y-51123061D01*
X30660000Y-49348061D01*
X50965000Y-49348061D01*
X50965000Y-49551939D01*
X51004774Y-49751898D01*
X51082795Y-49940256D01*
X51196063Y-50109774D01*
X51340226Y-50253937D01*
X51509744Y-50367205D01*
X51698102Y-50445226D01*
X51898061Y-50485000D01*
X52101939Y-50485000D01*
X52301898Y-50445226D01*
X52490256Y-50367205D01*
X52659774Y-50253937D01*
X52763114Y-50150597D01*
X52836063Y-50259774D01*
X52980226Y-50403937D01*
X53149744Y-50517205D01*
X53338102Y-50595226D01*
X53538061Y-50635000D01*
X53741939Y-50635000D01*
X53941898Y-50595226D01*
X54130256Y-50517205D01*
X54299774Y-50403937D01*
X54443937Y-50259774D01*
X54557205Y-50090256D01*
X54574682Y-50048061D01*
X60965000Y-50048061D01*
X60965000Y-50251939D01*
X61004774Y-50451898D01*
X61082795Y-50640256D01*
X61196063Y-50809774D01*
X61340226Y-50953937D01*
X61509744Y-51067205D01*
X61698102Y-51145226D01*
X61898061Y-51185000D01*
X62101939Y-51185000D01*
X62301898Y-51145226D01*
X62490256Y-51067205D01*
X62659774Y-50953937D01*
X62803937Y-50809774D01*
X62917205Y-50640256D01*
X62995226Y-50451898D01*
X63035000Y-50251939D01*
X63035000Y-50048061D01*
X62995226Y-49848102D01*
X62917205Y-49659744D01*
X62803937Y-49490226D01*
X62659774Y-49346063D01*
X62490256Y-49232795D01*
X62301898Y-49154774D01*
X62101939Y-49115000D01*
X61898061Y-49115000D01*
X61698102Y-49154774D01*
X61509744Y-49232795D01*
X61340226Y-49346063D01*
X61196063Y-49490226D01*
X61082795Y-49659744D01*
X61004774Y-49848102D01*
X60965000Y-50048061D01*
X54574682Y-50048061D01*
X54635226Y-49901898D01*
X54675000Y-49701939D01*
X54675000Y-49498061D01*
X54635226Y-49298102D01*
X54557205Y-49109744D01*
X54549399Y-49098061D01*
X69215000Y-49098061D01*
X69215000Y-49301939D01*
X69254774Y-49501898D01*
X69332795Y-49690256D01*
X69446063Y-49859774D01*
X69590226Y-50003937D01*
X69759744Y-50117205D01*
X69948102Y-50195226D01*
X70148061Y-50235000D01*
X70351939Y-50235000D01*
X70551898Y-50195226D01*
X70740256Y-50117205D01*
X70909774Y-50003937D01*
X71053937Y-49859774D01*
X71167205Y-49690256D01*
X71245226Y-49501898D01*
X71285000Y-49301939D01*
X71285000Y-49098061D01*
X71245226Y-48898102D01*
X71167205Y-48709744D01*
X71053937Y-48540226D01*
X70909774Y-48396063D01*
X70740256Y-48282795D01*
X70551898Y-48204774D01*
X70351939Y-48165000D01*
X70148061Y-48165000D01*
X69948102Y-48204774D01*
X69759744Y-48282795D01*
X69590226Y-48396063D01*
X69446063Y-48540226D01*
X69332795Y-48709744D01*
X69254774Y-48898102D01*
X69215000Y-49098061D01*
X54549399Y-49098061D01*
X54443937Y-48940226D01*
X54299774Y-48796063D01*
X54130256Y-48682795D01*
X53941898Y-48604774D01*
X53741939Y-48565000D01*
X53538061Y-48565000D01*
X53338102Y-48604774D01*
X53149744Y-48682795D01*
X52980226Y-48796063D01*
X52876886Y-48899403D01*
X52803937Y-48790226D01*
X52659774Y-48646063D01*
X52490256Y-48532795D01*
X52301898Y-48454774D01*
X52101939Y-48415000D01*
X51898061Y-48415000D01*
X51698102Y-48454774D01*
X51509744Y-48532795D01*
X51340226Y-48646063D01*
X51196063Y-48790226D01*
X51082795Y-48959744D01*
X51004774Y-49148102D01*
X50965000Y-49348061D01*
X30660000Y-49348061D01*
X30660000Y-45708061D01*
X36015000Y-45708061D01*
X36015000Y-45911939D01*
X36054774Y-46111898D01*
X36132795Y-46300256D01*
X36246063Y-46469774D01*
X36390226Y-46613937D01*
X36559744Y-46727205D01*
X36748102Y-46805226D01*
X36948061Y-46845000D01*
X37151939Y-46845000D01*
X37351898Y-46805226D01*
X37540256Y-46727205D01*
X37709774Y-46613937D01*
X37853937Y-46469774D01*
X37967205Y-46300256D01*
X38045226Y-46111898D01*
X38057438Y-46050505D01*
X38210256Y-45987205D01*
X38379774Y-45873937D01*
X38523937Y-45729774D01*
X38637205Y-45560256D01*
X38715226Y-45371898D01*
X38745286Y-45220773D01*
X66925000Y-45220773D01*
X66925000Y-45424651D01*
X66964774Y-45624610D01*
X67042795Y-45812968D01*
X67156063Y-45982486D01*
X67300226Y-46126649D01*
X67469744Y-46239917D01*
X67658102Y-46317938D01*
X67858061Y-46357712D01*
X68061939Y-46357712D01*
X68261898Y-46317938D01*
X68450256Y-46239917D01*
X68619774Y-46126649D01*
X68763937Y-45982486D01*
X68877205Y-45812968D01*
X68955226Y-45624610D01*
X68995000Y-45424651D01*
X68995000Y-45237137D01*
X69063825Y-45283124D01*
X69252183Y-45361145D01*
X69452142Y-45400919D01*
X69656020Y-45400919D01*
X69855979Y-45361145D01*
X69979316Y-45310057D01*
X70064300Y-45345259D01*
X69935882Y-45431065D01*
X69791719Y-45575228D01*
X69678451Y-45744746D01*
X69600430Y-45933104D01*
X69560656Y-46133063D01*
X69560656Y-46336941D01*
X69600430Y-46536900D01*
X69678451Y-46725258D01*
X69791719Y-46894776D01*
X69935882Y-47038939D01*
X70105400Y-47152207D01*
X70293758Y-47230228D01*
X70493717Y-47270002D01*
X70697595Y-47270002D01*
X70897554Y-47230228D01*
X71085912Y-47152207D01*
X71255430Y-47038939D01*
X71399593Y-46894776D01*
X71512861Y-46725258D01*
X71590882Y-46536900D01*
X71613777Y-46421794D01*
X74840000Y-46421794D01*
X74840000Y-47238207D01*
X74857147Y-47412300D01*
X74924906Y-47635674D01*
X75034943Y-47841536D01*
X75183026Y-48021975D01*
X75363465Y-48170058D01*
X75569327Y-48280094D01*
X75792701Y-48347853D01*
X76025000Y-48370733D01*
X76257300Y-48347853D01*
X76480674Y-48280094D01*
X76686536Y-48170058D01*
X76866975Y-48021975D01*
X77015058Y-47841536D01*
X77125094Y-47635674D01*
X77192853Y-47412299D01*
X77210000Y-47238206D01*
X77210000Y-46421793D01*
X77192853Y-46247700D01*
X77125094Y-46024326D01*
X77015058Y-45818464D01*
X76866975Y-45638025D01*
X76686535Y-45489942D01*
X76480673Y-45379906D01*
X76257299Y-45312147D01*
X76025000Y-45289267D01*
X75792700Y-45312147D01*
X75569326Y-45379906D01*
X75363464Y-45489942D01*
X75183025Y-45638025D01*
X75034942Y-45818465D01*
X74924906Y-46024327D01*
X74857147Y-46247701D01*
X74840000Y-46421794D01*
X71613777Y-46421794D01*
X71630656Y-46336941D01*
X71630656Y-46133063D01*
X71590882Y-45933104D01*
X71512861Y-45744746D01*
X71399593Y-45575228D01*
X71255430Y-45431065D01*
X71092483Y-45322188D01*
X71148102Y-45345226D01*
X71348061Y-45385000D01*
X71551939Y-45385000D01*
X71751898Y-45345226D01*
X71940256Y-45267205D01*
X72109774Y-45153937D01*
X72253937Y-45009774D01*
X72367205Y-44840256D01*
X72445226Y-44651898D01*
X72485000Y-44451939D01*
X72485000Y-44248061D01*
X72445226Y-44048102D01*
X72367205Y-43859744D01*
X72253937Y-43690226D01*
X72109774Y-43546063D01*
X71940256Y-43432795D01*
X71751898Y-43354774D01*
X71551939Y-43315000D01*
X71348061Y-43315000D01*
X71148102Y-43354774D01*
X70959744Y-43432795D01*
X70920186Y-43459227D01*
X70752509Y-43389772D01*
X70552550Y-43349998D01*
X70348672Y-43349998D01*
X70148713Y-43389772D01*
X70025376Y-43440860D01*
X69855979Y-43370693D01*
X69656020Y-43330919D01*
X69452142Y-43330919D01*
X69252183Y-43370693D01*
X69063825Y-43448714D01*
X68894307Y-43561982D01*
X68750144Y-43706145D01*
X68636876Y-43875663D01*
X68558855Y-44064021D01*
X68519081Y-44263980D01*
X68519081Y-44451494D01*
X68450256Y-44405507D01*
X68261898Y-44327486D01*
X68061939Y-44287712D01*
X67858061Y-44287712D01*
X67658102Y-44327486D01*
X67469744Y-44405507D01*
X67300226Y-44518775D01*
X67156063Y-44662938D01*
X67042795Y-44832456D01*
X66964774Y-45020814D01*
X66925000Y-45220773D01*
X38745286Y-45220773D01*
X38755000Y-45171939D01*
X38755000Y-44968061D01*
X38715226Y-44768102D01*
X38659688Y-44634023D01*
X38783937Y-44509774D01*
X38897205Y-44340256D01*
X38975226Y-44151898D01*
X39015000Y-43951939D01*
X39015000Y-43748061D01*
X38975226Y-43548102D01*
X38897205Y-43359744D01*
X38783937Y-43190226D01*
X38639774Y-43046063D01*
X38470256Y-42932795D01*
X38281898Y-42854774D01*
X38081939Y-42815000D01*
X37878061Y-42815000D01*
X37678102Y-42854774D01*
X37489744Y-42932795D01*
X37320226Y-43046063D01*
X37176063Y-43190226D01*
X37062795Y-43359744D01*
X36984774Y-43548102D01*
X36945000Y-43748061D01*
X36945000Y-43951939D01*
X36984774Y-44151898D01*
X37040312Y-44285977D01*
X36916063Y-44410226D01*
X36802795Y-44579744D01*
X36724774Y-44768102D01*
X36712562Y-44829495D01*
X36559744Y-44892795D01*
X36390226Y-45006063D01*
X36246063Y-45150226D01*
X36132795Y-45319744D01*
X36054774Y-45508102D01*
X36015000Y-45708061D01*
X30660000Y-45708061D01*
X30660000Y-43698061D01*
X33190000Y-43698061D01*
X33190000Y-43901939D01*
X33229774Y-44101898D01*
X33307795Y-44290256D01*
X33421063Y-44459774D01*
X33565226Y-44603937D01*
X33734744Y-44717205D01*
X33923102Y-44795226D01*
X34026992Y-44815891D01*
X34057795Y-44890256D01*
X34171063Y-45059774D01*
X34315226Y-45203937D01*
X34484744Y-45317205D01*
X34673102Y-45395226D01*
X34873061Y-45435000D01*
X35076939Y-45435000D01*
X35276898Y-45395226D01*
X35465256Y-45317205D01*
X35634774Y-45203937D01*
X35778937Y-45059774D01*
X35892205Y-44890256D01*
X35970226Y-44701898D01*
X36010000Y-44501939D01*
X36010000Y-44298061D01*
X35970226Y-44098102D01*
X35892205Y-43909744D01*
X35778937Y-43740226D01*
X35634774Y-43596063D01*
X35465256Y-43482795D01*
X35276898Y-43404774D01*
X35173008Y-43384109D01*
X35142205Y-43309744D01*
X35028937Y-43140226D01*
X34884774Y-42996063D01*
X34715256Y-42882795D01*
X34526898Y-42804774D01*
X34326939Y-42765000D01*
X34123061Y-42765000D01*
X33923102Y-42804774D01*
X33734744Y-42882795D01*
X33565226Y-42996063D01*
X33421063Y-43140226D01*
X33307795Y-43309744D01*
X33229774Y-43498102D01*
X33190000Y-43698061D01*
X30660000Y-43698061D01*
X30660000Y-41828061D01*
X48645000Y-41828061D01*
X48645000Y-42031939D01*
X48684774Y-42231898D01*
X48762795Y-42420256D01*
X48876063Y-42589774D01*
X49020226Y-42733937D01*
X49189744Y-42847205D01*
X49378102Y-42925226D01*
X49578061Y-42965000D01*
X49781939Y-42965000D01*
X49981898Y-42925226D01*
X50170256Y-42847205D01*
X50339774Y-42733937D01*
X50483937Y-42589774D01*
X50597205Y-42420256D01*
X50675226Y-42231898D01*
X50715000Y-42031939D01*
X50715000Y-41828061D01*
X50689142Y-41698061D01*
X70815000Y-41698061D01*
X70815000Y-41901939D01*
X70854774Y-42101898D01*
X70932795Y-42290256D01*
X71046063Y-42459774D01*
X71190226Y-42603937D01*
X71359744Y-42717205D01*
X71548102Y-42795226D01*
X71748061Y-42835000D01*
X71951939Y-42835000D01*
X72151898Y-42795226D01*
X72340256Y-42717205D01*
X72481152Y-42623061D01*
X73265000Y-42623061D01*
X73265000Y-42826939D01*
X73304774Y-43026898D01*
X73382795Y-43215256D01*
X73496063Y-43384774D01*
X73640226Y-43528937D01*
X73809744Y-43642205D01*
X73998102Y-43720226D01*
X74198061Y-43760000D01*
X74401939Y-43760000D01*
X74601898Y-43720226D01*
X74790256Y-43642205D01*
X74959774Y-43528937D01*
X75103937Y-43384774D01*
X75217205Y-43215256D01*
X75295226Y-43026898D01*
X75335000Y-42826939D01*
X75335000Y-42623061D01*
X75316847Y-42531800D01*
X75363465Y-42570058D01*
X75569327Y-42680094D01*
X75792701Y-42747853D01*
X76025000Y-42770733D01*
X76257300Y-42747853D01*
X76480674Y-42680094D01*
X76686536Y-42570058D01*
X76866975Y-42421975D01*
X77015058Y-42241536D01*
X77125094Y-42035674D01*
X77192853Y-41812299D01*
X77210000Y-41638206D01*
X77210000Y-40821793D01*
X77192853Y-40647700D01*
X77125094Y-40424326D01*
X77015058Y-40218464D01*
X76866975Y-40038025D01*
X76686535Y-39889942D01*
X76480673Y-39779906D01*
X76257299Y-39712147D01*
X76025000Y-39689267D01*
X75792700Y-39712147D01*
X75569326Y-39779906D01*
X75363464Y-39889942D01*
X75183025Y-40038025D01*
X75034942Y-40218465D01*
X74924906Y-40424327D01*
X74857147Y-40647701D01*
X74840000Y-40821794D01*
X74840000Y-41638207D01*
X74857147Y-41812300D01*
X74872438Y-41862707D01*
X74790256Y-41807795D01*
X74601898Y-41729774D01*
X74401939Y-41690000D01*
X74198061Y-41690000D01*
X73998102Y-41729774D01*
X73809744Y-41807795D01*
X73640226Y-41921063D01*
X73496063Y-42065226D01*
X73382795Y-42234744D01*
X73304774Y-42423102D01*
X73265000Y-42623061D01*
X72481152Y-42623061D01*
X72509774Y-42603937D01*
X72653937Y-42459774D01*
X72767205Y-42290256D01*
X72845226Y-42101898D01*
X72885000Y-41901939D01*
X72885000Y-41698061D01*
X72845226Y-41498102D01*
X72767205Y-41309744D01*
X72653937Y-41140226D01*
X72509774Y-40996063D01*
X72340256Y-40882795D01*
X72151898Y-40804774D01*
X71951939Y-40765000D01*
X71748061Y-40765000D01*
X71548102Y-40804774D01*
X71359744Y-40882795D01*
X71190226Y-40996063D01*
X71046063Y-41140226D01*
X70932795Y-41309744D01*
X70854774Y-41498102D01*
X70815000Y-41698061D01*
X50689142Y-41698061D01*
X50675226Y-41628102D01*
X50597205Y-41439744D01*
X50483937Y-41270226D01*
X50339774Y-41126063D01*
X50170256Y-41012795D01*
X49981898Y-40934774D01*
X49781939Y-40895000D01*
X49578061Y-40895000D01*
X49378102Y-40934774D01*
X49189744Y-41012795D01*
X49020226Y-41126063D01*
X48876063Y-41270226D01*
X48762795Y-41439744D01*
X48684774Y-41628102D01*
X48645000Y-41828061D01*
X30660000Y-41828061D01*
X30660000Y-37398061D01*
X35015000Y-37398061D01*
X35015000Y-37601939D01*
X35054774Y-37801898D01*
X35132795Y-37990256D01*
X35246063Y-38159774D01*
X35390226Y-38303937D01*
X35559744Y-38417205D01*
X35748102Y-38495226D01*
X35770257Y-38499633D01*
X35807795Y-38590256D01*
X35921063Y-38759774D01*
X36065226Y-38903937D01*
X36234744Y-39017205D01*
X36423102Y-39095226D01*
X36623061Y-39135000D01*
X36701289Y-39135000D01*
X36596063Y-39240226D01*
X36482795Y-39409744D01*
X36404774Y-39598102D01*
X36365000Y-39798061D01*
X36365000Y-40001939D01*
X36404774Y-40201898D01*
X36482795Y-40390256D01*
X36596063Y-40559774D01*
X36740226Y-40703937D01*
X36909744Y-40817205D01*
X37098102Y-40895226D01*
X37298061Y-40935000D01*
X37501939Y-40935000D01*
X37701898Y-40895226D01*
X37890256Y-40817205D01*
X38059774Y-40703937D01*
X38203937Y-40559774D01*
X38317205Y-40390256D01*
X38395226Y-40201898D01*
X38435000Y-40001939D01*
X38435000Y-39798061D01*
X38395226Y-39598102D01*
X38317205Y-39409744D01*
X38203937Y-39240226D01*
X38059774Y-39096063D01*
X37890256Y-38982795D01*
X37701898Y-38904774D01*
X37501939Y-38865000D01*
X37423711Y-38865000D01*
X37528937Y-38759774D01*
X37642205Y-38590256D01*
X37720226Y-38401898D01*
X37760000Y-38201939D01*
X37760000Y-38176306D01*
X37830256Y-38147205D01*
X37999774Y-38033937D01*
X38143937Y-37889774D01*
X38257205Y-37720256D01*
X38335226Y-37531898D01*
X38375000Y-37331939D01*
X38375000Y-37128061D01*
X38339455Y-36949364D01*
X38418061Y-36965000D01*
X38621939Y-36965000D01*
X38821898Y-36925226D01*
X39010256Y-36847205D01*
X39179774Y-36733937D01*
X39323937Y-36589774D01*
X39401921Y-36473061D01*
X51805000Y-36473061D01*
X51805000Y-36676939D01*
X51844774Y-36876898D01*
X51922795Y-37065256D01*
X52036063Y-37234774D01*
X52180226Y-37378937D01*
X52349744Y-37492205D01*
X52538102Y-37570226D01*
X52738061Y-37610000D01*
X52941939Y-37610000D01*
X53141898Y-37570226D01*
X53330256Y-37492205D01*
X53499774Y-37378937D01*
X53643937Y-37234774D01*
X53757205Y-37065256D01*
X53835226Y-36876898D01*
X53875000Y-36676939D01*
X53875000Y-36473061D01*
X53844169Y-36318061D01*
X54035000Y-36318061D01*
X54035000Y-36521939D01*
X54074774Y-36721898D01*
X54152795Y-36910256D01*
X54266063Y-37079774D01*
X54410226Y-37223937D01*
X54579744Y-37337205D01*
X54768102Y-37415226D01*
X54968061Y-37455000D01*
X55171939Y-37455000D01*
X55307371Y-37428061D01*
X58425000Y-37428061D01*
X58425000Y-37631939D01*
X58464774Y-37831898D01*
X58542795Y-38020256D01*
X58656063Y-38189774D01*
X58800226Y-38333937D01*
X58969744Y-38447205D01*
X59158102Y-38525226D01*
X59358061Y-38565000D01*
X59561939Y-38565000D01*
X59761898Y-38525226D01*
X59827503Y-38498051D01*
X71656929Y-38498051D01*
X71656929Y-38701929D01*
X71696703Y-38901888D01*
X71774724Y-39090246D01*
X71887992Y-39259764D01*
X72032155Y-39403927D01*
X72201673Y-39517195D01*
X72390031Y-39595216D01*
X72589990Y-39634990D01*
X72793868Y-39634990D01*
X72993827Y-39595216D01*
X73182185Y-39517195D01*
X73351703Y-39403927D01*
X73495866Y-39259764D01*
X73609134Y-39090246D01*
X73687155Y-38901888D01*
X73726929Y-38701929D01*
X73726929Y-38498051D01*
X73687155Y-38298092D01*
X73609134Y-38109734D01*
X73495866Y-37940216D01*
X73351703Y-37796053D01*
X73182185Y-37682785D01*
X72993827Y-37604764D01*
X72793868Y-37564990D01*
X72589990Y-37564990D01*
X72390031Y-37604764D01*
X72201673Y-37682785D01*
X72032155Y-37796053D01*
X71887992Y-37940216D01*
X71774724Y-38109734D01*
X71696703Y-38298092D01*
X71656929Y-38498051D01*
X59827503Y-38498051D01*
X59950256Y-38447205D01*
X60119774Y-38333937D01*
X60263937Y-38189774D01*
X60377205Y-38020256D01*
X60455226Y-37831898D01*
X60495000Y-37631939D01*
X60495000Y-37428061D01*
X60455226Y-37228102D01*
X60377205Y-37039744D01*
X60263937Y-36870226D01*
X60119774Y-36726063D01*
X59950256Y-36612795D01*
X59761898Y-36534774D01*
X59561939Y-36495000D01*
X59358061Y-36495000D01*
X59158102Y-36534774D01*
X58969744Y-36612795D01*
X58800226Y-36726063D01*
X58656063Y-36870226D01*
X58542795Y-37039744D01*
X58464774Y-37228102D01*
X58425000Y-37428061D01*
X55307371Y-37428061D01*
X55371898Y-37415226D01*
X55560256Y-37337205D01*
X55729774Y-37223937D01*
X55873937Y-37079774D01*
X55987205Y-36910256D01*
X56065226Y-36721898D01*
X56105000Y-36521939D01*
X56105000Y-36318061D01*
X56065226Y-36118102D01*
X55987205Y-35929744D01*
X55873937Y-35760226D01*
X55729774Y-35616063D01*
X55560256Y-35502795D01*
X55371898Y-35424774D01*
X55171939Y-35385000D01*
X54968061Y-35385000D01*
X54768102Y-35424774D01*
X54579744Y-35502795D01*
X54410226Y-35616063D01*
X54266063Y-35760226D01*
X54152795Y-35929744D01*
X54074774Y-36118102D01*
X54035000Y-36318061D01*
X53844169Y-36318061D01*
X53835226Y-36273102D01*
X53757205Y-36084744D01*
X53643937Y-35915226D01*
X53499774Y-35771063D01*
X53330256Y-35657795D01*
X53141898Y-35579774D01*
X52941939Y-35540000D01*
X52738061Y-35540000D01*
X52538102Y-35579774D01*
X52349744Y-35657795D01*
X52180226Y-35771063D01*
X52036063Y-35915226D01*
X51922795Y-36084744D01*
X51844774Y-36273102D01*
X51805000Y-36473061D01*
X39401921Y-36473061D01*
X39437205Y-36420256D01*
X39515226Y-36231898D01*
X39555000Y-36031939D01*
X39555000Y-35828061D01*
X39515226Y-35628102D01*
X39437205Y-35439744D01*
X39323937Y-35270226D01*
X39179774Y-35126063D01*
X39010256Y-35012795D01*
X38821898Y-34934774D01*
X38621939Y-34895000D01*
X38418061Y-34895000D01*
X38218102Y-34934774D01*
X38029744Y-35012795D01*
X37860226Y-35126063D01*
X37716063Y-35270226D01*
X37602795Y-35439744D01*
X37524774Y-35628102D01*
X37485000Y-35828061D01*
X37485000Y-36031939D01*
X37520545Y-36210636D01*
X37441939Y-36195000D01*
X37238061Y-36195000D01*
X37038102Y-36234774D01*
X36849744Y-36312795D01*
X36680226Y-36426063D01*
X36536063Y-36570226D01*
X36530394Y-36578710D01*
X36351898Y-36504774D01*
X36151939Y-36465000D01*
X35948061Y-36465000D01*
X35748102Y-36504774D01*
X35559744Y-36582795D01*
X35390226Y-36696063D01*
X35246063Y-36840226D01*
X35132795Y-37009744D01*
X35054774Y-37198102D01*
X35015000Y-37398061D01*
X30660000Y-37398061D01*
X30660000Y-34428061D01*
X42095000Y-34428061D01*
X42095000Y-34631939D01*
X42134774Y-34831898D01*
X42212795Y-35020256D01*
X42326063Y-35189774D01*
X42470226Y-35333937D01*
X42639744Y-35447205D01*
X42828102Y-35525226D01*
X43028061Y-35565000D01*
X43231939Y-35565000D01*
X43431898Y-35525226D01*
X43620256Y-35447205D01*
X43789774Y-35333937D01*
X43933937Y-35189774D01*
X44047205Y-35020256D01*
X44125226Y-34831898D01*
X44165000Y-34631939D01*
X44165000Y-34428061D01*
X44125226Y-34228102D01*
X44054793Y-34058061D01*
X71315000Y-34058061D01*
X71315000Y-34261939D01*
X71354774Y-34461898D01*
X71432795Y-34650256D01*
X71537850Y-34807483D01*
X71442795Y-34949744D01*
X71364774Y-35138102D01*
X71325000Y-35338061D01*
X71325000Y-35541939D01*
X71364774Y-35741898D01*
X71442795Y-35930256D01*
X71556063Y-36099774D01*
X71700226Y-36243937D01*
X71869744Y-36357205D01*
X72058102Y-36435226D01*
X72258061Y-36475000D01*
X72461939Y-36475000D01*
X72661898Y-36435226D01*
X72850256Y-36357205D01*
X73019774Y-36243937D01*
X73163937Y-36099774D01*
X73277205Y-35930256D01*
X73355226Y-35741898D01*
X73395000Y-35541939D01*
X73395000Y-35338061D01*
X73355226Y-35138102D01*
X73277205Y-34949744D01*
X73172150Y-34792517D01*
X73267205Y-34650256D01*
X73326104Y-34508061D01*
X74865000Y-34508061D01*
X74865000Y-34711939D01*
X74904774Y-34911898D01*
X74982795Y-35100256D01*
X75096063Y-35269774D01*
X75240226Y-35413937D01*
X75409744Y-35527205D01*
X75598102Y-35605226D01*
X75798061Y-35645000D01*
X76001939Y-35645000D01*
X76201898Y-35605226D01*
X76390256Y-35527205D01*
X76559774Y-35413937D01*
X76703937Y-35269774D01*
X76817205Y-35100256D01*
X76895226Y-34911898D01*
X76935000Y-34711939D01*
X76935000Y-34508061D01*
X76895226Y-34308102D01*
X76817205Y-34119744D01*
X76703937Y-33950226D01*
X76559774Y-33806063D01*
X76390256Y-33692795D01*
X76201898Y-33614774D01*
X76001939Y-33575000D01*
X75798061Y-33575000D01*
X75598102Y-33614774D01*
X75409744Y-33692795D01*
X75240226Y-33806063D01*
X75096063Y-33950226D01*
X74982795Y-34119744D01*
X74904774Y-34308102D01*
X74865000Y-34508061D01*
X73326104Y-34508061D01*
X73345226Y-34461898D01*
X73385000Y-34261939D01*
X73385000Y-34058061D01*
X73345226Y-33858102D01*
X73267205Y-33669744D01*
X73153937Y-33500226D01*
X73009774Y-33356063D01*
X72840256Y-33242795D01*
X72651898Y-33164774D01*
X72451939Y-33125000D01*
X72248061Y-33125000D01*
X72048102Y-33164774D01*
X71859744Y-33242795D01*
X71690226Y-33356063D01*
X71546063Y-33500226D01*
X71432795Y-33669744D01*
X71354774Y-33858102D01*
X71315000Y-34058061D01*
X44054793Y-34058061D01*
X44047205Y-34039744D01*
X43933937Y-33870226D01*
X43789774Y-33726063D01*
X43620256Y-33612795D01*
X43431898Y-33534774D01*
X43231939Y-33495000D01*
X43028061Y-33495000D01*
X42828102Y-33534774D01*
X42639744Y-33612795D01*
X42470226Y-33726063D01*
X42326063Y-33870226D01*
X42212795Y-34039744D01*
X42134774Y-34228102D01*
X42095000Y-34428061D01*
X30660000Y-34428061D01*
X30660000Y-31538061D01*
X71325000Y-31538061D01*
X71325000Y-31741939D01*
X71364774Y-31941898D01*
X71442795Y-32130256D01*
X71556063Y-32299774D01*
X71700226Y-32443937D01*
X71869744Y-32557205D01*
X72058102Y-32635226D01*
X72258061Y-32675000D01*
X72461939Y-32675000D01*
X72661898Y-32635226D01*
X72850256Y-32557205D01*
X73019774Y-32443937D01*
X73163937Y-32299774D01*
X73277205Y-32130256D01*
X73355226Y-31941898D01*
X73395000Y-31741939D01*
X73395000Y-31538061D01*
X73355226Y-31338102D01*
X73277205Y-31149744D01*
X73163937Y-30980226D01*
X73019774Y-30836063D01*
X72850256Y-30722795D01*
X72661898Y-30644774D01*
X72461939Y-30605000D01*
X72258061Y-30605000D01*
X72058102Y-30644774D01*
X71869744Y-30722795D01*
X71700226Y-30836063D01*
X71556063Y-30980226D01*
X71442795Y-31149744D01*
X71364774Y-31338102D01*
X71325000Y-31538061D01*
X30660000Y-31538061D01*
X30660000Y-27387496D01*
X31166735Y-28145879D01*
X31854121Y-28833265D01*
X32662401Y-29373340D01*
X33560514Y-29745350D01*
X34513945Y-29935000D01*
X35486055Y-29935000D01*
X36439486Y-29745350D01*
X37337599Y-29373340D01*
X38145879Y-28833265D01*
X38833265Y-28145879D01*
X39373340Y-27337599D01*
X39745350Y-26439486D01*
X39935000Y-25486055D01*
X39935000Y-25348061D01*
X43335000Y-25348061D01*
X43335000Y-25551939D01*
X43374774Y-25751898D01*
X43452795Y-25940256D01*
X43566063Y-26109774D01*
X43710226Y-26253937D01*
X43879744Y-26367205D01*
X44068102Y-26445226D01*
X44268061Y-26485000D01*
X44471939Y-26485000D01*
X44671898Y-26445226D01*
X44860256Y-26367205D01*
X45029774Y-26253937D01*
X45173937Y-26109774D01*
X45287205Y-25940256D01*
X45365226Y-25751898D01*
X45405000Y-25551939D01*
X45405000Y-25348061D01*
X45365226Y-25148102D01*
X45287205Y-24959744D01*
X45173937Y-24790226D01*
X45029774Y-24646063D01*
X44860256Y-24532795D01*
X44671898Y-24454774D01*
X44471939Y-24415000D01*
X44268061Y-24415000D01*
X44068102Y-24454774D01*
X43879744Y-24532795D01*
X43710226Y-24646063D01*
X43566063Y-24790226D01*
X43452795Y-24959744D01*
X43374774Y-25148102D01*
X43335000Y-25348061D01*
X39935000Y-25348061D01*
X39935000Y-24513945D01*
X39818460Y-23928061D01*
X52815000Y-23928061D01*
X52815000Y-24131939D01*
X52854774Y-24331898D01*
X52918820Y-24486516D01*
X52889159Y-24542007D01*
X52829976Y-24737105D01*
X52815000Y-24889162D01*
X52815000Y-25490837D01*
X52829976Y-25642894D01*
X52889159Y-25837992D01*
X52985266Y-26017797D01*
X53114604Y-26175396D01*
X53272203Y-26304734D01*
X53452007Y-26400841D01*
X53647105Y-26460024D01*
X53850000Y-26480007D01*
X54052894Y-26460024D01*
X54247992Y-26400841D01*
X54427797Y-26304734D01*
X54475000Y-26265996D01*
X54522203Y-26304734D01*
X54702007Y-26400841D01*
X54897105Y-26460024D01*
X55100000Y-26480007D01*
X55302894Y-26460024D01*
X55497992Y-26400841D01*
X55677797Y-26304734D01*
X55725000Y-26265996D01*
X55772203Y-26304734D01*
X55952007Y-26400841D01*
X56147105Y-26460024D01*
X56350000Y-26480007D01*
X56552894Y-26460024D01*
X56747992Y-26400841D01*
X56829406Y-26357324D01*
X56845506Y-26370537D01*
X56955820Y-26429502D01*
X57075518Y-26465812D01*
X57200000Y-26478072D01*
X57314250Y-26475000D01*
X57473000Y-26316250D01*
X57473000Y-25317000D01*
X57727000Y-25317000D01*
X57727000Y-26316250D01*
X57885750Y-26475000D01*
X58000000Y-26478072D01*
X58124482Y-26465812D01*
X58244180Y-26429502D01*
X58354494Y-26370537D01*
X58451185Y-26291185D01*
X58530537Y-26194494D01*
X58589502Y-26084180D01*
X58625812Y-25964482D01*
X58638072Y-25840000D01*
X58635000Y-25475750D01*
X58476250Y-25317000D01*
X57727000Y-25317000D01*
X57473000Y-25317000D01*
X57453000Y-25317000D01*
X57453000Y-25063000D01*
X57473000Y-25063000D01*
X57473000Y-24063750D01*
X57727000Y-24063750D01*
X57727000Y-25063000D01*
X58476250Y-25063000D01*
X58635000Y-24904250D01*
X58638072Y-24540000D01*
X58625812Y-24415518D01*
X58589502Y-24295820D01*
X58530537Y-24185506D01*
X58451185Y-24088815D01*
X58354494Y-24009463D01*
X58244180Y-23950498D01*
X58124482Y-23914188D01*
X58000000Y-23901928D01*
X57885750Y-23905000D01*
X57727000Y-24063750D01*
X57473000Y-24063750D01*
X57314250Y-23905000D01*
X57200000Y-23901928D01*
X57075518Y-23914188D01*
X56955820Y-23950498D01*
X56845506Y-24009463D01*
X56829407Y-24022675D01*
X56747993Y-23979159D01*
X56552895Y-23919976D01*
X56350000Y-23899993D01*
X56147106Y-23919976D01*
X55952008Y-23979159D01*
X55772204Y-24075266D01*
X55725001Y-24114005D01*
X55677797Y-24075266D01*
X55497993Y-23979159D01*
X55302895Y-23919976D01*
X55100000Y-23899993D01*
X54897106Y-23919976D01*
X54884172Y-23923899D01*
X54845226Y-23728102D01*
X54767205Y-23539744D01*
X54653937Y-23370226D01*
X54509774Y-23226063D01*
X54340256Y-23112795D01*
X54151898Y-23034774D01*
X53951939Y-22995000D01*
X53748061Y-22995000D01*
X53548102Y-23034774D01*
X53359744Y-23112795D01*
X53190226Y-23226063D01*
X53046063Y-23370226D01*
X52932795Y-23539744D01*
X52854774Y-23728102D01*
X52815000Y-23928061D01*
X39818460Y-23928061D01*
X39745350Y-23560514D01*
X39373340Y-22662401D01*
X39193424Y-22393137D01*
X44015000Y-22393137D01*
X44015000Y-22606863D01*
X44056696Y-22816483D01*
X44138485Y-23013940D01*
X44257225Y-23191647D01*
X44408353Y-23342775D01*
X44586060Y-23461515D01*
X44783517Y-23543304D01*
X44993137Y-23585000D01*
X45206863Y-23585000D01*
X45416483Y-23543304D01*
X45613940Y-23461515D01*
X45791647Y-23342775D01*
X45942775Y-23191647D01*
X46061515Y-23013940D01*
X46143304Y-22816483D01*
X46185000Y-22606863D01*
X46185000Y-22393137D01*
X47015000Y-22393137D01*
X47015000Y-22606863D01*
X47056696Y-22816483D01*
X47138485Y-23013940D01*
X47257225Y-23191647D01*
X47408353Y-23342775D01*
X47586060Y-23461515D01*
X47783517Y-23543304D01*
X47993137Y-23585000D01*
X48206863Y-23585000D01*
X48416483Y-23543304D01*
X48613940Y-23461515D01*
X48791647Y-23342775D01*
X48942775Y-23191647D01*
X49061515Y-23013940D01*
X49143304Y-22816483D01*
X49185000Y-22606863D01*
X49185000Y-22393137D01*
X49143304Y-22183517D01*
X49061515Y-21986060D01*
X48942775Y-21808353D01*
X48791647Y-21657225D01*
X48613940Y-21538485D01*
X48416483Y-21456696D01*
X48206863Y-21415000D01*
X47993137Y-21415000D01*
X47783517Y-21456696D01*
X47586060Y-21538485D01*
X47408353Y-21657225D01*
X47257225Y-21808353D01*
X47138485Y-21986060D01*
X47056696Y-22183517D01*
X47015000Y-22393137D01*
X46185000Y-22393137D01*
X46143304Y-22183517D01*
X46061515Y-21986060D01*
X45942775Y-21808353D01*
X45791647Y-21657225D01*
X45613940Y-21538485D01*
X45416483Y-21456696D01*
X45206863Y-21415000D01*
X44993137Y-21415000D01*
X44783517Y-21456696D01*
X44586060Y-21538485D01*
X44408353Y-21657225D01*
X44257225Y-21808353D01*
X44138485Y-21986060D01*
X44056696Y-22183517D01*
X44015000Y-22393137D01*
X39193424Y-22393137D01*
X38833265Y-21854121D01*
X38145879Y-21166735D01*
X37387496Y-20660000D01*
X72864754Y-20660000D01*
X72462401Y-20826660D01*
G37*
%TD.AperFunction*%
%TD*%
M02*
