%TF.GenerationSoftware,KiCad,Pcbnew,(5.1.10-1-10_14)*%
%TF.CreationDate,2022-04-25T19:01:15+02:00*%
%TF.ProjectId,STM32_USB_BuckConvertor,53544d33-325f-4555-9342-5f4275636b43,rev?*%
%TF.SameCoordinates,Original*%
%TF.FileFunction,Copper,L2,Inr*%
%TF.FilePolarity,Positive*%
%FSLAX46Y46*%
G04 Gerber Fmt 4.6, Leading zero omitted, Abs format (unit mm)*
G04 Created by KiCad (PCBNEW (5.1.10-1-10_14)) date 2022-04-25 19:01:15*
%MOMM*%
%LPD*%
G01*
G04 APERTURE LIST*
%TA.AperFunction,ComponentPad*%
%ADD10C,0.900000*%
%TD*%
%TA.AperFunction,ComponentPad*%
%ADD11C,8.600000*%
%TD*%
%TA.AperFunction,ComponentPad*%
%ADD12C,2.400000*%
%TD*%
%TA.AperFunction,ComponentPad*%
%ADD13R,2.400000X2.400000*%
%TD*%
%TA.AperFunction,ComponentPad*%
%ADD14O,0.800000X1.300000*%
%TD*%
%TA.AperFunction,ComponentPad*%
%ADD15O,1.100000X2.200000*%
%TD*%
%TA.AperFunction,ComponentPad*%
%ADD16O,1.100000X1.800000*%
%TD*%
%TA.AperFunction,ViaPad*%
%ADD17C,0.800000*%
%TD*%
%TA.AperFunction,Conductor*%
%ADD18C,0.254000*%
%TD*%
%TA.AperFunction,Conductor*%
%ADD19C,0.100000*%
%TD*%
G04 APERTURE END LIST*
D10*
%TO.N,GND*%
%TO.C,H1*%
X77080419Y-62519581D03*
X74800000Y-61575000D03*
X72519581Y-62519581D03*
X71575000Y-64800000D03*
X72519581Y-67080419D03*
X74800000Y-68025000D03*
X77080419Y-67080419D03*
X78025000Y-64800000D03*
D11*
X74800000Y-64800000D03*
%TD*%
D10*
%TO.N,GND*%
%TO.C,H2*%
X37280419Y-62719581D03*
X35000000Y-61775000D03*
X32719581Y-62719581D03*
X31775000Y-65000000D03*
X32719581Y-67280419D03*
X35000000Y-68225000D03*
X37280419Y-67280419D03*
X38225000Y-65000000D03*
D11*
X35000000Y-65000000D03*
%TD*%
D10*
%TO.N,GND*%
%TO.C,H3*%
X77080419Y-22919581D03*
X74800000Y-21975000D03*
X72519581Y-22919581D03*
X71575000Y-25200000D03*
X72519581Y-27480419D03*
X74800000Y-28425000D03*
X77080419Y-27480419D03*
X78025000Y-25200000D03*
D11*
X74800000Y-25200000D03*
%TD*%
D10*
%TO.N,GND*%
%TO.C,H4*%
X37280419Y-22719581D03*
X35000000Y-21775000D03*
X32719581Y-22719581D03*
X31775000Y-25000000D03*
X32719581Y-27280419D03*
X35000000Y-28225000D03*
X37280419Y-27280419D03*
X38225000Y-25000000D03*
D11*
X35000000Y-25000000D03*
%TD*%
D12*
%TO.N,GND*%
%TO.C,J1*%
X58750000Y-64950000D03*
D13*
%TO.N,+12V*%
X55250000Y-64950000D03*
%TD*%
D14*
%TO.N,GND*%
%TO.C,J2*%
X53850000Y-25190000D03*
%TO.N,I2C_SDA*%
X55100000Y-25190000D03*
%TO.N,I2C_SCL*%
X56350000Y-25190000D03*
%TO.N,+3V3*%
%TA.AperFunction,ComponentPad*%
G36*
G01*
X58000000Y-24740000D02*
X58000000Y-25640000D01*
G75*
G02*
X57800000Y-25840000I-200000J0D01*
G01*
X57400000Y-25840000D01*
G75*
G02*
X57200000Y-25640000I0J200000D01*
G01*
X57200000Y-24740000D01*
G75*
G02*
X57400000Y-24540000I200000J0D01*
G01*
X57800000Y-24540000D01*
G75*
G02*
X58000000Y-24740000I0J-200000D01*
G01*
G37*
%TD.AperFunction*%
%TD*%
%TO.N,GND*%
%TO.C,J3*%
X46125000Y-64625000D03*
%TO.N,USART3_RX*%
X44875000Y-64625000D03*
%TO.N,USART3_TX*%
X43625000Y-64625000D03*
%TO.N,+3V3*%
%TA.AperFunction,ComponentPad*%
G36*
G01*
X41975000Y-65075000D02*
X41975000Y-64175000D01*
G75*
G02*
X42175000Y-63975000I200000J0D01*
G01*
X42575000Y-63975000D01*
G75*
G02*
X42775000Y-64175000I0J-200000D01*
G01*
X42775000Y-65075000D01*
G75*
G02*
X42575000Y-65275000I-200000J0D01*
G01*
X42175000Y-65275000D01*
G75*
G02*
X41975000Y-65075000I0J200000D01*
G01*
G37*
%TD.AperFunction*%
%TD*%
D15*
%TO.N,Net-(J5-Pad6)*%
%TO.C,J5*%
X78175000Y-44030000D03*
D16*
X76025000Y-41230000D03*
X76025000Y-46830000D03*
%TD*%
D17*
%TO.N,GND*%
X74300000Y-42725000D03*
X53640000Y-49600000D03*
X52000000Y-49450000D03*
X50550000Y-51750000D03*
X42625000Y-51225000D03*
X37050000Y-45810000D03*
X37720000Y-45070000D03*
X37980000Y-43850000D03*
X37340000Y-37230000D03*
X38520000Y-35930000D03*
X43130000Y-34530000D03*
X52840000Y-36575000D03*
X55070000Y-36420000D03*
X72360000Y-31640000D03*
X72350000Y-34160000D03*
X72360000Y-35440000D03*
X71300000Y-57350000D03*
X65600000Y-53250000D03*
X66170000Y-52290000D03*
X70250000Y-49200000D03*
X61270000Y-54340000D03*
X59310000Y-55500000D03*
X52900000Y-59550000D03*
X46950000Y-63670000D03*
X53850000Y-24030000D03*
X44370000Y-25450000D03*
X34975000Y-44400000D03*
X34225000Y-43800000D03*
X37400000Y-39900000D03*
X36050000Y-37500000D03*
X36725000Y-38100000D03*
X71250000Y-56475000D03*
X66125000Y-51350000D03*
X68150000Y-53275000D03*
X71850000Y-41800000D03*
X71450000Y-44350000D03*
X63950000Y-54675000D03*
X62000000Y-50150000D03*
X59175000Y-62550000D03*
X60425000Y-63200000D03*
%TO.N,+3V3*%
X40210000Y-35380000D03*
X42130000Y-34540000D03*
X63425000Y-50175000D03*
X57600000Y-23825000D03*
X48930000Y-25460000D03*
X71310000Y-50590000D03*
X71440000Y-53970000D03*
X77070000Y-52850000D03*
X76400000Y-51630000D03*
X74290000Y-54620000D03*
X75930000Y-54730000D03*
X65350000Y-49450000D03*
X51860000Y-37060000D03*
X37710000Y-47650000D03*
X37000000Y-47020000D03*
X43620000Y-50750000D03*
X51800000Y-48460000D03*
X72360000Y-36750000D03*
X71400000Y-54830000D03*
X70430000Y-50570000D03*
X75390000Y-51630000D03*
X41060000Y-36830000D03*
X45310000Y-33330000D03*
X49020000Y-34110000D03*
X42350000Y-63350000D03*
%TO.N,+5V*%
X67960000Y-45322712D03*
X69554081Y-44365919D03*
X70595656Y-46235002D03*
X70450611Y-44384998D03*
%TO.N,SWO*%
X72691929Y-38599990D03*
X75900000Y-34610000D03*
%TO.N,NRST*%
X49680000Y-41930000D03*
X59460000Y-37530000D03*
%TD*%
D18*
%TO.N,GND*%
X72101560Y-21039606D02*
X71988946Y-21114851D01*
X71496787Y-21717182D01*
X74800000Y-25020395D01*
X74814143Y-25006253D01*
X74993748Y-25185858D01*
X74979605Y-25200000D01*
X78282818Y-28503213D01*
X78885149Y-28011054D01*
X79340000Y-27187345D01*
X79340000Y-43238296D01*
X79275094Y-43024326D01*
X79165058Y-42818464D01*
X79016975Y-42638025D01*
X78836535Y-42489942D01*
X78630673Y-42379906D01*
X78407299Y-42312147D01*
X78175000Y-42289267D01*
X77942700Y-42312147D01*
X77719326Y-42379906D01*
X77513464Y-42489942D01*
X77333025Y-42638025D01*
X77184942Y-42818465D01*
X77074906Y-43024327D01*
X77007147Y-43247701D01*
X76990000Y-43421794D01*
X76990000Y-44638207D01*
X77007147Y-44812300D01*
X77074906Y-45035674D01*
X77184943Y-45241536D01*
X77333026Y-45421975D01*
X77513465Y-45570058D01*
X77719327Y-45680094D01*
X77942701Y-45747853D01*
X78175000Y-45770733D01*
X78407300Y-45747853D01*
X78630674Y-45680094D01*
X78836536Y-45570058D01*
X79016975Y-45421975D01*
X79165058Y-45241536D01*
X79275094Y-45035674D01*
X79340000Y-44821704D01*
X79340001Y-62835697D01*
X78960394Y-62101560D01*
X78885149Y-61988946D01*
X78282818Y-61496787D01*
X74979605Y-64800000D01*
X74993748Y-64814143D01*
X74814143Y-64993748D01*
X74800000Y-64979605D01*
X71496787Y-68282818D01*
X71988946Y-68885149D01*
X72812655Y-69340000D01*
X37351093Y-69340000D01*
X37698440Y-69160394D01*
X37811054Y-69085149D01*
X38303213Y-68482818D01*
X35000000Y-65179605D01*
X34985858Y-65193748D01*
X34806253Y-65014143D01*
X34820395Y-65000000D01*
X35179605Y-65000000D01*
X38482818Y-68303213D01*
X39085149Y-67811054D01*
X39555063Y-66960067D01*
X39849929Y-66033757D01*
X39958414Y-65067719D01*
X39876351Y-64099079D01*
X39630838Y-63248061D01*
X41315000Y-63248061D01*
X41315000Y-63451939D01*
X41354774Y-63651898D01*
X41422066Y-63814353D01*
X41400722Y-63854284D01*
X41353031Y-64011500D01*
X41336928Y-64175000D01*
X41336928Y-65075000D01*
X41353031Y-65238500D01*
X41400722Y-65395716D01*
X41478169Y-65540608D01*
X41582394Y-65667606D01*
X41709392Y-65771831D01*
X41854284Y-65849278D01*
X42011500Y-65896969D01*
X42175000Y-65913072D01*
X42575000Y-65913072D01*
X42738500Y-65896969D01*
X42895716Y-65849278D01*
X43040608Y-65771831D01*
X43066894Y-65750259D01*
X43227008Y-65835841D01*
X43422106Y-65895024D01*
X43625000Y-65915007D01*
X43827895Y-65895024D01*
X44022993Y-65835841D01*
X44202797Y-65739734D01*
X44250001Y-65700995D01*
X44297204Y-65739734D01*
X44477008Y-65835841D01*
X44672106Y-65895024D01*
X44875000Y-65915007D01*
X45077895Y-65895024D01*
X45272993Y-65835841D01*
X45452797Y-65739734D01*
X45492938Y-65706791D01*
X45576840Y-65770255D01*
X45762028Y-65859994D01*
X45838877Y-65869666D01*
X45998000Y-65741998D01*
X45998000Y-64752000D01*
X46252000Y-64752000D01*
X46252000Y-65741998D01*
X46411123Y-65869666D01*
X46487972Y-65859994D01*
X46673160Y-65770255D01*
X46837283Y-65646112D01*
X46974033Y-65492336D01*
X47078155Y-65314836D01*
X47145648Y-65120433D01*
X47173918Y-64916599D01*
X47008762Y-64752000D01*
X46252000Y-64752000D01*
X45998000Y-64752000D01*
X45978000Y-64752000D01*
X45978000Y-64498000D01*
X45998000Y-64498000D01*
X45998000Y-63508002D01*
X46252000Y-63508002D01*
X46252000Y-64498000D01*
X47008762Y-64498000D01*
X47173918Y-64333401D01*
X47145648Y-64129567D01*
X47078155Y-63935164D01*
X46974033Y-63757664D01*
X46967218Y-63750000D01*
X53411928Y-63750000D01*
X53411928Y-66150000D01*
X53424188Y-66274482D01*
X53460498Y-66394180D01*
X53519463Y-66504494D01*
X53598815Y-66601185D01*
X53695506Y-66680537D01*
X53805820Y-66739502D01*
X53925518Y-66775812D01*
X54050000Y-66788072D01*
X56450000Y-66788072D01*
X56574482Y-66775812D01*
X56694180Y-66739502D01*
X56804494Y-66680537D01*
X56901185Y-66601185D01*
X56980537Y-66504494D01*
X57039502Y-66394180D01*
X57075812Y-66274482D01*
X57080391Y-66227980D01*
X57651626Y-66227980D01*
X57771514Y-66512836D01*
X58095210Y-66673699D01*
X58444069Y-66768322D01*
X58804684Y-66793067D01*
X59163198Y-66746985D01*
X59505833Y-66631846D01*
X59728486Y-66512836D01*
X59848374Y-66227980D01*
X58750000Y-65129605D01*
X57651626Y-66227980D01*
X57080391Y-66227980D01*
X57088072Y-66150000D01*
X57088072Y-65743097D01*
X57187164Y-65928486D01*
X57472020Y-66048374D01*
X58570395Y-64950000D01*
X58929605Y-64950000D01*
X60027980Y-66048374D01*
X60312836Y-65928486D01*
X60473699Y-65604790D01*
X60568322Y-65255931D01*
X60593067Y-64895316D01*
X60572112Y-64732281D01*
X69841586Y-64732281D01*
X69923649Y-65700921D01*
X70193107Y-66634938D01*
X70639606Y-67498440D01*
X70714851Y-67611054D01*
X71317182Y-68103213D01*
X74620395Y-64800000D01*
X71317182Y-61496787D01*
X70714851Y-61988946D01*
X70244937Y-62839933D01*
X69950071Y-63766243D01*
X69841586Y-64732281D01*
X60572112Y-64732281D01*
X60546985Y-64536802D01*
X60431846Y-64194167D01*
X60312836Y-63971514D01*
X60027980Y-63851626D01*
X58929605Y-64950000D01*
X58570395Y-64950000D01*
X57472020Y-63851626D01*
X57187164Y-63971514D01*
X57088072Y-64170912D01*
X57088072Y-63750000D01*
X57080392Y-63672020D01*
X57651626Y-63672020D01*
X58750000Y-64770395D01*
X59848374Y-63672020D01*
X59728486Y-63387164D01*
X59404790Y-63226301D01*
X59055931Y-63131678D01*
X58695316Y-63106933D01*
X58336802Y-63153015D01*
X57994167Y-63268154D01*
X57771514Y-63387164D01*
X57651626Y-63672020D01*
X57080392Y-63672020D01*
X57075812Y-63625518D01*
X57039502Y-63505820D01*
X56980537Y-63395506D01*
X56901185Y-63298815D01*
X56804494Y-63219463D01*
X56694180Y-63160498D01*
X56574482Y-63124188D01*
X56450000Y-63111928D01*
X54050000Y-63111928D01*
X53925518Y-63124188D01*
X53805820Y-63160498D01*
X53695506Y-63219463D01*
X53598815Y-63298815D01*
X53519463Y-63395506D01*
X53460498Y-63505820D01*
X53424188Y-63625518D01*
X53411928Y-63750000D01*
X46967218Y-63750000D01*
X46837283Y-63603888D01*
X46673160Y-63479745D01*
X46487972Y-63390006D01*
X46411123Y-63380334D01*
X46252000Y-63508002D01*
X45998000Y-63508002D01*
X45838877Y-63380334D01*
X45762028Y-63390006D01*
X45576840Y-63479745D01*
X45492938Y-63543209D01*
X45452797Y-63510266D01*
X45272992Y-63414159D01*
X45077894Y-63354976D01*
X44875000Y-63334993D01*
X44672105Y-63354976D01*
X44477007Y-63414159D01*
X44297203Y-63510266D01*
X44250000Y-63549004D01*
X44202797Y-63510266D01*
X44022992Y-63414159D01*
X43827894Y-63354976D01*
X43625000Y-63334993D01*
X43422105Y-63354976D01*
X43385000Y-63366232D01*
X43385000Y-63248061D01*
X43345226Y-63048102D01*
X43267205Y-62859744D01*
X43153937Y-62690226D01*
X43009774Y-62546063D01*
X42840256Y-62432795D01*
X42651898Y-62354774D01*
X42451939Y-62315000D01*
X42248061Y-62315000D01*
X42048102Y-62354774D01*
X41859744Y-62432795D01*
X41690226Y-62546063D01*
X41546063Y-62690226D01*
X41432795Y-62859744D01*
X41354774Y-63048102D01*
X41315000Y-63248061D01*
X39630838Y-63248061D01*
X39606893Y-63165062D01*
X39160394Y-62301560D01*
X39085149Y-62188946D01*
X38482818Y-61696787D01*
X35179605Y-65000000D01*
X34820395Y-65000000D01*
X31517182Y-61696787D01*
X30914851Y-62188946D01*
X30660000Y-62650466D01*
X30660000Y-61517182D01*
X31696787Y-61517182D01*
X35000000Y-64820395D01*
X38303213Y-61517182D01*
X38139795Y-61317182D01*
X71496787Y-61317182D01*
X74800000Y-64620395D01*
X78103213Y-61317182D01*
X77611054Y-60714851D01*
X76760067Y-60244937D01*
X75833757Y-59950071D01*
X74867719Y-59841586D01*
X73899079Y-59923649D01*
X72965062Y-60193107D01*
X72101560Y-60639606D01*
X71988946Y-60714851D01*
X71496787Y-61317182D01*
X38139795Y-61317182D01*
X37811054Y-60914851D01*
X36960067Y-60444937D01*
X36033757Y-60150071D01*
X35067719Y-60041586D01*
X34099079Y-60123649D01*
X33165062Y-60393107D01*
X32301560Y-60839606D01*
X32188946Y-60914851D01*
X31696787Y-61517182D01*
X30660000Y-61517182D01*
X30660000Y-54728061D01*
X70365000Y-54728061D01*
X70365000Y-54931939D01*
X70404774Y-55131898D01*
X70482795Y-55320256D01*
X70596063Y-55489774D01*
X70740226Y-55633937D01*
X70909744Y-55747205D01*
X71098102Y-55825226D01*
X71298061Y-55865000D01*
X71501939Y-55865000D01*
X71701898Y-55825226D01*
X71890256Y-55747205D01*
X72059774Y-55633937D01*
X72203937Y-55489774D01*
X72317205Y-55320256D01*
X72395226Y-55131898D01*
X72435000Y-54931939D01*
X72435000Y-54728061D01*
X72395226Y-54528102D01*
X72391067Y-54518061D01*
X73255000Y-54518061D01*
X73255000Y-54721939D01*
X73294774Y-54921898D01*
X73372795Y-55110256D01*
X73486063Y-55279774D01*
X73630226Y-55423937D01*
X73799744Y-55537205D01*
X73988102Y-55615226D01*
X74188061Y-55655000D01*
X74391939Y-55655000D01*
X74591898Y-55615226D01*
X74780256Y-55537205D01*
X74949774Y-55423937D01*
X75069135Y-55304576D01*
X75126063Y-55389774D01*
X75270226Y-55533937D01*
X75439744Y-55647205D01*
X75628102Y-55725226D01*
X75828061Y-55765000D01*
X76031939Y-55765000D01*
X76231898Y-55725226D01*
X76420256Y-55647205D01*
X76589774Y-55533937D01*
X76733937Y-55389774D01*
X76847205Y-55220256D01*
X76925226Y-55031898D01*
X76965000Y-54831939D01*
X76965000Y-54628061D01*
X76925226Y-54428102D01*
X76847205Y-54239744D01*
X76733937Y-54070226D01*
X76589774Y-53926063D01*
X76420256Y-53812795D01*
X76231898Y-53734774D01*
X76031939Y-53695000D01*
X75828061Y-53695000D01*
X75628102Y-53734774D01*
X75439744Y-53812795D01*
X75270226Y-53926063D01*
X75150865Y-54045424D01*
X75093937Y-53960226D01*
X74949774Y-53816063D01*
X74780256Y-53702795D01*
X74591898Y-53624774D01*
X74391939Y-53585000D01*
X74188061Y-53585000D01*
X73988102Y-53624774D01*
X73799744Y-53702795D01*
X73630226Y-53816063D01*
X73486063Y-53960226D01*
X73372795Y-54129744D01*
X73294774Y-54318102D01*
X73255000Y-54518061D01*
X72391067Y-54518061D01*
X72362164Y-54448284D01*
X72435226Y-54271898D01*
X72475000Y-54071939D01*
X72475000Y-53868061D01*
X72435226Y-53668102D01*
X72357205Y-53479744D01*
X72243937Y-53310226D01*
X72099774Y-53166063D01*
X71930256Y-53052795D01*
X71741898Y-52974774D01*
X71541939Y-52935000D01*
X71338061Y-52935000D01*
X71138102Y-52974774D01*
X70949744Y-53052795D01*
X70780226Y-53166063D01*
X70636063Y-53310226D01*
X70522795Y-53479744D01*
X70444774Y-53668102D01*
X70405000Y-53868061D01*
X70405000Y-54071939D01*
X70444774Y-54271898D01*
X70477836Y-54351716D01*
X70404774Y-54528102D01*
X70365000Y-54728061D01*
X30660000Y-54728061D01*
X30660000Y-50648061D01*
X42585000Y-50648061D01*
X42585000Y-50851939D01*
X42624774Y-51051898D01*
X42702795Y-51240256D01*
X42816063Y-51409774D01*
X42960226Y-51553937D01*
X43129744Y-51667205D01*
X43318102Y-51745226D01*
X43518061Y-51785000D01*
X43721939Y-51785000D01*
X43921898Y-51745226D01*
X44110256Y-51667205D01*
X44279774Y-51553937D01*
X44423937Y-51409774D01*
X44537205Y-51240256D01*
X44615226Y-51051898D01*
X44655000Y-50851939D01*
X44655000Y-50648061D01*
X44615226Y-50448102D01*
X44537205Y-50259744D01*
X44423937Y-50090226D01*
X44406772Y-50073061D01*
X62390000Y-50073061D01*
X62390000Y-50276939D01*
X62429774Y-50476898D01*
X62507795Y-50665256D01*
X62621063Y-50834774D01*
X62765226Y-50978937D01*
X62934744Y-51092205D01*
X63123102Y-51170226D01*
X63323061Y-51210000D01*
X63526939Y-51210000D01*
X63726898Y-51170226D01*
X63915256Y-51092205D01*
X64084774Y-50978937D01*
X64228937Y-50834774D01*
X64342205Y-50665256D01*
X64420226Y-50476898D01*
X64460000Y-50276939D01*
X64460000Y-50073061D01*
X64433918Y-49941937D01*
X64546063Y-50109774D01*
X64690226Y-50253937D01*
X64859744Y-50367205D01*
X65048102Y-50445226D01*
X65248061Y-50485000D01*
X65451939Y-50485000D01*
X65537097Y-50468061D01*
X69395000Y-50468061D01*
X69395000Y-50671939D01*
X69434774Y-50871898D01*
X69512795Y-51060256D01*
X69626063Y-51229774D01*
X69770226Y-51373937D01*
X69939744Y-51487205D01*
X70128102Y-51565226D01*
X70328061Y-51605000D01*
X70531939Y-51605000D01*
X70731898Y-51565226D01*
X70845858Y-51518022D01*
X71008102Y-51585226D01*
X71208061Y-51625000D01*
X71411939Y-51625000D01*
X71611898Y-51585226D01*
X71749905Y-51528061D01*
X74355000Y-51528061D01*
X74355000Y-51731939D01*
X74394774Y-51931898D01*
X74472795Y-52120256D01*
X74586063Y-52289774D01*
X74730226Y-52433937D01*
X74899744Y-52547205D01*
X75088102Y-52625226D01*
X75288061Y-52665000D01*
X75491939Y-52665000D01*
X75691898Y-52625226D01*
X75880256Y-52547205D01*
X75895000Y-52537353D01*
X75909744Y-52547205D01*
X76062377Y-52610428D01*
X76035000Y-52748061D01*
X76035000Y-52951939D01*
X76074774Y-53151898D01*
X76152795Y-53340256D01*
X76266063Y-53509774D01*
X76410226Y-53653937D01*
X76579744Y-53767205D01*
X76768102Y-53845226D01*
X76968061Y-53885000D01*
X77171939Y-53885000D01*
X77371898Y-53845226D01*
X77560256Y-53767205D01*
X77729774Y-53653937D01*
X77873937Y-53509774D01*
X77987205Y-53340256D01*
X78065226Y-53151898D01*
X78105000Y-52951939D01*
X78105000Y-52748061D01*
X78065226Y-52548102D01*
X77987205Y-52359744D01*
X77873937Y-52190226D01*
X77729774Y-52046063D01*
X77560256Y-51932795D01*
X77407623Y-51869572D01*
X77435000Y-51731939D01*
X77435000Y-51528061D01*
X77395226Y-51328102D01*
X77317205Y-51139744D01*
X77203937Y-50970226D01*
X77059774Y-50826063D01*
X76890256Y-50712795D01*
X76701898Y-50634774D01*
X76501939Y-50595000D01*
X76298061Y-50595000D01*
X76098102Y-50634774D01*
X75909744Y-50712795D01*
X75895000Y-50722647D01*
X75880256Y-50712795D01*
X75691898Y-50634774D01*
X75491939Y-50595000D01*
X75288061Y-50595000D01*
X75088102Y-50634774D01*
X74899744Y-50712795D01*
X74730226Y-50826063D01*
X74586063Y-50970226D01*
X74472795Y-51139744D01*
X74394774Y-51328102D01*
X74355000Y-51528061D01*
X71749905Y-51528061D01*
X71800256Y-51507205D01*
X71969774Y-51393937D01*
X72113937Y-51249774D01*
X72227205Y-51080256D01*
X72305226Y-50891898D01*
X72345000Y-50691939D01*
X72345000Y-50488061D01*
X72305226Y-50288102D01*
X72227205Y-50099744D01*
X72113937Y-49930226D01*
X71969774Y-49786063D01*
X71800256Y-49672795D01*
X71611898Y-49594774D01*
X71411939Y-49555000D01*
X71208061Y-49555000D01*
X71008102Y-49594774D01*
X70894142Y-49641978D01*
X70731898Y-49574774D01*
X70531939Y-49535000D01*
X70328061Y-49535000D01*
X70128102Y-49574774D01*
X69939744Y-49652795D01*
X69770226Y-49766063D01*
X69626063Y-49910226D01*
X69512795Y-50079744D01*
X69434774Y-50268102D01*
X69395000Y-50468061D01*
X65537097Y-50468061D01*
X65651898Y-50445226D01*
X65840256Y-50367205D01*
X66009774Y-50253937D01*
X66153937Y-50109774D01*
X66267205Y-49940256D01*
X66345226Y-49751898D01*
X66385000Y-49551939D01*
X66385000Y-49348061D01*
X66345226Y-49148102D01*
X66267205Y-48959744D01*
X66153937Y-48790226D01*
X66009774Y-48646063D01*
X65840256Y-48532795D01*
X65651898Y-48454774D01*
X65451939Y-48415000D01*
X65248061Y-48415000D01*
X65048102Y-48454774D01*
X64859744Y-48532795D01*
X64690226Y-48646063D01*
X64546063Y-48790226D01*
X64432795Y-48959744D01*
X64354774Y-49148102D01*
X64315000Y-49348061D01*
X64315000Y-49551939D01*
X64341082Y-49683063D01*
X64228937Y-49515226D01*
X64084774Y-49371063D01*
X63915256Y-49257795D01*
X63726898Y-49179774D01*
X63526939Y-49140000D01*
X63323061Y-49140000D01*
X63123102Y-49179774D01*
X62934744Y-49257795D01*
X62765226Y-49371063D01*
X62621063Y-49515226D01*
X62507795Y-49684744D01*
X62429774Y-49873102D01*
X62390000Y-50073061D01*
X44406772Y-50073061D01*
X44279774Y-49946063D01*
X44110256Y-49832795D01*
X43921898Y-49754774D01*
X43721939Y-49715000D01*
X43518061Y-49715000D01*
X43318102Y-49754774D01*
X43129744Y-49832795D01*
X42960226Y-49946063D01*
X42816063Y-50090226D01*
X42702795Y-50259744D01*
X42624774Y-50448102D01*
X42585000Y-50648061D01*
X30660000Y-50648061D01*
X30660000Y-46918061D01*
X35965000Y-46918061D01*
X35965000Y-47121939D01*
X36004774Y-47321898D01*
X36082795Y-47510256D01*
X36196063Y-47679774D01*
X36340226Y-47823937D01*
X36509744Y-47937205D01*
X36698102Y-48015226D01*
X36744858Y-48024526D01*
X36792795Y-48140256D01*
X36906063Y-48309774D01*
X37050226Y-48453937D01*
X37219744Y-48567205D01*
X37408102Y-48645226D01*
X37608061Y-48685000D01*
X37811939Y-48685000D01*
X38011898Y-48645226D01*
X38200256Y-48567205D01*
X38369774Y-48453937D01*
X38465650Y-48358061D01*
X50765000Y-48358061D01*
X50765000Y-48561939D01*
X50804774Y-48761898D01*
X50882795Y-48950256D01*
X50996063Y-49119774D01*
X51140226Y-49263937D01*
X51309744Y-49377205D01*
X51498102Y-49455226D01*
X51698061Y-49495000D01*
X51901939Y-49495000D01*
X52101898Y-49455226D01*
X52290256Y-49377205D01*
X52459774Y-49263937D01*
X52603937Y-49119774D01*
X52717205Y-48950256D01*
X52795226Y-48761898D01*
X52835000Y-48561939D01*
X52835000Y-48358061D01*
X52795226Y-48158102D01*
X52717205Y-47969744D01*
X52603937Y-47800226D01*
X52459774Y-47656063D01*
X52290256Y-47542795D01*
X52101898Y-47464774D01*
X51901939Y-47425000D01*
X51698061Y-47425000D01*
X51498102Y-47464774D01*
X51309744Y-47542795D01*
X51140226Y-47656063D01*
X50996063Y-47800226D01*
X50882795Y-47969744D01*
X50804774Y-48158102D01*
X50765000Y-48358061D01*
X38465650Y-48358061D01*
X38513937Y-48309774D01*
X38627205Y-48140256D01*
X38705226Y-47951898D01*
X38745000Y-47751939D01*
X38745000Y-47548061D01*
X38705226Y-47348102D01*
X38627205Y-47159744D01*
X38513937Y-46990226D01*
X38369774Y-46846063D01*
X38200256Y-46732795D01*
X38011898Y-46654774D01*
X37965142Y-46645474D01*
X37917205Y-46529744D01*
X37803937Y-46360226D01*
X37659774Y-46216063D01*
X37490256Y-46102795D01*
X37301898Y-46024774D01*
X37101939Y-45985000D01*
X36898061Y-45985000D01*
X36698102Y-46024774D01*
X36509744Y-46102795D01*
X36340226Y-46216063D01*
X36196063Y-46360226D01*
X36082795Y-46529744D01*
X36004774Y-46718102D01*
X35965000Y-46918061D01*
X30660000Y-46918061D01*
X30660000Y-45220773D01*
X66925000Y-45220773D01*
X66925000Y-45424651D01*
X66964774Y-45624610D01*
X67042795Y-45812968D01*
X67156063Y-45982486D01*
X67300226Y-46126649D01*
X67469744Y-46239917D01*
X67658102Y-46317938D01*
X67858061Y-46357712D01*
X68061939Y-46357712D01*
X68261898Y-46317938D01*
X68450256Y-46239917D01*
X68619774Y-46126649D01*
X68763937Y-45982486D01*
X68877205Y-45812968D01*
X68955226Y-45624610D01*
X68995000Y-45424651D01*
X68995000Y-45237137D01*
X69063825Y-45283124D01*
X69252183Y-45361145D01*
X69452142Y-45400919D01*
X69656020Y-45400919D01*
X69855979Y-45361145D01*
X69979316Y-45310057D01*
X70064300Y-45345259D01*
X69935882Y-45431065D01*
X69791719Y-45575228D01*
X69678451Y-45744746D01*
X69600430Y-45933104D01*
X69560656Y-46133063D01*
X69560656Y-46336941D01*
X69600430Y-46536900D01*
X69678451Y-46725258D01*
X69791719Y-46894776D01*
X69935882Y-47038939D01*
X70105400Y-47152207D01*
X70293758Y-47230228D01*
X70493717Y-47270002D01*
X70697595Y-47270002D01*
X70897554Y-47230228D01*
X71085912Y-47152207D01*
X71255430Y-47038939D01*
X71399593Y-46894776D01*
X71512861Y-46725258D01*
X71590882Y-46536900D01*
X71613777Y-46421794D01*
X74840000Y-46421794D01*
X74840000Y-47238207D01*
X74857147Y-47412300D01*
X74924906Y-47635674D01*
X75034943Y-47841536D01*
X75183026Y-48021975D01*
X75363465Y-48170058D01*
X75569327Y-48280094D01*
X75792701Y-48347853D01*
X76025000Y-48370733D01*
X76257300Y-48347853D01*
X76480674Y-48280094D01*
X76686536Y-48170058D01*
X76866975Y-48021975D01*
X77015058Y-47841536D01*
X77125094Y-47635674D01*
X77192853Y-47412299D01*
X77210000Y-47238206D01*
X77210000Y-46421793D01*
X77192853Y-46247700D01*
X77125094Y-46024326D01*
X77015058Y-45818464D01*
X76866975Y-45638025D01*
X76686535Y-45489942D01*
X76480673Y-45379906D01*
X76257299Y-45312147D01*
X76025000Y-45289267D01*
X75792700Y-45312147D01*
X75569326Y-45379906D01*
X75363464Y-45489942D01*
X75183025Y-45638025D01*
X75034942Y-45818465D01*
X74924906Y-46024327D01*
X74857147Y-46247701D01*
X74840000Y-46421794D01*
X71613777Y-46421794D01*
X71630656Y-46336941D01*
X71630656Y-46133063D01*
X71590882Y-45933104D01*
X71512861Y-45744746D01*
X71399593Y-45575228D01*
X71255430Y-45431065D01*
X71085912Y-45317797D01*
X70981967Y-45274741D01*
X71110385Y-45188935D01*
X71254548Y-45044772D01*
X71367816Y-44875254D01*
X71445837Y-44686896D01*
X71485611Y-44486937D01*
X71485611Y-44283059D01*
X71445837Y-44083100D01*
X71367816Y-43894742D01*
X71254548Y-43725224D01*
X71110385Y-43581061D01*
X70940867Y-43467793D01*
X70752509Y-43389772D01*
X70552550Y-43349998D01*
X70348672Y-43349998D01*
X70148713Y-43389772D01*
X70025376Y-43440860D01*
X69855979Y-43370693D01*
X69656020Y-43330919D01*
X69452142Y-43330919D01*
X69252183Y-43370693D01*
X69063825Y-43448714D01*
X68894307Y-43561982D01*
X68750144Y-43706145D01*
X68636876Y-43875663D01*
X68558855Y-44064021D01*
X68519081Y-44263980D01*
X68519081Y-44451494D01*
X68450256Y-44405507D01*
X68261898Y-44327486D01*
X68061939Y-44287712D01*
X67858061Y-44287712D01*
X67658102Y-44327486D01*
X67469744Y-44405507D01*
X67300226Y-44518775D01*
X67156063Y-44662938D01*
X67042795Y-44832456D01*
X66964774Y-45020814D01*
X66925000Y-45220773D01*
X30660000Y-45220773D01*
X30660000Y-41828061D01*
X48645000Y-41828061D01*
X48645000Y-42031939D01*
X48684774Y-42231898D01*
X48762795Y-42420256D01*
X48876063Y-42589774D01*
X49020226Y-42733937D01*
X49189744Y-42847205D01*
X49378102Y-42925226D01*
X49578061Y-42965000D01*
X49781939Y-42965000D01*
X49981898Y-42925226D01*
X50170256Y-42847205D01*
X50339774Y-42733937D01*
X50483937Y-42589774D01*
X50597205Y-42420256D01*
X50675226Y-42231898D01*
X50715000Y-42031939D01*
X50715000Y-41828061D01*
X50675226Y-41628102D01*
X50597205Y-41439744D01*
X50483937Y-41270226D01*
X50339774Y-41126063D01*
X50170256Y-41012795D01*
X49981898Y-40934774D01*
X49781939Y-40895000D01*
X49578061Y-40895000D01*
X49378102Y-40934774D01*
X49189744Y-41012795D01*
X49020226Y-41126063D01*
X48876063Y-41270226D01*
X48762795Y-41439744D01*
X48684774Y-41628102D01*
X48645000Y-41828061D01*
X30660000Y-41828061D01*
X30660000Y-40821794D01*
X74840000Y-40821794D01*
X74840000Y-41638207D01*
X74857147Y-41812300D01*
X74924906Y-42035674D01*
X75034943Y-42241536D01*
X75183026Y-42421975D01*
X75363465Y-42570058D01*
X75569327Y-42680094D01*
X75792701Y-42747853D01*
X76025000Y-42770733D01*
X76257300Y-42747853D01*
X76480674Y-42680094D01*
X76686536Y-42570058D01*
X76866975Y-42421975D01*
X77015058Y-42241536D01*
X77125094Y-42035674D01*
X77192853Y-41812299D01*
X77210000Y-41638206D01*
X77210000Y-40821793D01*
X77192853Y-40647700D01*
X77125094Y-40424326D01*
X77015058Y-40218464D01*
X76866975Y-40038025D01*
X76686535Y-39889942D01*
X76480673Y-39779906D01*
X76257299Y-39712147D01*
X76025000Y-39689267D01*
X75792700Y-39712147D01*
X75569326Y-39779906D01*
X75363464Y-39889942D01*
X75183025Y-40038025D01*
X75034942Y-40218465D01*
X74924906Y-40424327D01*
X74857147Y-40647701D01*
X74840000Y-40821794D01*
X30660000Y-40821794D01*
X30660000Y-35278061D01*
X39175000Y-35278061D01*
X39175000Y-35481939D01*
X39214774Y-35681898D01*
X39292795Y-35870256D01*
X39406063Y-36039774D01*
X39550226Y-36183937D01*
X39719744Y-36297205D01*
X39908102Y-36375226D01*
X40108061Y-36415000D01*
X40111623Y-36415000D01*
X40064774Y-36528102D01*
X40025000Y-36728061D01*
X40025000Y-36931939D01*
X40064774Y-37131898D01*
X40142795Y-37320256D01*
X40256063Y-37489774D01*
X40400226Y-37633937D01*
X40569744Y-37747205D01*
X40758102Y-37825226D01*
X40958061Y-37865000D01*
X41161939Y-37865000D01*
X41361898Y-37825226D01*
X41550256Y-37747205D01*
X41719774Y-37633937D01*
X41863937Y-37489774D01*
X41977205Y-37320256D01*
X42055226Y-37131898D01*
X42089804Y-36958061D01*
X50825000Y-36958061D01*
X50825000Y-37161939D01*
X50864774Y-37361898D01*
X50942795Y-37550256D01*
X51056063Y-37719774D01*
X51200226Y-37863937D01*
X51369744Y-37977205D01*
X51558102Y-38055226D01*
X51758061Y-38095000D01*
X51961939Y-38095000D01*
X52161898Y-38055226D01*
X52350256Y-37977205D01*
X52519774Y-37863937D01*
X52663937Y-37719774D01*
X52777205Y-37550256D01*
X52827820Y-37428061D01*
X58425000Y-37428061D01*
X58425000Y-37631939D01*
X58464774Y-37831898D01*
X58542795Y-38020256D01*
X58656063Y-38189774D01*
X58800226Y-38333937D01*
X58969744Y-38447205D01*
X59158102Y-38525226D01*
X59358061Y-38565000D01*
X59561939Y-38565000D01*
X59761898Y-38525226D01*
X59950256Y-38447205D01*
X60119774Y-38333937D01*
X60263937Y-38189774D01*
X60377205Y-38020256D01*
X60455226Y-37831898D01*
X60495000Y-37631939D01*
X60495000Y-37428061D01*
X60455226Y-37228102D01*
X60377205Y-37039744D01*
X60263937Y-36870226D01*
X60119774Y-36726063D01*
X60003036Y-36648061D01*
X71325000Y-36648061D01*
X71325000Y-36851939D01*
X71364774Y-37051898D01*
X71442795Y-37240256D01*
X71556063Y-37409774D01*
X71700226Y-37553937D01*
X71869744Y-37667205D01*
X72058102Y-37745226D01*
X72096725Y-37752909D01*
X72032155Y-37796053D01*
X71887992Y-37940216D01*
X71774724Y-38109734D01*
X71696703Y-38298092D01*
X71656929Y-38498051D01*
X71656929Y-38701929D01*
X71696703Y-38901888D01*
X71774724Y-39090246D01*
X71887992Y-39259764D01*
X72032155Y-39403927D01*
X72201673Y-39517195D01*
X72390031Y-39595216D01*
X72589990Y-39634990D01*
X72793868Y-39634990D01*
X72993827Y-39595216D01*
X73182185Y-39517195D01*
X73351703Y-39403927D01*
X73495866Y-39259764D01*
X73609134Y-39090246D01*
X73687155Y-38901888D01*
X73726929Y-38701929D01*
X73726929Y-38498051D01*
X73687155Y-38298092D01*
X73609134Y-38109734D01*
X73495866Y-37940216D01*
X73351703Y-37796053D01*
X73182185Y-37682785D01*
X72993827Y-37604764D01*
X72955204Y-37597081D01*
X73019774Y-37553937D01*
X73163937Y-37409774D01*
X73277205Y-37240256D01*
X73355226Y-37051898D01*
X73395000Y-36851939D01*
X73395000Y-36648061D01*
X73355226Y-36448102D01*
X73277205Y-36259744D01*
X73163937Y-36090226D01*
X73019774Y-35946063D01*
X72850256Y-35832795D01*
X72661898Y-35754774D01*
X72461939Y-35715000D01*
X72258061Y-35715000D01*
X72058102Y-35754774D01*
X71869744Y-35832795D01*
X71700226Y-35946063D01*
X71556063Y-36090226D01*
X71442795Y-36259744D01*
X71364774Y-36448102D01*
X71325000Y-36648061D01*
X60003036Y-36648061D01*
X59950256Y-36612795D01*
X59761898Y-36534774D01*
X59561939Y-36495000D01*
X59358061Y-36495000D01*
X59158102Y-36534774D01*
X58969744Y-36612795D01*
X58800226Y-36726063D01*
X58656063Y-36870226D01*
X58542795Y-37039744D01*
X58464774Y-37228102D01*
X58425000Y-37428061D01*
X52827820Y-37428061D01*
X52855226Y-37361898D01*
X52895000Y-37161939D01*
X52895000Y-36958061D01*
X52855226Y-36758102D01*
X52777205Y-36569744D01*
X52663937Y-36400226D01*
X52519774Y-36256063D01*
X52350256Y-36142795D01*
X52161898Y-36064774D01*
X51961939Y-36025000D01*
X51758061Y-36025000D01*
X51558102Y-36064774D01*
X51369744Y-36142795D01*
X51200226Y-36256063D01*
X51056063Y-36400226D01*
X50942795Y-36569744D01*
X50864774Y-36758102D01*
X50825000Y-36958061D01*
X42089804Y-36958061D01*
X42095000Y-36931939D01*
X42095000Y-36728061D01*
X42055226Y-36528102D01*
X41977205Y-36339744D01*
X41863937Y-36170226D01*
X41719774Y-36026063D01*
X41550256Y-35912795D01*
X41361898Y-35834774D01*
X41161939Y-35795000D01*
X41158377Y-35795000D01*
X41205226Y-35681898D01*
X41245000Y-35481939D01*
X41245000Y-35278061D01*
X41205226Y-35078102D01*
X41127205Y-34889744D01*
X41013937Y-34720226D01*
X40869774Y-34576063D01*
X40700256Y-34462795D01*
X40640544Y-34438061D01*
X41095000Y-34438061D01*
X41095000Y-34641939D01*
X41134774Y-34841898D01*
X41212795Y-35030256D01*
X41326063Y-35199774D01*
X41470226Y-35343937D01*
X41639744Y-35457205D01*
X41828102Y-35535226D01*
X42028061Y-35575000D01*
X42231939Y-35575000D01*
X42431898Y-35535226D01*
X42620256Y-35457205D01*
X42789774Y-35343937D01*
X42933937Y-35199774D01*
X43047205Y-35030256D01*
X43125226Y-34841898D01*
X43165000Y-34641939D01*
X43165000Y-34438061D01*
X43125226Y-34238102D01*
X43047205Y-34049744D01*
X42933937Y-33880226D01*
X42789774Y-33736063D01*
X42620256Y-33622795D01*
X42431898Y-33544774D01*
X42231939Y-33505000D01*
X42028061Y-33505000D01*
X41828102Y-33544774D01*
X41639744Y-33622795D01*
X41470226Y-33736063D01*
X41326063Y-33880226D01*
X41212795Y-34049744D01*
X41134774Y-34238102D01*
X41095000Y-34438061D01*
X40640544Y-34438061D01*
X40511898Y-34384774D01*
X40311939Y-34345000D01*
X40108061Y-34345000D01*
X39908102Y-34384774D01*
X39719744Y-34462795D01*
X39550226Y-34576063D01*
X39406063Y-34720226D01*
X39292795Y-34889744D01*
X39214774Y-35078102D01*
X39175000Y-35278061D01*
X30660000Y-35278061D01*
X30660000Y-33228061D01*
X44275000Y-33228061D01*
X44275000Y-33431939D01*
X44314774Y-33631898D01*
X44392795Y-33820256D01*
X44506063Y-33989774D01*
X44650226Y-34133937D01*
X44819744Y-34247205D01*
X45008102Y-34325226D01*
X45208061Y-34365000D01*
X45411939Y-34365000D01*
X45611898Y-34325226D01*
X45800256Y-34247205D01*
X45969774Y-34133937D01*
X46095650Y-34008061D01*
X47985000Y-34008061D01*
X47985000Y-34211939D01*
X48024774Y-34411898D01*
X48102795Y-34600256D01*
X48216063Y-34769774D01*
X48360226Y-34913937D01*
X48529744Y-35027205D01*
X48718102Y-35105226D01*
X48918061Y-35145000D01*
X49121939Y-35145000D01*
X49321898Y-35105226D01*
X49510256Y-35027205D01*
X49679774Y-34913937D01*
X49823937Y-34769774D01*
X49937205Y-34600256D01*
X49975393Y-34508061D01*
X74865000Y-34508061D01*
X74865000Y-34711939D01*
X74904774Y-34911898D01*
X74982795Y-35100256D01*
X75096063Y-35269774D01*
X75240226Y-35413937D01*
X75409744Y-35527205D01*
X75598102Y-35605226D01*
X75798061Y-35645000D01*
X76001939Y-35645000D01*
X76201898Y-35605226D01*
X76390256Y-35527205D01*
X76559774Y-35413937D01*
X76703937Y-35269774D01*
X76817205Y-35100256D01*
X76895226Y-34911898D01*
X76935000Y-34711939D01*
X76935000Y-34508061D01*
X76895226Y-34308102D01*
X76817205Y-34119744D01*
X76703937Y-33950226D01*
X76559774Y-33806063D01*
X76390256Y-33692795D01*
X76201898Y-33614774D01*
X76001939Y-33575000D01*
X75798061Y-33575000D01*
X75598102Y-33614774D01*
X75409744Y-33692795D01*
X75240226Y-33806063D01*
X75096063Y-33950226D01*
X74982795Y-34119744D01*
X74904774Y-34308102D01*
X74865000Y-34508061D01*
X49975393Y-34508061D01*
X50015226Y-34411898D01*
X50055000Y-34211939D01*
X50055000Y-34008061D01*
X50015226Y-33808102D01*
X49937205Y-33619744D01*
X49823937Y-33450226D01*
X49679774Y-33306063D01*
X49510256Y-33192795D01*
X49321898Y-33114774D01*
X49121939Y-33075000D01*
X48918061Y-33075000D01*
X48718102Y-33114774D01*
X48529744Y-33192795D01*
X48360226Y-33306063D01*
X48216063Y-33450226D01*
X48102795Y-33619744D01*
X48024774Y-33808102D01*
X47985000Y-34008061D01*
X46095650Y-34008061D01*
X46113937Y-33989774D01*
X46227205Y-33820256D01*
X46305226Y-33631898D01*
X46345000Y-33431939D01*
X46345000Y-33228061D01*
X46305226Y-33028102D01*
X46227205Y-32839744D01*
X46113937Y-32670226D01*
X45969774Y-32526063D01*
X45800256Y-32412795D01*
X45611898Y-32334774D01*
X45411939Y-32295000D01*
X45208061Y-32295000D01*
X45008102Y-32334774D01*
X44819744Y-32412795D01*
X44650226Y-32526063D01*
X44506063Y-32670226D01*
X44392795Y-32839744D01*
X44314774Y-33028102D01*
X44275000Y-33228061D01*
X30660000Y-33228061D01*
X30660000Y-28482818D01*
X31696787Y-28482818D01*
X32188946Y-29085149D01*
X33039933Y-29555063D01*
X33966243Y-29849929D01*
X34932281Y-29958414D01*
X35900921Y-29876351D01*
X36834938Y-29606893D01*
X37698440Y-29160394D01*
X37811054Y-29085149D01*
X38139794Y-28682818D01*
X71496787Y-28682818D01*
X71988946Y-29285149D01*
X72839933Y-29755063D01*
X73766243Y-30049929D01*
X74732281Y-30158414D01*
X75700921Y-30076351D01*
X76634938Y-29806893D01*
X77498440Y-29360394D01*
X77611054Y-29285149D01*
X78103213Y-28682818D01*
X74800000Y-25379605D01*
X71496787Y-28682818D01*
X38139794Y-28682818D01*
X38303213Y-28482818D01*
X35000000Y-25179605D01*
X31696787Y-28482818D01*
X30660000Y-28482818D01*
X30660000Y-27351093D01*
X30839606Y-27698440D01*
X30914851Y-27811054D01*
X31517182Y-28303213D01*
X34820395Y-25000000D01*
X35179605Y-25000000D01*
X38482818Y-28303213D01*
X39085149Y-27811054D01*
X39555063Y-26960067D01*
X39849929Y-26033757D01*
X39925808Y-25358061D01*
X47895000Y-25358061D01*
X47895000Y-25561939D01*
X47934774Y-25761898D01*
X48012795Y-25950256D01*
X48126063Y-26119774D01*
X48270226Y-26263937D01*
X48439744Y-26377205D01*
X48628102Y-26455226D01*
X48828061Y-26495000D01*
X49031939Y-26495000D01*
X49231898Y-26455226D01*
X49420256Y-26377205D01*
X49589774Y-26263937D01*
X49733937Y-26119774D01*
X49847205Y-25950256D01*
X49925226Y-25761898D01*
X49965000Y-25561939D01*
X49965000Y-25481599D01*
X52801082Y-25481599D01*
X52829352Y-25685433D01*
X52896845Y-25879836D01*
X53000967Y-26057336D01*
X53137717Y-26211112D01*
X53301840Y-26335255D01*
X53487028Y-26424994D01*
X53563877Y-26434666D01*
X53723000Y-26306998D01*
X53723000Y-25317000D01*
X52966238Y-25317000D01*
X52801082Y-25481599D01*
X49965000Y-25481599D01*
X49965000Y-25358061D01*
X49925226Y-25158102D01*
X49847205Y-24969744D01*
X49799536Y-24898401D01*
X52801082Y-24898401D01*
X52966238Y-25063000D01*
X53723000Y-25063000D01*
X53723000Y-24073002D01*
X53977000Y-24073002D01*
X53977000Y-25063000D01*
X53997000Y-25063000D01*
X53997000Y-25317000D01*
X53977000Y-25317000D01*
X53977000Y-26306998D01*
X54136123Y-26434666D01*
X54212972Y-26424994D01*
X54398160Y-26335255D01*
X54482062Y-26271791D01*
X54522203Y-26304734D01*
X54702007Y-26400841D01*
X54897105Y-26460024D01*
X55100000Y-26480007D01*
X55302894Y-26460024D01*
X55497992Y-26400841D01*
X55677797Y-26304734D01*
X55725000Y-26265996D01*
X55772203Y-26304734D01*
X55952007Y-26400841D01*
X56147105Y-26460024D01*
X56350000Y-26480007D01*
X56552894Y-26460024D01*
X56747992Y-26400841D01*
X56908106Y-26315259D01*
X56934392Y-26336831D01*
X57079284Y-26414278D01*
X57236500Y-26461969D01*
X57400000Y-26478072D01*
X57800000Y-26478072D01*
X57963500Y-26461969D01*
X58120716Y-26414278D01*
X58265608Y-26336831D01*
X58392606Y-26232606D01*
X58496831Y-26105608D01*
X58574278Y-25960716D01*
X58621969Y-25803500D01*
X58638072Y-25640000D01*
X58638072Y-25132281D01*
X69841586Y-25132281D01*
X69923649Y-26100921D01*
X70193107Y-27034938D01*
X70639606Y-27898440D01*
X70714851Y-28011054D01*
X71317182Y-28503213D01*
X74620395Y-25200000D01*
X71317182Y-21896787D01*
X70714851Y-22388946D01*
X70244937Y-23239933D01*
X69950071Y-24166243D01*
X69841586Y-25132281D01*
X58638072Y-25132281D01*
X58638072Y-24740000D01*
X58621969Y-24576500D01*
X58574278Y-24419284D01*
X58517846Y-24313708D01*
X58595226Y-24126898D01*
X58635000Y-23926939D01*
X58635000Y-23723061D01*
X58595226Y-23523102D01*
X58517205Y-23334744D01*
X58403937Y-23165226D01*
X58259774Y-23021063D01*
X58090256Y-22907795D01*
X57901898Y-22829774D01*
X57701939Y-22790000D01*
X57498061Y-22790000D01*
X57298102Y-22829774D01*
X57109744Y-22907795D01*
X56940226Y-23021063D01*
X56796063Y-23165226D01*
X56682795Y-23334744D01*
X56604774Y-23523102D01*
X56565000Y-23723061D01*
X56565000Y-23923648D01*
X56552895Y-23919976D01*
X56350000Y-23899993D01*
X56147106Y-23919976D01*
X55952008Y-23979159D01*
X55772204Y-24075266D01*
X55725001Y-24114005D01*
X55677797Y-24075266D01*
X55497993Y-23979159D01*
X55302895Y-23919976D01*
X55100000Y-23899993D01*
X54897106Y-23919976D01*
X54702008Y-23979159D01*
X54522204Y-24075266D01*
X54482063Y-24108209D01*
X54398160Y-24044745D01*
X54212972Y-23955006D01*
X54136123Y-23945334D01*
X53977000Y-24073002D01*
X53723000Y-24073002D01*
X53563877Y-23945334D01*
X53487028Y-23955006D01*
X53301840Y-24044745D01*
X53137717Y-24168888D01*
X53000967Y-24322664D01*
X52896845Y-24500164D01*
X52829352Y-24694567D01*
X52801082Y-24898401D01*
X49799536Y-24898401D01*
X49733937Y-24800226D01*
X49589774Y-24656063D01*
X49420256Y-24542795D01*
X49231898Y-24464774D01*
X49031939Y-24425000D01*
X48828061Y-24425000D01*
X48628102Y-24464774D01*
X48439744Y-24542795D01*
X48270226Y-24656063D01*
X48126063Y-24800226D01*
X48012795Y-24969744D01*
X47934774Y-25158102D01*
X47895000Y-25358061D01*
X39925808Y-25358061D01*
X39958414Y-25067719D01*
X39876351Y-24099079D01*
X39606893Y-23165062D01*
X39207747Y-22393137D01*
X44015000Y-22393137D01*
X44015000Y-22606863D01*
X44056696Y-22816483D01*
X44138485Y-23013940D01*
X44257225Y-23191647D01*
X44408353Y-23342775D01*
X44586060Y-23461515D01*
X44783517Y-23543304D01*
X44993137Y-23585000D01*
X45206863Y-23585000D01*
X45416483Y-23543304D01*
X45613940Y-23461515D01*
X45791647Y-23342775D01*
X45942775Y-23191647D01*
X46061515Y-23013940D01*
X46143304Y-22816483D01*
X46185000Y-22606863D01*
X46185000Y-22393137D01*
X47015000Y-22393137D01*
X47015000Y-22606863D01*
X47056696Y-22816483D01*
X47138485Y-23013940D01*
X47257225Y-23191647D01*
X47408353Y-23342775D01*
X47586060Y-23461515D01*
X47783517Y-23543304D01*
X47993137Y-23585000D01*
X48206863Y-23585000D01*
X48416483Y-23543304D01*
X48613940Y-23461515D01*
X48791647Y-23342775D01*
X48942775Y-23191647D01*
X49061515Y-23013940D01*
X49143304Y-22816483D01*
X49185000Y-22606863D01*
X49185000Y-22393137D01*
X49143304Y-22183517D01*
X49061515Y-21986060D01*
X48942775Y-21808353D01*
X48791647Y-21657225D01*
X48613940Y-21538485D01*
X48416483Y-21456696D01*
X48206863Y-21415000D01*
X47993137Y-21415000D01*
X47783517Y-21456696D01*
X47586060Y-21538485D01*
X47408353Y-21657225D01*
X47257225Y-21808353D01*
X47138485Y-21986060D01*
X47056696Y-22183517D01*
X47015000Y-22393137D01*
X46185000Y-22393137D01*
X46143304Y-22183517D01*
X46061515Y-21986060D01*
X45942775Y-21808353D01*
X45791647Y-21657225D01*
X45613940Y-21538485D01*
X45416483Y-21456696D01*
X45206863Y-21415000D01*
X44993137Y-21415000D01*
X44783517Y-21456696D01*
X44586060Y-21538485D01*
X44408353Y-21657225D01*
X44257225Y-21808353D01*
X44138485Y-21986060D01*
X44056696Y-22183517D01*
X44015000Y-22393137D01*
X39207747Y-22393137D01*
X39160394Y-22301560D01*
X39085149Y-22188946D01*
X38482818Y-21696787D01*
X35179605Y-25000000D01*
X34820395Y-25000000D01*
X34806253Y-24985858D01*
X34985858Y-24806253D01*
X35000000Y-24820395D01*
X38303213Y-21517182D01*
X37811054Y-20914851D01*
X37349534Y-20660000D01*
X72835695Y-20660000D01*
X72101560Y-21039606D01*
%TA.AperFunction,Conductor*%
D19*
G36*
X72101560Y-21039606D02*
G01*
X71988946Y-21114851D01*
X71496787Y-21717182D01*
X74800000Y-25020395D01*
X74814143Y-25006253D01*
X74993748Y-25185858D01*
X74979605Y-25200000D01*
X78282818Y-28503213D01*
X78885149Y-28011054D01*
X79340000Y-27187345D01*
X79340000Y-43238296D01*
X79275094Y-43024326D01*
X79165058Y-42818464D01*
X79016975Y-42638025D01*
X78836535Y-42489942D01*
X78630673Y-42379906D01*
X78407299Y-42312147D01*
X78175000Y-42289267D01*
X77942700Y-42312147D01*
X77719326Y-42379906D01*
X77513464Y-42489942D01*
X77333025Y-42638025D01*
X77184942Y-42818465D01*
X77074906Y-43024327D01*
X77007147Y-43247701D01*
X76990000Y-43421794D01*
X76990000Y-44638207D01*
X77007147Y-44812300D01*
X77074906Y-45035674D01*
X77184943Y-45241536D01*
X77333026Y-45421975D01*
X77513465Y-45570058D01*
X77719327Y-45680094D01*
X77942701Y-45747853D01*
X78175000Y-45770733D01*
X78407300Y-45747853D01*
X78630674Y-45680094D01*
X78836536Y-45570058D01*
X79016975Y-45421975D01*
X79165058Y-45241536D01*
X79275094Y-45035674D01*
X79340000Y-44821704D01*
X79340001Y-62835697D01*
X78960394Y-62101560D01*
X78885149Y-61988946D01*
X78282818Y-61496787D01*
X74979605Y-64800000D01*
X74993748Y-64814143D01*
X74814143Y-64993748D01*
X74800000Y-64979605D01*
X71496787Y-68282818D01*
X71988946Y-68885149D01*
X72812655Y-69340000D01*
X37351093Y-69340000D01*
X37698440Y-69160394D01*
X37811054Y-69085149D01*
X38303213Y-68482818D01*
X35000000Y-65179605D01*
X34985858Y-65193748D01*
X34806253Y-65014143D01*
X34820395Y-65000000D01*
X35179605Y-65000000D01*
X38482818Y-68303213D01*
X39085149Y-67811054D01*
X39555063Y-66960067D01*
X39849929Y-66033757D01*
X39958414Y-65067719D01*
X39876351Y-64099079D01*
X39630838Y-63248061D01*
X41315000Y-63248061D01*
X41315000Y-63451939D01*
X41354774Y-63651898D01*
X41422066Y-63814353D01*
X41400722Y-63854284D01*
X41353031Y-64011500D01*
X41336928Y-64175000D01*
X41336928Y-65075000D01*
X41353031Y-65238500D01*
X41400722Y-65395716D01*
X41478169Y-65540608D01*
X41582394Y-65667606D01*
X41709392Y-65771831D01*
X41854284Y-65849278D01*
X42011500Y-65896969D01*
X42175000Y-65913072D01*
X42575000Y-65913072D01*
X42738500Y-65896969D01*
X42895716Y-65849278D01*
X43040608Y-65771831D01*
X43066894Y-65750259D01*
X43227008Y-65835841D01*
X43422106Y-65895024D01*
X43625000Y-65915007D01*
X43827895Y-65895024D01*
X44022993Y-65835841D01*
X44202797Y-65739734D01*
X44250001Y-65700995D01*
X44297204Y-65739734D01*
X44477008Y-65835841D01*
X44672106Y-65895024D01*
X44875000Y-65915007D01*
X45077895Y-65895024D01*
X45272993Y-65835841D01*
X45452797Y-65739734D01*
X45492938Y-65706791D01*
X45576840Y-65770255D01*
X45762028Y-65859994D01*
X45838877Y-65869666D01*
X45998000Y-65741998D01*
X45998000Y-64752000D01*
X46252000Y-64752000D01*
X46252000Y-65741998D01*
X46411123Y-65869666D01*
X46487972Y-65859994D01*
X46673160Y-65770255D01*
X46837283Y-65646112D01*
X46974033Y-65492336D01*
X47078155Y-65314836D01*
X47145648Y-65120433D01*
X47173918Y-64916599D01*
X47008762Y-64752000D01*
X46252000Y-64752000D01*
X45998000Y-64752000D01*
X45978000Y-64752000D01*
X45978000Y-64498000D01*
X45998000Y-64498000D01*
X45998000Y-63508002D01*
X46252000Y-63508002D01*
X46252000Y-64498000D01*
X47008762Y-64498000D01*
X47173918Y-64333401D01*
X47145648Y-64129567D01*
X47078155Y-63935164D01*
X46974033Y-63757664D01*
X46967218Y-63750000D01*
X53411928Y-63750000D01*
X53411928Y-66150000D01*
X53424188Y-66274482D01*
X53460498Y-66394180D01*
X53519463Y-66504494D01*
X53598815Y-66601185D01*
X53695506Y-66680537D01*
X53805820Y-66739502D01*
X53925518Y-66775812D01*
X54050000Y-66788072D01*
X56450000Y-66788072D01*
X56574482Y-66775812D01*
X56694180Y-66739502D01*
X56804494Y-66680537D01*
X56901185Y-66601185D01*
X56980537Y-66504494D01*
X57039502Y-66394180D01*
X57075812Y-66274482D01*
X57080391Y-66227980D01*
X57651626Y-66227980D01*
X57771514Y-66512836D01*
X58095210Y-66673699D01*
X58444069Y-66768322D01*
X58804684Y-66793067D01*
X59163198Y-66746985D01*
X59505833Y-66631846D01*
X59728486Y-66512836D01*
X59848374Y-66227980D01*
X58750000Y-65129605D01*
X57651626Y-66227980D01*
X57080391Y-66227980D01*
X57088072Y-66150000D01*
X57088072Y-65743097D01*
X57187164Y-65928486D01*
X57472020Y-66048374D01*
X58570395Y-64950000D01*
X58929605Y-64950000D01*
X60027980Y-66048374D01*
X60312836Y-65928486D01*
X60473699Y-65604790D01*
X60568322Y-65255931D01*
X60593067Y-64895316D01*
X60572112Y-64732281D01*
X69841586Y-64732281D01*
X69923649Y-65700921D01*
X70193107Y-66634938D01*
X70639606Y-67498440D01*
X70714851Y-67611054D01*
X71317182Y-68103213D01*
X74620395Y-64800000D01*
X71317182Y-61496787D01*
X70714851Y-61988946D01*
X70244937Y-62839933D01*
X69950071Y-63766243D01*
X69841586Y-64732281D01*
X60572112Y-64732281D01*
X60546985Y-64536802D01*
X60431846Y-64194167D01*
X60312836Y-63971514D01*
X60027980Y-63851626D01*
X58929605Y-64950000D01*
X58570395Y-64950000D01*
X57472020Y-63851626D01*
X57187164Y-63971514D01*
X57088072Y-64170912D01*
X57088072Y-63750000D01*
X57080392Y-63672020D01*
X57651626Y-63672020D01*
X58750000Y-64770395D01*
X59848374Y-63672020D01*
X59728486Y-63387164D01*
X59404790Y-63226301D01*
X59055931Y-63131678D01*
X58695316Y-63106933D01*
X58336802Y-63153015D01*
X57994167Y-63268154D01*
X57771514Y-63387164D01*
X57651626Y-63672020D01*
X57080392Y-63672020D01*
X57075812Y-63625518D01*
X57039502Y-63505820D01*
X56980537Y-63395506D01*
X56901185Y-63298815D01*
X56804494Y-63219463D01*
X56694180Y-63160498D01*
X56574482Y-63124188D01*
X56450000Y-63111928D01*
X54050000Y-63111928D01*
X53925518Y-63124188D01*
X53805820Y-63160498D01*
X53695506Y-63219463D01*
X53598815Y-63298815D01*
X53519463Y-63395506D01*
X53460498Y-63505820D01*
X53424188Y-63625518D01*
X53411928Y-63750000D01*
X46967218Y-63750000D01*
X46837283Y-63603888D01*
X46673160Y-63479745D01*
X46487972Y-63390006D01*
X46411123Y-63380334D01*
X46252000Y-63508002D01*
X45998000Y-63508002D01*
X45838877Y-63380334D01*
X45762028Y-63390006D01*
X45576840Y-63479745D01*
X45492938Y-63543209D01*
X45452797Y-63510266D01*
X45272992Y-63414159D01*
X45077894Y-63354976D01*
X44875000Y-63334993D01*
X44672105Y-63354976D01*
X44477007Y-63414159D01*
X44297203Y-63510266D01*
X44250000Y-63549004D01*
X44202797Y-63510266D01*
X44022992Y-63414159D01*
X43827894Y-63354976D01*
X43625000Y-63334993D01*
X43422105Y-63354976D01*
X43385000Y-63366232D01*
X43385000Y-63248061D01*
X43345226Y-63048102D01*
X43267205Y-62859744D01*
X43153937Y-62690226D01*
X43009774Y-62546063D01*
X42840256Y-62432795D01*
X42651898Y-62354774D01*
X42451939Y-62315000D01*
X42248061Y-62315000D01*
X42048102Y-62354774D01*
X41859744Y-62432795D01*
X41690226Y-62546063D01*
X41546063Y-62690226D01*
X41432795Y-62859744D01*
X41354774Y-63048102D01*
X41315000Y-63248061D01*
X39630838Y-63248061D01*
X39606893Y-63165062D01*
X39160394Y-62301560D01*
X39085149Y-62188946D01*
X38482818Y-61696787D01*
X35179605Y-65000000D01*
X34820395Y-65000000D01*
X31517182Y-61696787D01*
X30914851Y-62188946D01*
X30660000Y-62650466D01*
X30660000Y-61517182D01*
X31696787Y-61517182D01*
X35000000Y-64820395D01*
X38303213Y-61517182D01*
X38139795Y-61317182D01*
X71496787Y-61317182D01*
X74800000Y-64620395D01*
X78103213Y-61317182D01*
X77611054Y-60714851D01*
X76760067Y-60244937D01*
X75833757Y-59950071D01*
X74867719Y-59841586D01*
X73899079Y-59923649D01*
X72965062Y-60193107D01*
X72101560Y-60639606D01*
X71988946Y-60714851D01*
X71496787Y-61317182D01*
X38139795Y-61317182D01*
X37811054Y-60914851D01*
X36960067Y-60444937D01*
X36033757Y-60150071D01*
X35067719Y-60041586D01*
X34099079Y-60123649D01*
X33165062Y-60393107D01*
X32301560Y-60839606D01*
X32188946Y-60914851D01*
X31696787Y-61517182D01*
X30660000Y-61517182D01*
X30660000Y-54728061D01*
X70365000Y-54728061D01*
X70365000Y-54931939D01*
X70404774Y-55131898D01*
X70482795Y-55320256D01*
X70596063Y-55489774D01*
X70740226Y-55633937D01*
X70909744Y-55747205D01*
X71098102Y-55825226D01*
X71298061Y-55865000D01*
X71501939Y-55865000D01*
X71701898Y-55825226D01*
X71890256Y-55747205D01*
X72059774Y-55633937D01*
X72203937Y-55489774D01*
X72317205Y-55320256D01*
X72395226Y-55131898D01*
X72435000Y-54931939D01*
X72435000Y-54728061D01*
X72395226Y-54528102D01*
X72391067Y-54518061D01*
X73255000Y-54518061D01*
X73255000Y-54721939D01*
X73294774Y-54921898D01*
X73372795Y-55110256D01*
X73486063Y-55279774D01*
X73630226Y-55423937D01*
X73799744Y-55537205D01*
X73988102Y-55615226D01*
X74188061Y-55655000D01*
X74391939Y-55655000D01*
X74591898Y-55615226D01*
X74780256Y-55537205D01*
X74949774Y-55423937D01*
X75069135Y-55304576D01*
X75126063Y-55389774D01*
X75270226Y-55533937D01*
X75439744Y-55647205D01*
X75628102Y-55725226D01*
X75828061Y-55765000D01*
X76031939Y-55765000D01*
X76231898Y-55725226D01*
X76420256Y-55647205D01*
X76589774Y-55533937D01*
X76733937Y-55389774D01*
X76847205Y-55220256D01*
X76925226Y-55031898D01*
X76965000Y-54831939D01*
X76965000Y-54628061D01*
X76925226Y-54428102D01*
X76847205Y-54239744D01*
X76733937Y-54070226D01*
X76589774Y-53926063D01*
X76420256Y-53812795D01*
X76231898Y-53734774D01*
X76031939Y-53695000D01*
X75828061Y-53695000D01*
X75628102Y-53734774D01*
X75439744Y-53812795D01*
X75270226Y-53926063D01*
X75150865Y-54045424D01*
X75093937Y-53960226D01*
X74949774Y-53816063D01*
X74780256Y-53702795D01*
X74591898Y-53624774D01*
X74391939Y-53585000D01*
X74188061Y-53585000D01*
X73988102Y-53624774D01*
X73799744Y-53702795D01*
X73630226Y-53816063D01*
X73486063Y-53960226D01*
X73372795Y-54129744D01*
X73294774Y-54318102D01*
X73255000Y-54518061D01*
X72391067Y-54518061D01*
X72362164Y-54448284D01*
X72435226Y-54271898D01*
X72475000Y-54071939D01*
X72475000Y-53868061D01*
X72435226Y-53668102D01*
X72357205Y-53479744D01*
X72243937Y-53310226D01*
X72099774Y-53166063D01*
X71930256Y-53052795D01*
X71741898Y-52974774D01*
X71541939Y-52935000D01*
X71338061Y-52935000D01*
X71138102Y-52974774D01*
X70949744Y-53052795D01*
X70780226Y-53166063D01*
X70636063Y-53310226D01*
X70522795Y-53479744D01*
X70444774Y-53668102D01*
X70405000Y-53868061D01*
X70405000Y-54071939D01*
X70444774Y-54271898D01*
X70477836Y-54351716D01*
X70404774Y-54528102D01*
X70365000Y-54728061D01*
X30660000Y-54728061D01*
X30660000Y-50648061D01*
X42585000Y-50648061D01*
X42585000Y-50851939D01*
X42624774Y-51051898D01*
X42702795Y-51240256D01*
X42816063Y-51409774D01*
X42960226Y-51553937D01*
X43129744Y-51667205D01*
X43318102Y-51745226D01*
X43518061Y-51785000D01*
X43721939Y-51785000D01*
X43921898Y-51745226D01*
X44110256Y-51667205D01*
X44279774Y-51553937D01*
X44423937Y-51409774D01*
X44537205Y-51240256D01*
X44615226Y-51051898D01*
X44655000Y-50851939D01*
X44655000Y-50648061D01*
X44615226Y-50448102D01*
X44537205Y-50259744D01*
X44423937Y-50090226D01*
X44406772Y-50073061D01*
X62390000Y-50073061D01*
X62390000Y-50276939D01*
X62429774Y-50476898D01*
X62507795Y-50665256D01*
X62621063Y-50834774D01*
X62765226Y-50978937D01*
X62934744Y-51092205D01*
X63123102Y-51170226D01*
X63323061Y-51210000D01*
X63526939Y-51210000D01*
X63726898Y-51170226D01*
X63915256Y-51092205D01*
X64084774Y-50978937D01*
X64228937Y-50834774D01*
X64342205Y-50665256D01*
X64420226Y-50476898D01*
X64460000Y-50276939D01*
X64460000Y-50073061D01*
X64433918Y-49941937D01*
X64546063Y-50109774D01*
X64690226Y-50253937D01*
X64859744Y-50367205D01*
X65048102Y-50445226D01*
X65248061Y-50485000D01*
X65451939Y-50485000D01*
X65537097Y-50468061D01*
X69395000Y-50468061D01*
X69395000Y-50671939D01*
X69434774Y-50871898D01*
X69512795Y-51060256D01*
X69626063Y-51229774D01*
X69770226Y-51373937D01*
X69939744Y-51487205D01*
X70128102Y-51565226D01*
X70328061Y-51605000D01*
X70531939Y-51605000D01*
X70731898Y-51565226D01*
X70845858Y-51518022D01*
X71008102Y-51585226D01*
X71208061Y-51625000D01*
X71411939Y-51625000D01*
X71611898Y-51585226D01*
X71749905Y-51528061D01*
X74355000Y-51528061D01*
X74355000Y-51731939D01*
X74394774Y-51931898D01*
X74472795Y-52120256D01*
X74586063Y-52289774D01*
X74730226Y-52433937D01*
X74899744Y-52547205D01*
X75088102Y-52625226D01*
X75288061Y-52665000D01*
X75491939Y-52665000D01*
X75691898Y-52625226D01*
X75880256Y-52547205D01*
X75895000Y-52537353D01*
X75909744Y-52547205D01*
X76062377Y-52610428D01*
X76035000Y-52748061D01*
X76035000Y-52951939D01*
X76074774Y-53151898D01*
X76152795Y-53340256D01*
X76266063Y-53509774D01*
X76410226Y-53653937D01*
X76579744Y-53767205D01*
X76768102Y-53845226D01*
X76968061Y-53885000D01*
X77171939Y-53885000D01*
X77371898Y-53845226D01*
X77560256Y-53767205D01*
X77729774Y-53653937D01*
X77873937Y-53509774D01*
X77987205Y-53340256D01*
X78065226Y-53151898D01*
X78105000Y-52951939D01*
X78105000Y-52748061D01*
X78065226Y-52548102D01*
X77987205Y-52359744D01*
X77873937Y-52190226D01*
X77729774Y-52046063D01*
X77560256Y-51932795D01*
X77407623Y-51869572D01*
X77435000Y-51731939D01*
X77435000Y-51528061D01*
X77395226Y-51328102D01*
X77317205Y-51139744D01*
X77203937Y-50970226D01*
X77059774Y-50826063D01*
X76890256Y-50712795D01*
X76701898Y-50634774D01*
X76501939Y-50595000D01*
X76298061Y-50595000D01*
X76098102Y-50634774D01*
X75909744Y-50712795D01*
X75895000Y-50722647D01*
X75880256Y-50712795D01*
X75691898Y-50634774D01*
X75491939Y-50595000D01*
X75288061Y-50595000D01*
X75088102Y-50634774D01*
X74899744Y-50712795D01*
X74730226Y-50826063D01*
X74586063Y-50970226D01*
X74472795Y-51139744D01*
X74394774Y-51328102D01*
X74355000Y-51528061D01*
X71749905Y-51528061D01*
X71800256Y-51507205D01*
X71969774Y-51393937D01*
X72113937Y-51249774D01*
X72227205Y-51080256D01*
X72305226Y-50891898D01*
X72345000Y-50691939D01*
X72345000Y-50488061D01*
X72305226Y-50288102D01*
X72227205Y-50099744D01*
X72113937Y-49930226D01*
X71969774Y-49786063D01*
X71800256Y-49672795D01*
X71611898Y-49594774D01*
X71411939Y-49555000D01*
X71208061Y-49555000D01*
X71008102Y-49594774D01*
X70894142Y-49641978D01*
X70731898Y-49574774D01*
X70531939Y-49535000D01*
X70328061Y-49535000D01*
X70128102Y-49574774D01*
X69939744Y-49652795D01*
X69770226Y-49766063D01*
X69626063Y-49910226D01*
X69512795Y-50079744D01*
X69434774Y-50268102D01*
X69395000Y-50468061D01*
X65537097Y-50468061D01*
X65651898Y-50445226D01*
X65840256Y-50367205D01*
X66009774Y-50253937D01*
X66153937Y-50109774D01*
X66267205Y-49940256D01*
X66345226Y-49751898D01*
X66385000Y-49551939D01*
X66385000Y-49348061D01*
X66345226Y-49148102D01*
X66267205Y-48959744D01*
X66153937Y-48790226D01*
X66009774Y-48646063D01*
X65840256Y-48532795D01*
X65651898Y-48454774D01*
X65451939Y-48415000D01*
X65248061Y-48415000D01*
X65048102Y-48454774D01*
X64859744Y-48532795D01*
X64690226Y-48646063D01*
X64546063Y-48790226D01*
X64432795Y-48959744D01*
X64354774Y-49148102D01*
X64315000Y-49348061D01*
X64315000Y-49551939D01*
X64341082Y-49683063D01*
X64228937Y-49515226D01*
X64084774Y-49371063D01*
X63915256Y-49257795D01*
X63726898Y-49179774D01*
X63526939Y-49140000D01*
X63323061Y-49140000D01*
X63123102Y-49179774D01*
X62934744Y-49257795D01*
X62765226Y-49371063D01*
X62621063Y-49515226D01*
X62507795Y-49684744D01*
X62429774Y-49873102D01*
X62390000Y-50073061D01*
X44406772Y-50073061D01*
X44279774Y-49946063D01*
X44110256Y-49832795D01*
X43921898Y-49754774D01*
X43721939Y-49715000D01*
X43518061Y-49715000D01*
X43318102Y-49754774D01*
X43129744Y-49832795D01*
X42960226Y-49946063D01*
X42816063Y-50090226D01*
X42702795Y-50259744D01*
X42624774Y-50448102D01*
X42585000Y-50648061D01*
X30660000Y-50648061D01*
X30660000Y-46918061D01*
X35965000Y-46918061D01*
X35965000Y-47121939D01*
X36004774Y-47321898D01*
X36082795Y-47510256D01*
X36196063Y-47679774D01*
X36340226Y-47823937D01*
X36509744Y-47937205D01*
X36698102Y-48015226D01*
X36744858Y-48024526D01*
X36792795Y-48140256D01*
X36906063Y-48309774D01*
X37050226Y-48453937D01*
X37219744Y-48567205D01*
X37408102Y-48645226D01*
X37608061Y-48685000D01*
X37811939Y-48685000D01*
X38011898Y-48645226D01*
X38200256Y-48567205D01*
X38369774Y-48453937D01*
X38465650Y-48358061D01*
X50765000Y-48358061D01*
X50765000Y-48561939D01*
X50804774Y-48761898D01*
X50882795Y-48950256D01*
X50996063Y-49119774D01*
X51140226Y-49263937D01*
X51309744Y-49377205D01*
X51498102Y-49455226D01*
X51698061Y-49495000D01*
X51901939Y-49495000D01*
X52101898Y-49455226D01*
X52290256Y-49377205D01*
X52459774Y-49263937D01*
X52603937Y-49119774D01*
X52717205Y-48950256D01*
X52795226Y-48761898D01*
X52835000Y-48561939D01*
X52835000Y-48358061D01*
X52795226Y-48158102D01*
X52717205Y-47969744D01*
X52603937Y-47800226D01*
X52459774Y-47656063D01*
X52290256Y-47542795D01*
X52101898Y-47464774D01*
X51901939Y-47425000D01*
X51698061Y-47425000D01*
X51498102Y-47464774D01*
X51309744Y-47542795D01*
X51140226Y-47656063D01*
X50996063Y-47800226D01*
X50882795Y-47969744D01*
X50804774Y-48158102D01*
X50765000Y-48358061D01*
X38465650Y-48358061D01*
X38513937Y-48309774D01*
X38627205Y-48140256D01*
X38705226Y-47951898D01*
X38745000Y-47751939D01*
X38745000Y-47548061D01*
X38705226Y-47348102D01*
X38627205Y-47159744D01*
X38513937Y-46990226D01*
X38369774Y-46846063D01*
X38200256Y-46732795D01*
X38011898Y-46654774D01*
X37965142Y-46645474D01*
X37917205Y-46529744D01*
X37803937Y-46360226D01*
X37659774Y-46216063D01*
X37490256Y-46102795D01*
X37301898Y-46024774D01*
X37101939Y-45985000D01*
X36898061Y-45985000D01*
X36698102Y-46024774D01*
X36509744Y-46102795D01*
X36340226Y-46216063D01*
X36196063Y-46360226D01*
X36082795Y-46529744D01*
X36004774Y-46718102D01*
X35965000Y-46918061D01*
X30660000Y-46918061D01*
X30660000Y-45220773D01*
X66925000Y-45220773D01*
X66925000Y-45424651D01*
X66964774Y-45624610D01*
X67042795Y-45812968D01*
X67156063Y-45982486D01*
X67300226Y-46126649D01*
X67469744Y-46239917D01*
X67658102Y-46317938D01*
X67858061Y-46357712D01*
X68061939Y-46357712D01*
X68261898Y-46317938D01*
X68450256Y-46239917D01*
X68619774Y-46126649D01*
X68763937Y-45982486D01*
X68877205Y-45812968D01*
X68955226Y-45624610D01*
X68995000Y-45424651D01*
X68995000Y-45237137D01*
X69063825Y-45283124D01*
X69252183Y-45361145D01*
X69452142Y-45400919D01*
X69656020Y-45400919D01*
X69855979Y-45361145D01*
X69979316Y-45310057D01*
X70064300Y-45345259D01*
X69935882Y-45431065D01*
X69791719Y-45575228D01*
X69678451Y-45744746D01*
X69600430Y-45933104D01*
X69560656Y-46133063D01*
X69560656Y-46336941D01*
X69600430Y-46536900D01*
X69678451Y-46725258D01*
X69791719Y-46894776D01*
X69935882Y-47038939D01*
X70105400Y-47152207D01*
X70293758Y-47230228D01*
X70493717Y-47270002D01*
X70697595Y-47270002D01*
X70897554Y-47230228D01*
X71085912Y-47152207D01*
X71255430Y-47038939D01*
X71399593Y-46894776D01*
X71512861Y-46725258D01*
X71590882Y-46536900D01*
X71613777Y-46421794D01*
X74840000Y-46421794D01*
X74840000Y-47238207D01*
X74857147Y-47412300D01*
X74924906Y-47635674D01*
X75034943Y-47841536D01*
X75183026Y-48021975D01*
X75363465Y-48170058D01*
X75569327Y-48280094D01*
X75792701Y-48347853D01*
X76025000Y-48370733D01*
X76257300Y-48347853D01*
X76480674Y-48280094D01*
X76686536Y-48170058D01*
X76866975Y-48021975D01*
X77015058Y-47841536D01*
X77125094Y-47635674D01*
X77192853Y-47412299D01*
X77210000Y-47238206D01*
X77210000Y-46421793D01*
X77192853Y-46247700D01*
X77125094Y-46024326D01*
X77015058Y-45818464D01*
X76866975Y-45638025D01*
X76686535Y-45489942D01*
X76480673Y-45379906D01*
X76257299Y-45312147D01*
X76025000Y-45289267D01*
X75792700Y-45312147D01*
X75569326Y-45379906D01*
X75363464Y-45489942D01*
X75183025Y-45638025D01*
X75034942Y-45818465D01*
X74924906Y-46024327D01*
X74857147Y-46247701D01*
X74840000Y-46421794D01*
X71613777Y-46421794D01*
X71630656Y-46336941D01*
X71630656Y-46133063D01*
X71590882Y-45933104D01*
X71512861Y-45744746D01*
X71399593Y-45575228D01*
X71255430Y-45431065D01*
X71085912Y-45317797D01*
X70981967Y-45274741D01*
X71110385Y-45188935D01*
X71254548Y-45044772D01*
X71367816Y-44875254D01*
X71445837Y-44686896D01*
X71485611Y-44486937D01*
X71485611Y-44283059D01*
X71445837Y-44083100D01*
X71367816Y-43894742D01*
X71254548Y-43725224D01*
X71110385Y-43581061D01*
X70940867Y-43467793D01*
X70752509Y-43389772D01*
X70552550Y-43349998D01*
X70348672Y-43349998D01*
X70148713Y-43389772D01*
X70025376Y-43440860D01*
X69855979Y-43370693D01*
X69656020Y-43330919D01*
X69452142Y-43330919D01*
X69252183Y-43370693D01*
X69063825Y-43448714D01*
X68894307Y-43561982D01*
X68750144Y-43706145D01*
X68636876Y-43875663D01*
X68558855Y-44064021D01*
X68519081Y-44263980D01*
X68519081Y-44451494D01*
X68450256Y-44405507D01*
X68261898Y-44327486D01*
X68061939Y-44287712D01*
X67858061Y-44287712D01*
X67658102Y-44327486D01*
X67469744Y-44405507D01*
X67300226Y-44518775D01*
X67156063Y-44662938D01*
X67042795Y-44832456D01*
X66964774Y-45020814D01*
X66925000Y-45220773D01*
X30660000Y-45220773D01*
X30660000Y-41828061D01*
X48645000Y-41828061D01*
X48645000Y-42031939D01*
X48684774Y-42231898D01*
X48762795Y-42420256D01*
X48876063Y-42589774D01*
X49020226Y-42733937D01*
X49189744Y-42847205D01*
X49378102Y-42925226D01*
X49578061Y-42965000D01*
X49781939Y-42965000D01*
X49981898Y-42925226D01*
X50170256Y-42847205D01*
X50339774Y-42733937D01*
X50483937Y-42589774D01*
X50597205Y-42420256D01*
X50675226Y-42231898D01*
X50715000Y-42031939D01*
X50715000Y-41828061D01*
X50675226Y-41628102D01*
X50597205Y-41439744D01*
X50483937Y-41270226D01*
X50339774Y-41126063D01*
X50170256Y-41012795D01*
X49981898Y-40934774D01*
X49781939Y-40895000D01*
X49578061Y-40895000D01*
X49378102Y-40934774D01*
X49189744Y-41012795D01*
X49020226Y-41126063D01*
X48876063Y-41270226D01*
X48762795Y-41439744D01*
X48684774Y-41628102D01*
X48645000Y-41828061D01*
X30660000Y-41828061D01*
X30660000Y-40821794D01*
X74840000Y-40821794D01*
X74840000Y-41638207D01*
X74857147Y-41812300D01*
X74924906Y-42035674D01*
X75034943Y-42241536D01*
X75183026Y-42421975D01*
X75363465Y-42570058D01*
X75569327Y-42680094D01*
X75792701Y-42747853D01*
X76025000Y-42770733D01*
X76257300Y-42747853D01*
X76480674Y-42680094D01*
X76686536Y-42570058D01*
X76866975Y-42421975D01*
X77015058Y-42241536D01*
X77125094Y-42035674D01*
X77192853Y-41812299D01*
X77210000Y-41638206D01*
X77210000Y-40821793D01*
X77192853Y-40647700D01*
X77125094Y-40424326D01*
X77015058Y-40218464D01*
X76866975Y-40038025D01*
X76686535Y-39889942D01*
X76480673Y-39779906D01*
X76257299Y-39712147D01*
X76025000Y-39689267D01*
X75792700Y-39712147D01*
X75569326Y-39779906D01*
X75363464Y-39889942D01*
X75183025Y-40038025D01*
X75034942Y-40218465D01*
X74924906Y-40424327D01*
X74857147Y-40647701D01*
X74840000Y-40821794D01*
X30660000Y-40821794D01*
X30660000Y-35278061D01*
X39175000Y-35278061D01*
X39175000Y-35481939D01*
X39214774Y-35681898D01*
X39292795Y-35870256D01*
X39406063Y-36039774D01*
X39550226Y-36183937D01*
X39719744Y-36297205D01*
X39908102Y-36375226D01*
X40108061Y-36415000D01*
X40111623Y-36415000D01*
X40064774Y-36528102D01*
X40025000Y-36728061D01*
X40025000Y-36931939D01*
X40064774Y-37131898D01*
X40142795Y-37320256D01*
X40256063Y-37489774D01*
X40400226Y-37633937D01*
X40569744Y-37747205D01*
X40758102Y-37825226D01*
X40958061Y-37865000D01*
X41161939Y-37865000D01*
X41361898Y-37825226D01*
X41550256Y-37747205D01*
X41719774Y-37633937D01*
X41863937Y-37489774D01*
X41977205Y-37320256D01*
X42055226Y-37131898D01*
X42089804Y-36958061D01*
X50825000Y-36958061D01*
X50825000Y-37161939D01*
X50864774Y-37361898D01*
X50942795Y-37550256D01*
X51056063Y-37719774D01*
X51200226Y-37863937D01*
X51369744Y-37977205D01*
X51558102Y-38055226D01*
X51758061Y-38095000D01*
X51961939Y-38095000D01*
X52161898Y-38055226D01*
X52350256Y-37977205D01*
X52519774Y-37863937D01*
X52663937Y-37719774D01*
X52777205Y-37550256D01*
X52827820Y-37428061D01*
X58425000Y-37428061D01*
X58425000Y-37631939D01*
X58464774Y-37831898D01*
X58542795Y-38020256D01*
X58656063Y-38189774D01*
X58800226Y-38333937D01*
X58969744Y-38447205D01*
X59158102Y-38525226D01*
X59358061Y-38565000D01*
X59561939Y-38565000D01*
X59761898Y-38525226D01*
X59950256Y-38447205D01*
X60119774Y-38333937D01*
X60263937Y-38189774D01*
X60377205Y-38020256D01*
X60455226Y-37831898D01*
X60495000Y-37631939D01*
X60495000Y-37428061D01*
X60455226Y-37228102D01*
X60377205Y-37039744D01*
X60263937Y-36870226D01*
X60119774Y-36726063D01*
X60003036Y-36648061D01*
X71325000Y-36648061D01*
X71325000Y-36851939D01*
X71364774Y-37051898D01*
X71442795Y-37240256D01*
X71556063Y-37409774D01*
X71700226Y-37553937D01*
X71869744Y-37667205D01*
X72058102Y-37745226D01*
X72096725Y-37752909D01*
X72032155Y-37796053D01*
X71887992Y-37940216D01*
X71774724Y-38109734D01*
X71696703Y-38298092D01*
X71656929Y-38498051D01*
X71656929Y-38701929D01*
X71696703Y-38901888D01*
X71774724Y-39090246D01*
X71887992Y-39259764D01*
X72032155Y-39403927D01*
X72201673Y-39517195D01*
X72390031Y-39595216D01*
X72589990Y-39634990D01*
X72793868Y-39634990D01*
X72993827Y-39595216D01*
X73182185Y-39517195D01*
X73351703Y-39403927D01*
X73495866Y-39259764D01*
X73609134Y-39090246D01*
X73687155Y-38901888D01*
X73726929Y-38701929D01*
X73726929Y-38498051D01*
X73687155Y-38298092D01*
X73609134Y-38109734D01*
X73495866Y-37940216D01*
X73351703Y-37796053D01*
X73182185Y-37682785D01*
X72993827Y-37604764D01*
X72955204Y-37597081D01*
X73019774Y-37553937D01*
X73163937Y-37409774D01*
X73277205Y-37240256D01*
X73355226Y-37051898D01*
X73395000Y-36851939D01*
X73395000Y-36648061D01*
X73355226Y-36448102D01*
X73277205Y-36259744D01*
X73163937Y-36090226D01*
X73019774Y-35946063D01*
X72850256Y-35832795D01*
X72661898Y-35754774D01*
X72461939Y-35715000D01*
X72258061Y-35715000D01*
X72058102Y-35754774D01*
X71869744Y-35832795D01*
X71700226Y-35946063D01*
X71556063Y-36090226D01*
X71442795Y-36259744D01*
X71364774Y-36448102D01*
X71325000Y-36648061D01*
X60003036Y-36648061D01*
X59950256Y-36612795D01*
X59761898Y-36534774D01*
X59561939Y-36495000D01*
X59358061Y-36495000D01*
X59158102Y-36534774D01*
X58969744Y-36612795D01*
X58800226Y-36726063D01*
X58656063Y-36870226D01*
X58542795Y-37039744D01*
X58464774Y-37228102D01*
X58425000Y-37428061D01*
X52827820Y-37428061D01*
X52855226Y-37361898D01*
X52895000Y-37161939D01*
X52895000Y-36958061D01*
X52855226Y-36758102D01*
X52777205Y-36569744D01*
X52663937Y-36400226D01*
X52519774Y-36256063D01*
X52350256Y-36142795D01*
X52161898Y-36064774D01*
X51961939Y-36025000D01*
X51758061Y-36025000D01*
X51558102Y-36064774D01*
X51369744Y-36142795D01*
X51200226Y-36256063D01*
X51056063Y-36400226D01*
X50942795Y-36569744D01*
X50864774Y-36758102D01*
X50825000Y-36958061D01*
X42089804Y-36958061D01*
X42095000Y-36931939D01*
X42095000Y-36728061D01*
X42055226Y-36528102D01*
X41977205Y-36339744D01*
X41863937Y-36170226D01*
X41719774Y-36026063D01*
X41550256Y-35912795D01*
X41361898Y-35834774D01*
X41161939Y-35795000D01*
X41158377Y-35795000D01*
X41205226Y-35681898D01*
X41245000Y-35481939D01*
X41245000Y-35278061D01*
X41205226Y-35078102D01*
X41127205Y-34889744D01*
X41013937Y-34720226D01*
X40869774Y-34576063D01*
X40700256Y-34462795D01*
X40640544Y-34438061D01*
X41095000Y-34438061D01*
X41095000Y-34641939D01*
X41134774Y-34841898D01*
X41212795Y-35030256D01*
X41326063Y-35199774D01*
X41470226Y-35343937D01*
X41639744Y-35457205D01*
X41828102Y-35535226D01*
X42028061Y-35575000D01*
X42231939Y-35575000D01*
X42431898Y-35535226D01*
X42620256Y-35457205D01*
X42789774Y-35343937D01*
X42933937Y-35199774D01*
X43047205Y-35030256D01*
X43125226Y-34841898D01*
X43165000Y-34641939D01*
X43165000Y-34438061D01*
X43125226Y-34238102D01*
X43047205Y-34049744D01*
X42933937Y-33880226D01*
X42789774Y-33736063D01*
X42620256Y-33622795D01*
X42431898Y-33544774D01*
X42231939Y-33505000D01*
X42028061Y-33505000D01*
X41828102Y-33544774D01*
X41639744Y-33622795D01*
X41470226Y-33736063D01*
X41326063Y-33880226D01*
X41212795Y-34049744D01*
X41134774Y-34238102D01*
X41095000Y-34438061D01*
X40640544Y-34438061D01*
X40511898Y-34384774D01*
X40311939Y-34345000D01*
X40108061Y-34345000D01*
X39908102Y-34384774D01*
X39719744Y-34462795D01*
X39550226Y-34576063D01*
X39406063Y-34720226D01*
X39292795Y-34889744D01*
X39214774Y-35078102D01*
X39175000Y-35278061D01*
X30660000Y-35278061D01*
X30660000Y-33228061D01*
X44275000Y-33228061D01*
X44275000Y-33431939D01*
X44314774Y-33631898D01*
X44392795Y-33820256D01*
X44506063Y-33989774D01*
X44650226Y-34133937D01*
X44819744Y-34247205D01*
X45008102Y-34325226D01*
X45208061Y-34365000D01*
X45411939Y-34365000D01*
X45611898Y-34325226D01*
X45800256Y-34247205D01*
X45969774Y-34133937D01*
X46095650Y-34008061D01*
X47985000Y-34008061D01*
X47985000Y-34211939D01*
X48024774Y-34411898D01*
X48102795Y-34600256D01*
X48216063Y-34769774D01*
X48360226Y-34913937D01*
X48529744Y-35027205D01*
X48718102Y-35105226D01*
X48918061Y-35145000D01*
X49121939Y-35145000D01*
X49321898Y-35105226D01*
X49510256Y-35027205D01*
X49679774Y-34913937D01*
X49823937Y-34769774D01*
X49937205Y-34600256D01*
X49975393Y-34508061D01*
X74865000Y-34508061D01*
X74865000Y-34711939D01*
X74904774Y-34911898D01*
X74982795Y-35100256D01*
X75096063Y-35269774D01*
X75240226Y-35413937D01*
X75409744Y-35527205D01*
X75598102Y-35605226D01*
X75798061Y-35645000D01*
X76001939Y-35645000D01*
X76201898Y-35605226D01*
X76390256Y-35527205D01*
X76559774Y-35413937D01*
X76703937Y-35269774D01*
X76817205Y-35100256D01*
X76895226Y-34911898D01*
X76935000Y-34711939D01*
X76935000Y-34508061D01*
X76895226Y-34308102D01*
X76817205Y-34119744D01*
X76703937Y-33950226D01*
X76559774Y-33806063D01*
X76390256Y-33692795D01*
X76201898Y-33614774D01*
X76001939Y-33575000D01*
X75798061Y-33575000D01*
X75598102Y-33614774D01*
X75409744Y-33692795D01*
X75240226Y-33806063D01*
X75096063Y-33950226D01*
X74982795Y-34119744D01*
X74904774Y-34308102D01*
X74865000Y-34508061D01*
X49975393Y-34508061D01*
X50015226Y-34411898D01*
X50055000Y-34211939D01*
X50055000Y-34008061D01*
X50015226Y-33808102D01*
X49937205Y-33619744D01*
X49823937Y-33450226D01*
X49679774Y-33306063D01*
X49510256Y-33192795D01*
X49321898Y-33114774D01*
X49121939Y-33075000D01*
X48918061Y-33075000D01*
X48718102Y-33114774D01*
X48529744Y-33192795D01*
X48360226Y-33306063D01*
X48216063Y-33450226D01*
X48102795Y-33619744D01*
X48024774Y-33808102D01*
X47985000Y-34008061D01*
X46095650Y-34008061D01*
X46113937Y-33989774D01*
X46227205Y-33820256D01*
X46305226Y-33631898D01*
X46345000Y-33431939D01*
X46345000Y-33228061D01*
X46305226Y-33028102D01*
X46227205Y-32839744D01*
X46113937Y-32670226D01*
X45969774Y-32526063D01*
X45800256Y-32412795D01*
X45611898Y-32334774D01*
X45411939Y-32295000D01*
X45208061Y-32295000D01*
X45008102Y-32334774D01*
X44819744Y-32412795D01*
X44650226Y-32526063D01*
X44506063Y-32670226D01*
X44392795Y-32839744D01*
X44314774Y-33028102D01*
X44275000Y-33228061D01*
X30660000Y-33228061D01*
X30660000Y-28482818D01*
X31696787Y-28482818D01*
X32188946Y-29085149D01*
X33039933Y-29555063D01*
X33966243Y-29849929D01*
X34932281Y-29958414D01*
X35900921Y-29876351D01*
X36834938Y-29606893D01*
X37698440Y-29160394D01*
X37811054Y-29085149D01*
X38139794Y-28682818D01*
X71496787Y-28682818D01*
X71988946Y-29285149D01*
X72839933Y-29755063D01*
X73766243Y-30049929D01*
X74732281Y-30158414D01*
X75700921Y-30076351D01*
X76634938Y-29806893D01*
X77498440Y-29360394D01*
X77611054Y-29285149D01*
X78103213Y-28682818D01*
X74800000Y-25379605D01*
X71496787Y-28682818D01*
X38139794Y-28682818D01*
X38303213Y-28482818D01*
X35000000Y-25179605D01*
X31696787Y-28482818D01*
X30660000Y-28482818D01*
X30660000Y-27351093D01*
X30839606Y-27698440D01*
X30914851Y-27811054D01*
X31517182Y-28303213D01*
X34820395Y-25000000D01*
X35179605Y-25000000D01*
X38482818Y-28303213D01*
X39085149Y-27811054D01*
X39555063Y-26960067D01*
X39849929Y-26033757D01*
X39925808Y-25358061D01*
X47895000Y-25358061D01*
X47895000Y-25561939D01*
X47934774Y-25761898D01*
X48012795Y-25950256D01*
X48126063Y-26119774D01*
X48270226Y-26263937D01*
X48439744Y-26377205D01*
X48628102Y-26455226D01*
X48828061Y-26495000D01*
X49031939Y-26495000D01*
X49231898Y-26455226D01*
X49420256Y-26377205D01*
X49589774Y-26263937D01*
X49733937Y-26119774D01*
X49847205Y-25950256D01*
X49925226Y-25761898D01*
X49965000Y-25561939D01*
X49965000Y-25481599D01*
X52801082Y-25481599D01*
X52829352Y-25685433D01*
X52896845Y-25879836D01*
X53000967Y-26057336D01*
X53137717Y-26211112D01*
X53301840Y-26335255D01*
X53487028Y-26424994D01*
X53563877Y-26434666D01*
X53723000Y-26306998D01*
X53723000Y-25317000D01*
X52966238Y-25317000D01*
X52801082Y-25481599D01*
X49965000Y-25481599D01*
X49965000Y-25358061D01*
X49925226Y-25158102D01*
X49847205Y-24969744D01*
X49799536Y-24898401D01*
X52801082Y-24898401D01*
X52966238Y-25063000D01*
X53723000Y-25063000D01*
X53723000Y-24073002D01*
X53977000Y-24073002D01*
X53977000Y-25063000D01*
X53997000Y-25063000D01*
X53997000Y-25317000D01*
X53977000Y-25317000D01*
X53977000Y-26306998D01*
X54136123Y-26434666D01*
X54212972Y-26424994D01*
X54398160Y-26335255D01*
X54482062Y-26271791D01*
X54522203Y-26304734D01*
X54702007Y-26400841D01*
X54897105Y-26460024D01*
X55100000Y-26480007D01*
X55302894Y-26460024D01*
X55497992Y-26400841D01*
X55677797Y-26304734D01*
X55725000Y-26265996D01*
X55772203Y-26304734D01*
X55952007Y-26400841D01*
X56147105Y-26460024D01*
X56350000Y-26480007D01*
X56552894Y-26460024D01*
X56747992Y-26400841D01*
X56908106Y-26315259D01*
X56934392Y-26336831D01*
X57079284Y-26414278D01*
X57236500Y-26461969D01*
X57400000Y-26478072D01*
X57800000Y-26478072D01*
X57963500Y-26461969D01*
X58120716Y-26414278D01*
X58265608Y-26336831D01*
X58392606Y-26232606D01*
X58496831Y-26105608D01*
X58574278Y-25960716D01*
X58621969Y-25803500D01*
X58638072Y-25640000D01*
X58638072Y-25132281D01*
X69841586Y-25132281D01*
X69923649Y-26100921D01*
X70193107Y-27034938D01*
X70639606Y-27898440D01*
X70714851Y-28011054D01*
X71317182Y-28503213D01*
X74620395Y-25200000D01*
X71317182Y-21896787D01*
X70714851Y-22388946D01*
X70244937Y-23239933D01*
X69950071Y-24166243D01*
X69841586Y-25132281D01*
X58638072Y-25132281D01*
X58638072Y-24740000D01*
X58621969Y-24576500D01*
X58574278Y-24419284D01*
X58517846Y-24313708D01*
X58595226Y-24126898D01*
X58635000Y-23926939D01*
X58635000Y-23723061D01*
X58595226Y-23523102D01*
X58517205Y-23334744D01*
X58403937Y-23165226D01*
X58259774Y-23021063D01*
X58090256Y-22907795D01*
X57901898Y-22829774D01*
X57701939Y-22790000D01*
X57498061Y-22790000D01*
X57298102Y-22829774D01*
X57109744Y-22907795D01*
X56940226Y-23021063D01*
X56796063Y-23165226D01*
X56682795Y-23334744D01*
X56604774Y-23523102D01*
X56565000Y-23723061D01*
X56565000Y-23923648D01*
X56552895Y-23919976D01*
X56350000Y-23899993D01*
X56147106Y-23919976D01*
X55952008Y-23979159D01*
X55772204Y-24075266D01*
X55725001Y-24114005D01*
X55677797Y-24075266D01*
X55497993Y-23979159D01*
X55302895Y-23919976D01*
X55100000Y-23899993D01*
X54897106Y-23919976D01*
X54702008Y-23979159D01*
X54522204Y-24075266D01*
X54482063Y-24108209D01*
X54398160Y-24044745D01*
X54212972Y-23955006D01*
X54136123Y-23945334D01*
X53977000Y-24073002D01*
X53723000Y-24073002D01*
X53563877Y-23945334D01*
X53487028Y-23955006D01*
X53301840Y-24044745D01*
X53137717Y-24168888D01*
X53000967Y-24322664D01*
X52896845Y-24500164D01*
X52829352Y-24694567D01*
X52801082Y-24898401D01*
X49799536Y-24898401D01*
X49733937Y-24800226D01*
X49589774Y-24656063D01*
X49420256Y-24542795D01*
X49231898Y-24464774D01*
X49031939Y-24425000D01*
X48828061Y-24425000D01*
X48628102Y-24464774D01*
X48439744Y-24542795D01*
X48270226Y-24656063D01*
X48126063Y-24800226D01*
X48012795Y-24969744D01*
X47934774Y-25158102D01*
X47895000Y-25358061D01*
X39925808Y-25358061D01*
X39958414Y-25067719D01*
X39876351Y-24099079D01*
X39606893Y-23165062D01*
X39207747Y-22393137D01*
X44015000Y-22393137D01*
X44015000Y-22606863D01*
X44056696Y-22816483D01*
X44138485Y-23013940D01*
X44257225Y-23191647D01*
X44408353Y-23342775D01*
X44586060Y-23461515D01*
X44783517Y-23543304D01*
X44993137Y-23585000D01*
X45206863Y-23585000D01*
X45416483Y-23543304D01*
X45613940Y-23461515D01*
X45791647Y-23342775D01*
X45942775Y-23191647D01*
X46061515Y-23013940D01*
X46143304Y-22816483D01*
X46185000Y-22606863D01*
X46185000Y-22393137D01*
X47015000Y-22393137D01*
X47015000Y-22606863D01*
X47056696Y-22816483D01*
X47138485Y-23013940D01*
X47257225Y-23191647D01*
X47408353Y-23342775D01*
X47586060Y-23461515D01*
X47783517Y-23543304D01*
X47993137Y-23585000D01*
X48206863Y-23585000D01*
X48416483Y-23543304D01*
X48613940Y-23461515D01*
X48791647Y-23342775D01*
X48942775Y-23191647D01*
X49061515Y-23013940D01*
X49143304Y-22816483D01*
X49185000Y-22606863D01*
X49185000Y-22393137D01*
X49143304Y-22183517D01*
X49061515Y-21986060D01*
X48942775Y-21808353D01*
X48791647Y-21657225D01*
X48613940Y-21538485D01*
X48416483Y-21456696D01*
X48206863Y-21415000D01*
X47993137Y-21415000D01*
X47783517Y-21456696D01*
X47586060Y-21538485D01*
X47408353Y-21657225D01*
X47257225Y-21808353D01*
X47138485Y-21986060D01*
X47056696Y-22183517D01*
X47015000Y-22393137D01*
X46185000Y-22393137D01*
X46143304Y-22183517D01*
X46061515Y-21986060D01*
X45942775Y-21808353D01*
X45791647Y-21657225D01*
X45613940Y-21538485D01*
X45416483Y-21456696D01*
X45206863Y-21415000D01*
X44993137Y-21415000D01*
X44783517Y-21456696D01*
X44586060Y-21538485D01*
X44408353Y-21657225D01*
X44257225Y-21808353D01*
X44138485Y-21986060D01*
X44056696Y-22183517D01*
X44015000Y-22393137D01*
X39207747Y-22393137D01*
X39160394Y-22301560D01*
X39085149Y-22188946D01*
X38482818Y-21696787D01*
X35179605Y-25000000D01*
X34820395Y-25000000D01*
X34806253Y-24985858D01*
X34985858Y-24806253D01*
X35000000Y-24820395D01*
X38303213Y-21517182D01*
X37811054Y-20914851D01*
X37349534Y-20660000D01*
X72835695Y-20660000D01*
X72101560Y-21039606D01*
G37*
%TD.AperFunction*%
%TD*%
M02*
