%TF.GenerationSoftware,KiCad,Pcbnew,(5.1.10-1-10_14)*%
%TF.CreationDate,2022-04-25T19:01:15+02:00*%
%TF.ProjectId,STM32_USB_BuckConvertor,53544d33-325f-4555-9342-5f4275636b43,rev?*%
%TF.SameCoordinates,Original*%
%TF.FileFunction,Legend,Top*%
%TF.FilePolarity,Positive*%
%FSLAX46Y46*%
G04 Gerber Fmt 4.6, Leading zero omitted, Abs format (unit mm)*
G04 Created by KiCad (PCBNEW (5.1.10-1-10_14)) date 2022-04-25 19:01:15*
%MOMM*%
%LPD*%
G01*
G04 APERTURE LIST*
%ADD10C,0.120000*%
G04 APERTURE END LIST*
D10*
%TO.C,U1*%
X70460000Y-45970000D02*
X72910000Y-45970000D01*
X72260000Y-42750000D02*
X70460000Y-42750000D01*
%TO.C,U2*%
X40915000Y-38440000D02*
X39575000Y-38440000D01*
X40915000Y-37490000D02*
X40915000Y-38440000D01*
X41865000Y-37490000D02*
X40915000Y-37490000D01*
X51135000Y-37490000D02*
X51135000Y-38440000D01*
X50185000Y-37490000D02*
X51135000Y-37490000D01*
X40915000Y-47710000D02*
X40915000Y-46760000D01*
X41865000Y-47710000D02*
X40915000Y-47710000D01*
X51135000Y-47710000D02*
X51135000Y-46760000D01*
X50185000Y-47710000D02*
X51135000Y-47710000D01*
%TO.C,C1*%
X56158748Y-56380000D02*
X57581252Y-56380000D01*
X56158748Y-54560000D02*
X57581252Y-54560000D01*
%TO.C,C2*%
X69631252Y-53820000D02*
X68208748Y-53820000D01*
X69631252Y-55640000D02*
X68208748Y-55640000D01*
%TO.C,C3*%
X69631252Y-51020000D02*
X68208748Y-51020000D01*
X69631252Y-52840000D02*
X68208748Y-52840000D01*
%TO.C,C4*%
X65527836Y-53870000D02*
X65312164Y-53870000D01*
X65527836Y-54590000D02*
X65312164Y-54590000D01*
%TO.C,C5*%
X39165580Y-36990000D02*
X38884420Y-36990000D01*
X39165580Y-38010000D02*
X38884420Y-38010000D01*
%TO.C,C6*%
X39832836Y-35740000D02*
X39617164Y-35740000D01*
X39832836Y-36460000D02*
X39617164Y-36460000D01*
%TO.C,C7*%
X43232836Y-49640000D02*
X43017164Y-49640000D01*
X43232836Y-50360000D02*
X43017164Y-50360000D01*
%TO.C,C8*%
X50690000Y-48842164D02*
X50690000Y-49057836D01*
X51410000Y-48842164D02*
X51410000Y-49057836D01*
%TO.C,C9*%
X52242164Y-38160000D02*
X52457836Y-38160000D01*
X52242164Y-37440000D02*
X52457836Y-37440000D01*
%TO.C,C10*%
X42482164Y-35650000D02*
X42697836Y-35650000D01*
X42482164Y-34930000D02*
X42697836Y-34930000D01*
%TO.C,C11*%
X39090000Y-44397836D02*
X39090000Y-44182164D01*
X38370000Y-44397836D02*
X38370000Y-44182164D01*
%TO.C,C12*%
X38332836Y-45440000D02*
X38117164Y-45440000D01*
X38332836Y-46160000D02*
X38117164Y-46160000D01*
%TO.C,C13*%
X49160000Y-50809420D02*
X49160000Y-51090580D01*
X50180000Y-50809420D02*
X50180000Y-51090580D01*
%TO.C,C14*%
X54685000Y-37390580D02*
X54685000Y-37109420D01*
X53665000Y-37390580D02*
X53665000Y-37109420D01*
%TO.C,C15*%
X35412164Y-38610000D02*
X35627836Y-38610000D01*
X35412164Y-37890000D02*
X35627836Y-37890000D01*
%TO.C,C16*%
X35547836Y-43320000D02*
X35332164Y-43320000D01*
X35547836Y-44040000D02*
X35332164Y-44040000D01*
%TO.C,D1*%
X54270000Y-54910000D02*
X50370000Y-54910000D01*
X54270000Y-52910000D02*
X50370000Y-52910000D01*
X54270000Y-54910000D02*
X54270000Y-52910000D01*
%TO.C,D2*%
X66540000Y-56410000D02*
X70440000Y-56410000D01*
X66540000Y-58410000D02*
X70440000Y-58410000D01*
X66540000Y-56410000D02*
X66540000Y-58410000D01*
%TO.C,D3*%
X55910000Y-46265000D02*
X53625000Y-46265000D01*
X55910000Y-47735000D02*
X55910000Y-46265000D01*
X53625000Y-47735000D02*
X55910000Y-47735000D01*
%TO.C,D4*%
X64615000Y-46315000D02*
X64615000Y-48600000D01*
X66085000Y-46315000D02*
X64615000Y-46315000D01*
X66085000Y-48600000D02*
X66085000Y-46315000D01*
%TO.C,F1*%
X52572064Y-55520000D02*
X51367936Y-55520000D01*
X52572064Y-57340000D02*
X51367936Y-57340000D01*
%TO.C,FB1*%
X56699622Y-57140000D02*
X55900378Y-57140000D01*
X56699622Y-58260000D02*
X55900378Y-58260000D01*
%TO.C,IC1*%
X65740000Y-58140000D02*
X65740000Y-55690000D01*
X62520000Y-56340000D02*
X62520000Y-58140000D01*
%TO.C,J1*%
X53200000Y-69750000D02*
X53600000Y-69750000D01*
X53200000Y-69110000D02*
X53200000Y-69750000D01*
X57605000Y-65891000D02*
X57476000Y-66019000D01*
X59820000Y-63675000D02*
X59726000Y-63769000D01*
X57775000Y-66131000D02*
X57681000Y-66224000D01*
X60025000Y-63881000D02*
X59896000Y-64009000D01*
X60560000Y-61790000D02*
X60560000Y-69510000D01*
X53440000Y-61790000D02*
X53440000Y-69510000D01*
X53440000Y-69510000D02*
X60560000Y-69510000D01*
X53440000Y-61790000D02*
X60560000Y-61790000D01*
X53440000Y-67950000D02*
X60560000Y-67950000D01*
X53440000Y-69050000D02*
X60560000Y-69050000D01*
X60430000Y-64950000D02*
G75*
G03*
X60430000Y-64950000I-1680000J0D01*
G01*
X55278674Y-66630099D02*
G75*
G02*
X54384000Y-66390000I-28674J1680099D01*
G01*
X53824642Y-65839894D02*
G75*
G02*
X53810000Y-64084000I1425358J889894D01*
G01*
X54360106Y-63524642D02*
G75*
G02*
X56116000Y-63510000I889894J-1425358D01*
G01*
X56675505Y-64059807D02*
G75*
G02*
X56675000Y-65841000I-1425505J-890193D01*
G01*
X56140264Y-66374721D02*
G75*
G02*
X55250000Y-66630000I-890264J1424721D01*
G01*
%TO.C,J2*%
X52240000Y-20630000D02*
X55725000Y-20630000D01*
X52240000Y-26350000D02*
X52240000Y-20630000D01*
X53310000Y-26350000D02*
X52240000Y-26350000D01*
X53310000Y-26050000D02*
X53310000Y-26350000D01*
X55725000Y-26050000D02*
X53310000Y-26050000D01*
X59210000Y-20630000D02*
X55725000Y-20630000D01*
X59210000Y-26350000D02*
X59210000Y-20630000D01*
X58140000Y-26350000D02*
X59210000Y-26350000D01*
X58140000Y-26050000D02*
X58140000Y-26350000D01*
X55725000Y-26050000D02*
X58140000Y-26050000D01*
X57850000Y-26640000D02*
X58350000Y-26640000D01*
X57850000Y-26340000D02*
X57850000Y-26640000D01*
%TO.C,J3*%
X47735000Y-69185000D02*
X44250000Y-69185000D01*
X47735000Y-63465000D02*
X47735000Y-69185000D01*
X46665000Y-63465000D02*
X47735000Y-63465000D01*
X46665000Y-63765000D02*
X46665000Y-63465000D01*
X44250000Y-63765000D02*
X46665000Y-63765000D01*
X40765000Y-69185000D02*
X44250000Y-69185000D01*
X40765000Y-63465000D02*
X40765000Y-69185000D01*
X41835000Y-63465000D02*
X40765000Y-63465000D01*
X41835000Y-63765000D02*
X41835000Y-63465000D01*
X44250000Y-63765000D02*
X41835000Y-63765000D01*
X42125000Y-63175000D02*
X41625000Y-63175000D01*
X42125000Y-63475000D02*
X42125000Y-63175000D01*
%TO.C,J4*%
X74310000Y-37315000D02*
X72850000Y-37315000D01*
X76970000Y-30965000D02*
X76970000Y-30905000D01*
X76970000Y-37375000D02*
X76970000Y-37315000D01*
X76970000Y-30905000D02*
X74310000Y-30905000D01*
X74310000Y-30965000D02*
X74310000Y-30905000D01*
X74310000Y-37375000D02*
X74310000Y-37315000D01*
X76970000Y-37375000D02*
X74310000Y-37375000D01*
%TO.C,J5*%
X75275000Y-42030000D02*
X75275000Y-39880000D01*
X78825000Y-39880000D02*
X78825000Y-42780000D01*
X75275000Y-48180000D02*
X78825000Y-48180000D01*
X78825000Y-48180000D02*
X78825000Y-45280000D01*
X75275000Y-39880000D02*
X78825000Y-39880000D01*
X75275000Y-46030000D02*
X75275000Y-48180000D01*
X75275000Y-45730000D02*
X75275000Y-45130000D01*
X76025000Y-45730000D02*
X75275000Y-45730000D01*
%TO.C,L1*%
X77970000Y-52300000D02*
X76820000Y-52300000D01*
X72570000Y-52300000D02*
X73720000Y-52300000D01*
X77970000Y-57900000D02*
X76820000Y-57900000D01*
X72570000Y-57900000D02*
X73720000Y-57900000D01*
X77970000Y-57900000D02*
X77970000Y-52300000D01*
X72570000Y-57900000D02*
X72570000Y-52300000D01*
%TO.C,Q1*%
X50320000Y-60160000D02*
X50320000Y-58700000D01*
X53480000Y-60160000D02*
X53480000Y-58000000D01*
X53480000Y-60160000D02*
X52550000Y-60160000D01*
X50320000Y-60160000D02*
X51250000Y-60160000D01*
%TO.C,R1*%
X61702500Y-59427258D02*
X61702500Y-58952742D01*
X60657500Y-59427258D02*
X60657500Y-58952742D01*
%TO.C,R2*%
X60757500Y-55782742D02*
X60757500Y-56257258D01*
X61802500Y-55782742D02*
X61802500Y-56257258D01*
%TO.C,R3*%
X63997500Y-52487258D02*
X63997500Y-52012742D01*
X62952500Y-52487258D02*
X62952500Y-52012742D01*
%TO.C,R4*%
X60862742Y-53547500D02*
X61337258Y-53547500D01*
X60862742Y-52502500D02*
X61337258Y-52502500D01*
%TO.C,R5*%
X61362258Y-50852500D02*
X60887742Y-50852500D01*
X61362258Y-51897500D02*
X60887742Y-51897500D01*
%TO.C,R6*%
X44530000Y-34923641D02*
X44530000Y-34616359D01*
X43770000Y-34923641D02*
X43770000Y-34616359D01*
%TO.C,R7*%
X38453641Y-41595000D02*
X38146359Y-41595000D01*
X38453641Y-42355000D02*
X38146359Y-42355000D01*
%TO.C,R8*%
X54662258Y-48177500D02*
X54187742Y-48177500D01*
X54662258Y-49222500D02*
X54187742Y-49222500D01*
%TO.C,R9*%
X47953641Y-33710000D02*
X47646359Y-33710000D01*
X47953641Y-34470000D02*
X47646359Y-34470000D01*
%TO.C,R10*%
X45666359Y-34460000D02*
X45973641Y-34460000D01*
X45666359Y-33700000D02*
X45973641Y-33700000D01*
%TO.C,R11*%
X67972742Y-50382500D02*
X68447258Y-50382500D01*
X67972742Y-49337500D02*
X68447258Y-49337500D01*
%TO.C,SW1*%
X43150000Y-22110000D02*
X43150000Y-22900000D01*
X50050000Y-22900000D02*
X50050000Y-22110000D01*
X48200000Y-23950000D02*
X46500000Y-23950000D01*
X49450000Y-21100000D02*
X43750000Y-21100000D01*
X46700000Y-19810000D02*
X46700000Y-21100000D01*
X47800000Y-19600000D02*
X46900000Y-19600000D01*
X48000000Y-21100000D02*
X48000000Y-19810000D01*
X46700000Y-19810000D02*
X46900000Y-19600000D01*
X48000000Y-19810000D02*
X47800000Y-19600000D01*
X45200000Y-23950000D02*
X45000000Y-23950000D01*
%TO.C,Y1*%
X33900000Y-38990000D02*
X33900000Y-42990000D01*
X37200000Y-38990000D02*
X33900000Y-38990000D01*
%TD*%
M02*
